<svg width="755" height="1029" viewBox="0 0 755 1029" fill="none" xmlns="http://www.w3.org/2000/svg">
<g clip-path="url(#clip0)">
<path d="M431.426 943.943C336.823 1009.2 264.246 972.573 238.086 888.157C227.029 767.314 201.599 629.286 205.233 561.731C217.036 342.33 154.991 441.062 144.99 288.592C139.334 202.346 166.299 153.441 246.991 104.561C305.99 68.8227 419.565 136.029 489.99 104.562C560.488 73.0617 613.988 125.062 629.371 196.701C652.178 302.916 667.211 547.546 619.568 601.255C571.925 654.964 526.029 878.683 431.426 943.943Z" fill="#AED1EF" fill-opacity="0.21"/>
<path d="M233.616 419.194C233.616 419.194 233.366 418.735 232.926 417.863C232.478 416.967 231.835 415.681 230.999 414.006C229.317 410.611 226.865 405.664 223.737 399.349C217.503 386.697 208.578 368.58 197.755 346.616L198.179 346.763C170.257 360.445 135.852 377.304 98.6976 395.509L98.6901 395.514L98.8679 394.994C111.619 421.087 123.706 445.822 134.409 467.726L133.939 467.564C163.367 453.247 188.232 441.15 205.763 432.622C214.537 428.375 221.475 425.016 226.244 422.708C228.611 421.569 230.438 420.691 231.699 420.086C232.307 419.799 232.775 419.576 233.115 419.415C233.438 419.266 233.616 419.194 233.616 419.194C233.616 419.194 233.475 419.278 233.172 419.433C232.845 419.599 232.394 419.827 231.808 420.123C230.57 420.74 228.777 421.632 226.453 422.791C221.719 425.131 214.834 428.535 206.126 432.84C188.581 441.472 163.699 453.712 134.249 468.198L133.933 468.353L133.777 468.036C123.055 446.141 110.944 421.417 98.1703 395.336L98 394.987L98.3496 394.816L98.357 394.812C135.535 376.654 169.961 359.84 197.901 346.194L198.187 346.055L198.326 346.34C209.06 368.438 217.914 386.667 224.097 399.396C227.149 405.715 229.541 410.664 231.181 414.061C231.977 415.725 232.59 417.004 233.017 417.894C233.428 418.756 233.616 419.194 233.616 419.194Z" fill="#E0E0E0"/>
<path d="M198.046 346.477C198.06 346.481 198.027 346.614 197.951 346.868C197.857 347.164 197.739 347.533 197.595 347.988C197.247 349.025 196.765 350.458 196.155 352.276C194.853 356.046 193.002 361.4 190.724 367.992C186.049 381.289 179.625 399.561 172.527 419.748C171.544 420.232 172.238 419.876 172.01 419.982L171.981 419.973L171.921 419.952L171.801 419.913L171.564 419.834L171.089 419.676L170.14 419.361L168.251 418.733C166.996 418.316 165.748 417.901 164.511 417.489C162.036 416.664 159.597 415.853 157.201 415.055C152.41 413.456 147.79 411.912 143.384 410.442C134.596 407.491 126.677 404.83 120.004 402.589C113.402 400.341 108.039 398.516 104.262 397.231C102.455 396.598 101.027 396.099 99.996 395.737C99.5463 395.571 99.1833 395.437 98.892 395.329C98.644 395.234 98.52 395.179 98.5245 395.167C98.529 395.153 98.662 395.184 98.9174 395.255C99.2147 395.343 99.5851 395.452 100.045 395.589C101.088 395.916 102.531 396.369 104.358 396.946C108.152 398.174 113.542 399.92 120.178 402.07C126.865 404.267 134.802 406.872 143.61 409.766C148.02 411.222 152.646 412.752 157.441 414.335C159.839 415.13 162.28 415.938 164.755 416.758C165.993 417.169 167.241 417.583 168.495 418L170.385 418.627L171.334 418.942L171.809 419.101L172.046 419.18L172.166 419.219L172.226 419.238L172.255 419.249C172.046 419.356 172.766 419.022 171.794 419.494C178.975 399.337 185.474 381.09 190.204 367.815C192.579 361.257 194.509 355.93 195.868 352.18C196.536 350.383 197.063 348.967 197.446 347.942C197.621 347.495 197.761 347.135 197.875 346.847C197.976 346.595 198.034 346.472 198.046 346.477Z" fill="#E0E0E0"/>
<path d="M141.21 439.955C144.931 424.271 147.777 411.517 147.567 411.467C147.358 411.417 144.172 424.091 140.452 439.775C136.731 455.459 133.885 468.214 134.095 468.264C134.304 468.314 137.49 455.639 141.21 439.955Z" fill="#E0E0E0"/>
<path d="M207.977 406.661C222.627 414.074 234.582 419.928 234.68 419.736C234.777 419.544 222.979 413.379 208.329 405.965C193.678 398.552 181.723 392.699 181.626 392.891C181.529 393.083 193.326 399.248 207.977 406.661Z" fill="#E0E0E0"/>
<path d="M671.783 218H225.143V593.471H671.783V218Z" fill="#EBEBEB"/>
<path d="M226.006 243.923C226.006 243.708 325.61 243.533 448.451 243.533C571.335 243.533 670.918 243.708 670.918 243.923C670.918 244.138 571.335 244.311 448.451 244.311C325.61 244.313 226.006 244.138 226.006 243.923Z" fill="#E0E0E0"/>
<path d="M239.605 235.248C242.241 235.248 244.379 233.11 244.379 230.474C244.379 227.837 242.241 225.699 239.605 225.699C236.968 225.699 234.83 227.837 234.83 230.474C234.83 233.11 236.968 235.248 239.605 235.248Z" fill="#E0E0E0"/>
<path d="M252.89 235.248C255.527 235.248 257.664 233.11 257.664 230.474C257.664 227.837 255.527 225.699 252.89 225.699C250.253 225.699 248.115 227.837 248.115 230.474C248.115 233.11 250.253 235.248 252.89 235.248Z" fill="#E0E0E0"/>
<path d="M267.627 235.248C270.263 235.248 272.401 233.11 272.401 230.474C272.401 227.837 270.263 225.699 267.627 225.699C264.99 225.699 262.852 227.837 262.852 230.474C262.852 233.11 264.99 235.248 267.627 235.248Z" fill="#E0E0E0"/>
<path d="M751.119 803.443C751.119 803.658 605.338 803.832 425.549 803.832C245.698 803.832 99.9482 803.658 99.9482 803.443C99.9482 803.227 245.698 803.053 425.549 803.053C605.338 803.053 751.119 803.227 751.119 803.443Z" fill="#263238"/>
<path d="M654.599 633.339C654.596 630.606 654.469 480.179 654.272 248.078L654.598 248.405C523.228 248.423 365.606 248.444 196.352 248.468H196.312L196.7 248.079C196.685 387.69 196.67 519.366 196.657 633.341L196.312 632.996C469.302 633.202 651.589 633.338 654.599 633.339C651.591 633.342 469.303 633.48 196.312 633.685L195.967 633.686V633.339C195.955 519.365 195.939 387.688 195.924 248.078V247.689H196.312H196.352C365.606 247.712 523.226 247.734 654.598 247.752H654.927L654.925 248.078C654.728 480.179 654.599 630.607 654.599 633.339Z" fill="#FAFAFA"/>
<path d="M654.596 248.078H196.309V633.34H654.596V248.078Z" fill="#FAFAFA"/>
<path d="M361.759 274.678H197.191V312.401H361.759V274.678Z" fill="#EBEBEB"/>
<path d="M238.691 305.072C238.669 305.05 238.647 304.569 238.623 303.684C238.603 302.719 238.576 301.452 238.544 299.879C238.503 296.542 238.448 291.914 238.379 286.32L238.691 286.632C231.086 286.653 221.63 286.68 211.393 286.708C211.305 286.792 212.127 285.972 211.78 286.323V286.327V286.338V286.357V286.396V286.475V286.632V286.944V287.569V288.812C211.78 289.638 211.78 290.458 211.779 291.27C211.777 292.897 211.774 294.497 211.773 296.067C211.764 299.204 211.755 302.217 211.747 305.07L211.392 304.715C219.331 304.785 226.085 304.846 230.967 304.89C233.315 304.93 235.209 304.961 236.617 304.985C237.223 305.002 237.725 305.017 238.14 305.029C238.488 305.044 238.678 305.059 238.691 305.072C238.72 305.1 238.046 305.127 236.767 305.157C235.381 305.181 233.514 305.212 231.198 305.253C226.258 305.296 219.424 305.356 211.39 305.428L211.036 305.431V305.072C211.029 302.219 211.02 299.206 211.011 296.069C211.009 294.499 211.006 292.897 211.005 291.272C211.005 290.458 211.005 289.638 211.003 288.813V287.57V286.946V286.634V286.477V286.395V286.356V286.336V286.326V286.321C210.655 286.667 211.477 285.845 211.395 285.93C221.633 285.958 231.089 285.985 238.693 286.006L239.01 286.008L239.005 286.318C238.938 291.994 238.881 296.687 238.842 300.074C238.81 301.618 238.783 302.863 238.762 303.808C238.736 304.658 238.714 305.094 238.691 305.072Z" fill="#263238"/>
<path d="M238.702 286.32C238.738 286.359 238.391 286.749 237.732 287.421C237.073 288.092 236.101 289.043 234.891 290.208C232.468 292.537 229.086 295.716 225.315 299.191C224.259 299.191 225.02 299.188 224.784 299.188L224.778 299.183L224.767 299.173L224.745 299.152L224.7 299.112L224.612 299.031L224.436 298.868L224.086 298.545L223.394 297.904C222.937 297.48 222.486 297.062 222.043 296.651C221.163 295.83 220.313 295.035 219.494 294.272C217.923 292.781 216.481 291.414 215.211 290.21C214 289.046 213.029 288.093 212.37 287.422C211.711 286.752 211.365 286.362 211.4 286.323C211.436 286.284 211.853 286.598 212.576 287.2C213.298 287.802 214.325 288.694 215.585 289.806C216.887 290.975 218.366 292.3 219.98 293.746C220.807 294.499 221.668 295.281 222.558 296.092C223.005 296.5 223.457 296.917 223.917 297.337L224.612 297.975L224.961 298.297L225.138 298.46L225.226 298.541L225.271 298.581L225.293 298.602L225.304 298.611L225.31 298.616C225.076 298.617 225.84 298.62 224.788 298.62C228.557 295.145 231.999 292.031 234.517 289.805C235.777 288.692 236.805 287.802 237.526 287.198C238.248 286.595 238.664 286.28 238.702 286.32Z" fill="#263238"/>
<path d="M216.204 300.175C218.726 297.29 220.639 294.837 220.477 294.696C220.316 294.555 218.141 296.779 215.619 299.664C213.098 302.548 211.185 305.001 211.346 305.142C211.508 305.283 213.683 303.059 216.204 300.175Z" fill="#263238"/>
<path d="M234.14 300.049C236.579 303.083 238.693 305.433 238.861 305.298C239.029 305.163 237.187 302.594 234.747 299.56C232.307 296.526 230.193 294.176 230.026 294.311C229.858 294.446 231.7 297.015 234.14 300.049Z" fill="#263238"/>
<path d="M342.856 292.884C342.856 293.1 323.594 293.274 299.841 293.274C276.078 293.274 256.822 293.1 256.822 292.884C256.822 292.669 276.078 292.496 299.841 292.496C323.594 292.496 342.856 292.671 342.856 292.884Z" fill="#263238"/>
<path d="M654.601 442.227H359.679V506.847H654.601V442.227Z" fill="#79BC39"/>
<g opacity="0.8">
<path opacity="0.8" d="M654.601 442.227H359.679V506.847H654.601V442.227Z" fill="white"/>
</g>
<path d="M399.512 486.646H382.001C380.149 486.646 378.647 485.144 378.647 483.292V465.783C378.647 463.931 380.149 462.428 382.001 462.428H399.512C401.364 462.428 402.865 463.929 402.865 465.783V483.292C402.865 485.143 401.364 486.646 399.512 486.646Z" fill="#79BC39"/>
<path d="M388.917 479.923C388.605 479.923 388.29 479.825 388.021 479.624L383.13 475.955C382.47 475.46 382.337 474.524 382.831 473.864C383.327 473.205 384.262 473.069 384.923 473.565L388.733 476.424L396.38 468.123C396.937 467.516 397.881 467.476 398.491 468.036C399.097 468.595 399.136 469.54 398.578 470.147L390.016 479.441C389.724 479.758 389.322 479.923 388.917 479.923Z" fill="white"/>
<path d="M654.601 377.273H359.679V441.894H654.601V377.273Z" fill="#79BC39"/>
<path d="M652.809 442.146C652.809 442.361 587.651 442.536 507.292 442.536C426.906 442.536 361.761 442.361 361.761 442.146C361.761 441.931 426.906 441.758 507.292 441.758C587.651 441.758 652.809 441.933 652.809 442.146Z" fill="#263238"/>
<path d="M654.751 571.424H359.828V633.34H654.751V571.424Z" fill="#79BC39"/>
<g opacity="0.8">
<path opacity="0.8" d="M654.751 571.424H359.828V633.34H654.751V571.424Z" fill="white"/>
</g>
<path d="M399.658 615.845H382.149C380.297 615.845 378.796 614.342 378.796 612.49V594.981C378.796 593.128 380.297 591.627 382.149 591.627H399.658C401.511 591.627 403.014 593.128 403.014 594.981V612.49C403.014 614.342 401.512 615.845 399.658 615.845Z" fill="#79BC39"/>
<path d="M389.067 609.122C388.755 609.122 388.44 609.025 388.171 608.823L383.279 605.154C382.618 604.66 382.485 603.723 382.98 603.064C383.474 602.405 384.409 602.271 385.071 602.765L388.883 605.623L396.529 597.322C397.086 596.714 398.032 596.677 398.64 597.235C399.246 597.794 399.286 598.74 398.726 599.346L390.167 608.641C389.875 608.957 389.472 609.122 389.067 609.122Z" fill="white"/>
<g opacity="0.8">
<path opacity="0.8" d="M654.599 377.273H359.677V441.894H654.599V377.273Z" fill="white"/>
</g>
<path d="M399.513 421.695H382.003C380.15 421.695 378.649 420.193 378.649 418.341V400.83C378.649 398.978 380.15 397.477 382.003 397.477H399.513C401.366 397.477 402.867 398.978 402.867 400.83V418.341C402.867 420.192 401.366 421.695 399.513 421.695Z" fill="#79BC39"/>
<path d="M388.917 414.97C388.605 414.97 388.29 414.873 388.021 414.671L383.13 411.002C382.47 410.508 382.337 409.571 382.831 408.911C383.327 408.254 384.262 408.118 384.923 408.612L388.733 411.471L396.38 403.17C396.937 402.562 397.883 402.523 398.491 403.084C399.097 403.642 399.138 404.588 398.578 405.194L390.016 414.489C389.724 414.806 389.322 414.97 388.917 414.97Z" fill="white"/>
<path d="M654.599 633.339C654.596 630.606 654.469 480.179 654.272 248.078L654.597 248.405C523.227 248.423 365.605 248.444 196.352 248.468H196.311L196.7 248.079C196.685 387.69 196.67 519.366 196.656 633.341L196.311 632.996C469.301 633.202 651.589 633.338 654.599 633.339C651.59 633.342 469.303 633.48 196.311 633.685L195.966 633.686V633.339C195.954 519.365 195.938 387.688 195.923 248.078V247.689H196.311H196.352C365.605 247.712 523.225 247.734 654.597 247.752H654.926L654.924 248.078C654.727 480.179 654.599 630.607 654.599 633.339Z" fill="#79BC39"/>
<path d="M197.191 274.679C197.191 274.464 299.395 274.289 425.438 274.289C551.526 274.289 653.706 274.464 653.706 274.679C653.706 274.894 551.526 275.067 425.438 275.067C299.393 275.067 197.191 274.894 197.191 274.679Z" fill="#79BC39"/>
<path d="M211.151 265.775C213.857 265.775 216.05 263.582 216.05 260.877C216.05 258.172 213.857 255.979 211.151 255.979C208.446 255.979 206.253 258.172 206.253 260.877C206.253 263.582 208.446 265.775 211.151 265.775Z" fill="#FF4F5A"/>
<path d="M224.775 265.775C227.48 265.775 229.673 263.582 229.673 260.877C229.673 258.172 227.48 255.979 224.775 255.979C222.07 255.979 219.877 258.172 219.877 260.877C219.877 263.582 222.07 265.775 224.775 265.775Z" fill="#FFCE00"/>
<path d="M239.9 265.775C242.605 265.775 244.798 263.582 244.798 260.877C244.798 258.172 242.605 255.979 239.9 255.979C237.195 255.979 235.002 258.172 235.002 260.877C235.002 263.582 237.195 265.775 239.9 265.775Z" fill="#79BC39"/>
<path d="M257.198 327.579C257.182 327.551 257.546 327.524 258.253 327.497C259.062 327.475 260.09 327.448 261.352 327.414C264.188 327.378 268.063 327.327 272.738 327.267L272.892 327.266L272.988 327.393C274.507 329.394 276.197 331.62 277.998 333.994L278.07 334.088V334.21C278.077 337.232 278.086 340.52 278.097 343.949V344.336H277.71C276.247 344.336 274.701 344.337 273.134 344.339C265.59 344.316 258.561 344.295 252.64 344.277H252.309L252.312 343.95C252.343 340.582 252.37 337.582 252.394 335.043V334.969L252.43 334.913C253.876 332.643 255.046 330.809 255.916 329.441C256.732 328.189 257.176 327.539 257.198 327.579C257.21 327.6 257.116 327.793 256.925 328.141C256.693 328.555 256.414 329.051 256.076 329.65C255.27 331.029 254.187 332.879 252.85 335.165L252.885 335.038C252.909 337.578 252.936 340.577 252.968 343.946L252.64 343.619C258.561 343.601 265.59 343.58 273.134 343.557C274.701 343.559 276.246 343.559 277.71 343.56L277.325 343.946C277.333 340.519 277.342 337.229 277.35 334.207L277.422 334.424C275.647 332.029 273.984 329.786 272.487 327.766L272.737 327.89C268.115 327.829 264.285 327.78 261.481 327.742C260.201 327.709 259.158 327.681 258.336 327.66C257.609 327.635 257.215 327.608 257.198 327.579Z" fill="#263238"/>
<path d="M277.712 334.671C277.715 334.745 276.929 334.849 275.551 334.972C274.174 335.094 272.208 335.234 269.854 335.376L270.177 335.052C270.09 336.204 269.793 337.427 269 338.533C268.602 339.077 268.07 339.558 267.434 339.895C266.784 340.201 266.066 340.373 265.341 340.388C263.753 340.47 262.189 339.756 261.244 338.657C260.294 337.553 259.802 336.298 259.566 335.091L259.892 335.367C257.711 335.333 255.897 335.285 254.63 335.229C253.364 335.172 252.641 335.106 252.641 335.037C252.641 334.969 253.362 334.903 254.63 334.846C255.899 334.789 257.711 334.742 259.892 334.707L260.155 334.703L260.219 334.984C260.456 336.035 260.958 337.22 261.799 338.158C262.645 339.095 263.925 339.674 265.319 339.611C265.952 339.599 266.55 339.452 267.087 339.208C267.609 338.932 268.051 338.545 268.395 338.088C269.085 337.173 269.395 336.017 269.498 335.025L269.53 334.71L269.821 334.701C272.178 334.625 274.149 334.582 275.531 334.576C276.915 334.567 277.709 334.598 277.712 334.671Z" fill="#263238"/>
<path d="M333.862 328.357C333.862 328.315 334.271 328.275 335.138 328.237V328.476C332.092 328.632 322.905 328.747 312.064 328.747C305.339 328.747 299.25 328.703 294.843 328.632C292.762 328.582 291.014 328.54 289.624 328.508C288.391 328.461 287.71 328.41 287.71 328.355C287.71 328.301 288.391 328.251 289.624 328.204C291.013 328.171 292.761 328.13 294.843 328.08C299.25 328.01 305.337 327.967 312.064 327.967C322.905 327.967 332.093 328.08 335.138 328.237V328.476C334.271 328.439 333.862 328.4 333.862 328.357Z" fill="#263238"/>
<path d="M333.862 338.134C333.862 338.093 334.271 338.052 335.138 338.015V338.254C332.092 338.411 322.905 338.524 312.064 338.524C305.339 338.524 299.25 338.481 294.843 338.411C292.762 338.362 291.014 338.32 289.624 338.287C288.391 338.241 287.71 338.19 287.71 338.134C287.71 338.081 288.391 338.03 289.624 337.984C291.013 337.951 292.761 337.909 294.843 337.86C299.25 337.789 305.337 337.746 312.064 337.746C322.905 337.746 332.093 337.86 335.138 338.016V338.255C334.271 338.217 333.862 338.176 333.862 338.134Z" fill="#263238"/>
<path d="M333.862 347.913C333.862 347.872 334.271 347.831 335.138 347.794V348.033C332.092 348.19 322.905 348.303 312.064 348.303C305.339 348.303 299.25 348.26 294.843 348.19C292.762 348.14 291.014 348.099 289.624 348.066C288.391 348.019 287.71 347.969 287.71 347.913C287.71 347.86 288.391 347.809 289.624 347.762C291.013 347.73 292.761 347.688 294.843 347.638C299.25 347.568 305.337 347.523 312.064 347.523C322.905 347.523 332.093 347.637 335.138 347.794V348.033C334.271 347.994 333.862 347.954 333.862 347.913Z" fill="#263238"/>
<path d="M257.198 397.552C257.182 397.523 257.546 397.496 258.253 397.468C259.062 397.447 260.09 397.419 261.352 397.386C264.188 397.348 268.063 397.299 272.738 397.238L272.892 397.236L272.988 397.363C274.507 399.365 276.197 401.592 277.998 403.965L278.07 404.059V404.181C278.077 407.203 278.086 410.491 278.097 413.919V414.306H277.71C276.247 414.306 274.701 414.308 273.134 414.309C265.59 414.287 258.561 414.266 252.64 414.248H252.309L252.312 413.921C252.343 410.552 252.37 407.553 252.394 405.013V404.94L252.43 404.883C253.876 402.614 255.046 400.78 255.916 399.411C256.732 398.16 257.176 397.51 257.198 397.552C257.21 397.571 257.116 397.764 256.925 398.113C256.693 398.527 256.414 399.023 256.076 399.622C255.27 401.001 254.187 402.85 252.85 405.137L252.885 405.01C252.909 407.55 252.936 410.549 252.968 413.918L252.64 413.591C258.561 413.573 265.59 413.552 273.134 413.53C274.701 413.531 276.246 413.531 277.71 413.533L277.325 413.918C277.333 410.491 277.342 407.202 277.35 404.18L277.422 404.396C275.647 402.002 273.984 399.758 272.487 397.738L272.737 397.862C268.115 397.801 264.285 397.752 261.481 397.714C260.201 397.681 259.158 397.653 258.336 397.632C257.609 397.605 257.215 397.578 257.198 397.552Z" fill="#263238"/>
<path d="M277.712 404.643C277.715 404.716 276.929 404.821 275.551 404.943C274.174 405.066 272.208 405.206 269.854 405.348L270.177 405.024C270.09 406.176 269.793 407.399 269 408.506C268.602 409.048 268.07 409.531 267.434 409.868C266.784 410.175 266.066 410.346 265.341 410.361C263.753 410.443 262.189 409.729 261.244 408.63C260.294 407.526 259.802 406.271 259.566 405.064L259.892 405.341C257.711 405.306 255.897 405.258 254.63 405.202C253.364 405.145 252.641 405.079 252.641 405.01C252.641 404.942 253.362 404.876 254.63 404.819C255.899 404.762 257.711 404.715 259.892 404.68L260.155 404.677L260.219 404.958C260.456 406.01 260.958 407.196 261.799 408.132C262.645 409.071 263.925 409.649 265.319 409.586C265.952 409.574 266.55 409.426 267.087 409.183C267.609 408.906 268.051 408.519 268.395 408.062C269.085 407.148 269.395 405.99 269.498 404.998L269.53 404.683L269.821 404.674C272.178 404.598 274.149 404.555 275.531 404.549C276.915 404.538 277.709 404.571 277.712 404.643Z" fill="#263238"/>
<path d="M333.862 398.326C333.862 398.286 334.271 398.244 335.138 398.206V398.445C332.092 398.602 322.905 398.716 312.064 398.716C305.339 398.716 299.25 398.672 294.843 398.602C292.762 398.553 291.014 398.511 289.624 398.478C288.391 398.432 287.71 398.381 287.71 398.326C287.71 398.272 288.391 398.221 289.624 398.175C291.013 398.142 292.761 398.1 294.843 398.051C299.25 397.981 305.337 397.938 312.064 397.938C322.905 397.938 332.093 398.051 335.138 398.208V398.447C334.271 398.408 333.862 398.368 333.862 398.326Z" fill="#263238"/>
<path d="M333.862 408.105C333.862 408.063 334.271 408.023 335.138 407.985V408.224C332.092 408.381 322.905 408.495 312.064 408.495C305.339 408.495 299.25 408.451 294.843 408.381C292.762 408.332 291.014 408.29 289.624 408.257C288.391 408.211 287.71 408.16 287.71 408.105C287.71 408.051 288.391 408 289.624 407.954C291.013 407.921 292.761 407.879 294.843 407.83C299.25 407.76 305.337 407.715 312.064 407.715C322.905 407.715 332.093 407.828 335.138 407.985V408.224C334.271 408.187 333.862 408.147 333.862 408.105Z" fill="#263238"/>
<path d="M333.862 417.883C333.862 417.841 334.271 417.8 335.138 417.763V418.002C332.092 418.159 322.905 418.272 312.064 418.272C305.339 418.272 299.25 418.229 294.843 418.159C292.762 418.11 291.014 418.068 289.624 418.035C288.391 417.989 287.71 417.938 287.71 417.884C287.71 417.83 288.391 417.779 289.624 417.732C291.013 417.699 292.761 417.657 294.843 417.608C299.25 417.537 305.337 417.494 312.064 417.494C322.905 417.494 332.093 417.608 335.138 417.763V418.002C334.271 417.965 333.862 417.924 333.862 417.883Z" fill="#263238"/>
<path d="M257.198 467.522C257.182 467.494 257.546 467.467 258.253 467.439C259.062 467.418 260.09 467.389 261.352 467.356C264.188 467.319 268.063 467.27 272.738 467.209L272.892 467.207L272.988 467.334C274.507 469.336 276.197 471.562 277.998 473.935L278.07 474.029V474.15C278.077 477.172 278.086 480.46 278.097 483.889V484.274H277.71C276.247 484.274 274.701 484.276 273.134 484.277C265.59 484.255 258.561 484.234 252.64 484.216H252.309L252.312 483.889C252.343 480.52 252.37 477.519 252.394 474.979V474.906L252.43 474.849C253.876 472.58 255.046 470.746 255.916 469.378C256.732 468.132 257.176 467.482 257.198 467.522C257.21 467.543 257.116 467.734 256.925 468.084C256.693 468.498 256.414 468.994 256.076 469.593C255.27 470.971 254.187 472.821 252.85 475.108L252.885 474.981C252.909 477.52 252.936 480.52 252.968 483.89L252.64 483.561C258.561 483.544 265.59 483.523 273.134 483.5C274.701 483.502 276.246 483.502 277.71 483.503L277.325 483.89C277.333 480.462 277.342 477.174 277.35 474.152L277.422 474.368C275.647 471.974 273.984 469.73 272.487 467.71L272.737 467.834C268.115 467.773 264.285 467.724 261.481 467.687C260.201 467.654 259.158 467.625 258.336 467.604C257.609 467.578 257.215 467.551 257.198 467.522Z" fill="#263238"/>
<path d="M277.712 474.616C277.715 474.689 276.929 474.793 275.551 474.916C274.174 475.038 272.208 475.179 269.854 475.321L270.177 474.995C270.09 476.147 269.793 477.37 269 478.477C268.602 479.02 268.07 479.502 267.434 479.84C266.784 480.146 266.066 480.318 265.341 480.333C263.753 480.415 262.189 479.701 261.244 478.601C260.294 477.497 259.802 476.242 259.566 475.035L259.892 475.312C257.711 475.277 255.897 475.23 254.63 475.173C253.364 475.116 252.641 475.05 252.641 474.982C252.641 474.911 253.362 474.846 254.63 474.789C255.899 474.732 257.711 474.686 259.892 474.652L260.155 474.647L260.219 474.928C260.456 475.98 260.958 477.166 261.799 478.102C262.645 479.04 263.925 479.619 265.319 479.556C265.952 479.544 266.55 479.394 267.087 479.151C267.609 478.875 268.051 478.488 268.395 478.031C269.085 477.116 269.395 475.959 269.498 474.967L269.53 474.652L269.821 474.643C272.178 474.566 274.149 474.523 275.531 474.519C276.915 474.511 277.709 474.544 277.712 474.616Z" fill="#263238"/>
<path d="M333.862 468.298C333.862 468.256 334.271 468.216 335.138 468.179V468.418C332.092 468.574 322.905 468.688 312.064 468.688C305.339 468.688 299.25 468.645 294.843 468.574C292.762 468.525 291.014 468.483 289.624 468.45C288.391 468.404 287.71 468.353 287.71 468.3C287.71 468.246 288.391 468.195 289.624 468.147C291.013 468.114 292.761 468.073 294.843 468.023C299.25 467.953 305.337 467.908 312.064 467.908C322.905 467.908 332.093 468.022 335.138 468.179V468.418C334.271 468.38 333.862 468.34 333.862 468.298Z" fill="#263238"/>
<path d="M333.862 478.077C333.862 478.036 334.271 477.995 335.138 477.958V478.197C332.092 478.354 322.905 478.467 312.064 478.467C305.339 478.467 299.25 478.424 294.843 478.354C292.762 478.304 291.014 478.263 289.624 478.23C288.391 478.183 287.71 478.133 287.71 478.079C287.71 478.025 288.391 477.974 289.624 477.927C291.013 477.894 292.761 477.852 294.843 477.803C299.25 477.732 305.337 477.688 312.064 477.688C322.905 477.688 332.093 477.801 335.138 477.958V478.197C334.271 478.16 333.862 478.119 333.862 478.077Z" fill="#263238"/>
<path d="M333.862 487.855C333.862 487.813 334.271 487.773 335.138 487.736V487.975C332.092 488.132 322.905 488.245 312.064 488.245C305.339 488.245 299.25 488.202 294.843 488.132C292.762 488.082 291.014 488.04 289.624 488.008C288.391 487.961 287.71 487.91 287.71 487.857C287.71 487.803 288.391 487.752 289.624 487.704C291.013 487.671 292.761 487.631 294.843 487.58C299.25 487.51 305.337 487.467 312.064 487.467C322.905 487.467 332.093 487.58 335.138 487.736V487.975C334.271 487.937 333.862 487.897 333.862 487.855Z" fill="#263238"/>
<path d="M630.807 422.475H619.429C616.919 422.475 614.879 420.434 614.879 417.925V399.01H616.372V417.925C616.372 419.61 617.744 420.981 619.429 420.981H630.807C632.492 420.981 633.864 419.61 633.864 417.925V399.669H635.358V417.925C635.358 420.433 633.315 422.475 630.807 422.475Z" fill="#79BC39"/>
<path d="M637.233 399.113H613.003V400.607H637.233V399.113Z" fill="#79BC39"/>
<path d="M620.707 399.861H619.214V398.201C619.214 396.537 620.567 395.184 622.231 395.184H628.251C629.914 395.184 631.269 396.537 631.269 398.201V399.54H629.775V398.201C629.775 397.362 629.092 396.677 628.251 396.677H622.231C621.39 396.677 620.707 397.362 620.707 398.201V399.861Z" fill="#79BC39"/>
<path d="M621.604 416.881C621.819 416.881 621.994 414.007 621.994 410.462C621.994 406.917 621.819 404.043 621.604 404.043C621.388 404.043 621.214 406.917 621.214 410.462C621.214 414.007 621.388 416.881 621.604 416.881Z" fill="#79BC39"/>
<path d="M625.184 416.881C625.398 416.881 625.572 414.007 625.572 410.462C625.572 406.917 625.398 404.043 625.184 404.043C624.969 404.043 624.795 406.917 624.795 410.462C624.795 414.007 624.969 416.881 625.184 416.881Z" fill="#79BC39"/>
<path d="M628.724 416.881C628.94 416.881 629.114 414.007 629.114 410.462C629.114 406.917 628.94 404.043 628.724 404.043C628.509 404.043 628.334 406.917 628.334 410.462C628.334 414.007 628.509 416.881 628.724 416.881Z" fill="#79BC39"/>
<path d="M630.807 483.709H619.429C616.919 483.709 614.879 481.669 614.879 479.159V460.244H616.372V479.159C616.372 480.844 617.744 482.215 619.429 482.215H630.807C632.492 482.215 633.864 480.844 633.864 479.159V460.903H635.358V479.159C635.358 481.669 633.315 483.709 630.807 483.709Z" fill="#79BC39"/>
<path d="M637.233 460.35H613.003V461.843H637.233V460.35Z" fill="#79BC39"/>
<path d="M620.707 461.096H619.214V459.436C619.214 457.773 620.567 456.42 622.231 456.42H628.251C629.914 456.42 631.269 457.773 631.269 459.436V460.774H629.775V459.436C629.775 458.596 629.092 457.914 628.251 457.914H622.231C621.39 457.914 620.707 458.596 620.707 459.436V461.096Z" fill="#79BC39"/>
<path d="M621.604 478.115C621.819 478.115 621.994 475.241 621.994 471.696C621.994 468.151 621.819 465.277 621.604 465.277C621.388 465.277 621.214 468.151 621.214 471.696C621.214 475.241 621.388 478.115 621.604 478.115Z" fill="#79BC39"/>
<path d="M625.184 478.115C625.398 478.115 625.572 475.241 625.572 471.696C625.572 468.151 625.398 465.277 625.184 465.277C624.969 465.277 624.795 468.151 624.795 471.696C624.795 475.241 624.969 478.115 625.184 478.115Z" fill="#79BC39"/>
<path d="M628.724 478.115C628.94 478.115 629.114 475.241 629.114 471.696C629.114 468.151 628.94 465.277 628.724 465.277C628.509 465.277 628.334 468.151 628.334 471.696C628.334 475.241 628.509 478.115 628.724 478.115Z" fill="#79BC39"/>
<path d="M630.807 618.331H619.429C616.919 618.331 614.879 616.29 614.879 613.781V594.867H616.372V613.781C616.372 615.466 617.744 616.837 619.429 616.837H630.807C632.492 616.837 633.864 615.466 633.864 613.781V595.524H635.358V613.781C635.358 616.289 633.315 618.331 630.807 618.331Z" fill="#79BC39"/>
<path d="M637.233 594.969H613.003V596.463H637.233V594.969Z" fill="#79BC39"/>
<path d="M620.707 595.716H619.214V594.057C619.214 592.394 620.567 591.039 622.231 591.039H628.251C629.914 591.039 631.269 592.393 631.269 594.057V595.395H629.775V594.057C629.775 593.216 629.092 592.533 628.251 592.533H622.231C621.39 592.533 620.707 593.216 620.707 594.057V595.716Z" fill="#79BC39"/>
<path d="M621.604 612.736C621.819 612.736 621.994 609.863 621.994 606.317C621.994 602.772 621.819 599.898 621.604 599.898C621.388 599.898 621.214 602.772 621.214 606.317C621.214 609.863 621.388 612.736 621.604 612.736Z" fill="#79BC39"/>
<path d="M625.184 612.736C625.398 612.736 625.572 609.863 625.572 606.317C625.572 602.772 625.398 599.898 625.184 599.898C624.969 599.898 624.795 602.772 624.795 606.317C624.795 609.863 624.969 612.736 625.184 612.736Z" fill="#79BC39"/>
<path d="M628.724 612.736C628.94 612.736 629.114 609.863 629.114 606.317C629.114 602.772 628.94 599.898 628.724 599.898C628.509 599.898 628.334 602.772 628.334 606.317C628.334 609.863 628.509 612.736 628.724 612.736Z" fill="#79BC39"/>
<path d="M636.987 351.882C636.965 351.86 636.943 351.38 636.919 350.496C636.898 349.531 636.872 348.264 636.838 346.689C636.798 343.352 636.742 338.724 636.675 333.13L636.987 333.442C629.382 333.463 619.926 333.49 609.689 333.518C609.601 333.602 610.423 332.782 610.076 333.131V333.136V333.145V333.164V333.203V333.281V333.438V333.751V334.376V335.619C610.075 336.445 610.075 337.265 610.075 338.077C610.072 339.704 610.069 341.306 610.067 342.876C610.058 346.013 610.049 349.026 610.042 351.877L609.688 351.522C617.626 351.594 624.381 351.653 629.263 351.698C631.611 351.737 633.507 351.77 634.912 351.794C635.519 351.81 636.019 351.825 636.436 351.836C636.786 351.854 636.974 351.869 636.987 351.882C637.016 351.91 636.342 351.937 635.063 351.967C633.677 351.991 631.81 352.024 629.493 352.063C624.554 352.106 617.72 352.167 609.686 352.237L609.332 352.24L609.331 351.882C609.323 349.029 609.314 346.016 609.305 342.88C609.302 341.31 609.301 339.709 609.298 338.082C609.298 337.269 609.298 336.449 609.296 335.623V334.38V333.756V333.442V333.285V333.208V333.169V333.149V333.14V333.136C608.948 333.481 609.768 332.659 609.688 332.745C619.926 332.773 629.382 332.8 636.986 332.821H637.303L637.298 333.133C637.231 338.806 637.176 343.502 637.135 346.887C637.102 348.431 637.075 349.676 637.055 350.621C637.034 351.468 637.011 351.904 636.987 351.882Z" fill="#263238"/>
<path d="M636.992 333.13C637.028 333.171 636.681 333.561 636.022 334.231C635.363 334.902 634.391 335.855 633.181 337.019C630.758 339.348 627.374 342.527 623.607 346.001C622.551 346.001 623.311 346 623.075 345.998L623.069 345.994L623.057 345.983L623.035 345.962L622.991 345.922L622.902 345.841L622.727 345.679L622.377 345.356L621.686 344.717C621.227 344.292 620.778 343.874 620.334 343.462C619.454 342.64 618.604 341.845 617.787 341.082C616.214 339.591 614.772 338.224 613.504 337.02C612.293 335.855 611.322 334.904 610.663 334.233C610.006 333.562 609.656 333.172 609.693 333.132C609.729 333.093 610.148 333.408 610.869 334.01C611.591 334.612 612.62 335.504 613.879 336.616C615.182 337.784 616.661 339.109 618.274 340.555C619.102 341.308 619.962 342.09 620.852 342.9C621.299 343.309 621.753 343.725 622.212 344.144L622.906 344.782L623.256 345.105L623.432 345.266L623.52 345.347L623.565 345.387L623.588 345.408L623.598 345.419L623.604 345.423C623.371 345.425 624.134 345.428 623.081 345.426C626.85 341.951 630.292 338.837 632.81 336.613C634.071 335.5 635.097 334.609 635.82 334.006C636.544 333.402 636.956 333.09 636.992 333.13Z" fill="#263238"/>
<path d="M614.487 346.987C617.008 344.103 618.921 341.649 618.759 341.508C618.597 341.366 616.421 343.59 613.9 346.474C611.378 349.359 609.466 351.812 609.628 351.954C609.79 352.096 611.966 349.872 614.487 346.987Z" fill="#263238"/>
<path d="M632.453 346.859C634.893 349.892 637.007 352.243 637.174 352.108C637.342 351.974 635.499 349.405 633.058 346.372C630.618 343.338 628.504 340.988 628.337 341.122C628.17 341.257 630.013 343.825 632.453 346.859Z" fill="#263238"/>
<path d="M652.807 312.402C652.807 312.617 587.649 312.792 507.29 312.792C426.904 312.792 361.76 312.617 361.76 312.402C361.76 312.187 426.904 312.014 507.29 312.014C587.649 312.012 652.807 312.187 652.807 312.402Z" fill="#263238"/>
<path d="M652.807 377.273C652.807 377.488 587.649 377.663 507.29 377.663C426.904 377.663 361.76 377.488 361.76 377.273C361.76 377.058 426.904 376.885 507.29 376.885C587.649 376.885 652.807 377.06 652.807 377.273Z" fill="#263238"/>
<path d="M652.807 505.685C652.807 505.9 587.649 506.075 507.29 506.075C426.904 506.075 361.76 505.9 361.76 505.685C361.76 505.47 426.904 505.297 507.29 505.297C587.649 505.297 652.807 505.472 652.807 505.685Z" fill="#263238"/>
<path d="M652.807 571.423C652.807 571.638 587.649 571.813 507.29 571.813C426.904 571.813 361.76 571.638 361.76 571.423C361.76 571.208 426.904 571.033 507.29 571.033C587.649 571.033 652.807 571.21 652.807 571.423Z" fill="#263238"/>
<path d="M399.511 357.399C399.509 357.36 399.835 357.371 400.403 357.195C400.954 357.018 401.786 356.573 402.316 355.589C402.893 354.621 402.608 353.166 402.648 351.532C402.63 349.878 402.612 348.017 402.59 345.969C402.575 343.898 402.558 341.642 402.542 339.227C402.539 338.62 402.536 338.005 402.531 337.379C402.522 336.734 402.566 336.136 402.372 335.597C402.019 334.49 400.935 333.61 399.71 333.55C394.256 333.556 388.28 333.562 382.003 333.57C380.593 333.547 379.305 334.645 379.086 335.997C378.983 337.382 379.054 338.998 379.029 340.447C379.022 343.41 379.014 346.27 379.007 349C379.001 350.362 378.995 351.69 378.99 352.982C379.005 353.636 378.929 354.273 379.08 354.797C379.21 355.345 379.51 355.84 379.898 356.224C380.291 356.608 380.778 356.876 381.294 357C381.791 357.139 382.365 357.078 382.935 357.098C384.057 357.106 385.137 357.115 386.171 357.123C390.216 357.174 393.527 357.217 395.933 357.247C397.018 357.277 397.896 357.301 398.586 357.32C399.191 357.347 399.511 357.372 399.511 357.399C399.511 357.426 399.193 357.452 398.585 357.477C397.896 357.496 397.016 357.52 395.932 357.55C393.525 357.582 390.216 357.623 386.17 357.674C385.137 357.682 384.057 357.691 382.934 357.7C382.384 357.685 381.793 357.765 381.149 357.607C380.524 357.467 379.93 357.148 379.45 356.688C378.974 356.23 378.603 355.632 378.434 354.963C378.245 354.27 378.33 353.611 378.306 352.982C378.301 351.69 378.296 350.362 378.29 349C378.282 346.27 378.275 343.411 378.267 340.447C378.266 339.705 378.266 338.958 378.264 338.204C378.29 337.425 378.203 336.746 378.325 335.857C378.6 334.149 380.224 332.763 382.005 332.791C388.298 332.806 394.29 332.821 399.757 332.833C401.28 332.92 402.603 334.016 403.023 335.382C403.257 336.075 403.193 336.78 403.199 337.378C403.196 338.003 403.193 338.62 403.189 339.225C403.172 341.641 403.156 343.897 403.141 345.967C403.12 348.015 403.101 349.876 403.083 351.53C403.072 352.343 403.06 353.105 403.051 353.811C403.071 354.528 402.884 355.217 402.584 355.734C401.961 356.787 401.038 357.207 400.448 357.344C399.837 357.48 399.511 357.399 399.511 357.399Z" fill="#263238"/>
<path d="M399.511 551.267C399.509 551.228 399.835 551.237 400.403 551.061C400.954 550.884 401.786 550.441 402.316 549.456C402.893 548.488 402.608 547.033 402.648 545.399C402.63 543.745 402.612 541.883 402.59 539.836C402.575 537.766 402.558 535.51 402.542 533.093C402.539 532.488 402.536 531.871 402.531 531.247C402.522 530.6 402.566 530.002 402.372 529.463C402.019 528.356 400.935 527.476 399.71 527.418C394.256 527.424 388.28 527.43 382.003 527.437C380.593 527.415 379.305 528.514 379.086 529.865C378.983 531.251 379.054 532.866 379.029 534.315C379.022 537.279 379.014 540.138 379.007 542.867C379.001 544.229 378.995 545.557 378.99 546.85C379.005 547.504 378.929 548.14 379.08 548.666C379.21 549.214 379.51 549.709 379.898 550.093C380.291 550.477 380.778 550.746 381.294 550.87C381.791 551.008 382.365 550.947 382.935 550.967C384.057 550.976 385.137 550.985 386.171 550.992C390.216 551.043 393.527 551.086 395.933 551.116C397.018 551.146 397.896 551.17 398.586 551.189C399.191 551.213 399.511 551.238 399.511 551.267C399.511 551.294 399.193 551.319 398.585 551.345C397.896 551.364 397.016 551.388 395.932 551.418C393.525 551.449 390.216 551.491 386.17 551.542C385.137 551.551 384.057 551.558 382.934 551.567C382.384 551.552 381.793 551.634 381.149 551.475C380.524 551.334 379.93 551.016 379.45 550.557C378.974 550.097 378.603 549.501 378.434 548.832C378.245 548.139 378.33 547.482 378.306 546.851C378.301 545.559 378.296 544.231 378.29 542.869C378.282 540.141 378.275 537.282 378.267 534.316C378.266 533.575 378.266 532.827 378.264 532.073C378.29 531.294 378.203 530.615 378.325 529.727C378.6 528.018 380.224 526.634 382.005 526.661C388.298 526.675 394.29 526.69 399.757 526.702C401.28 526.79 402.603 527.887 403.023 529.251C403.257 529.945 403.193 530.649 403.199 531.248C403.196 531.872 403.193 532.489 403.189 533.094C403.172 535.51 403.156 537.767 403.141 539.838C403.12 541.884 403.101 543.745 403.083 545.401C403.072 546.213 403.06 546.975 403.051 547.682C403.071 548.397 402.884 549.086 402.584 549.603C401.961 550.656 401.038 551.076 400.448 551.213C399.837 551.348 399.511 551.267 399.511 551.267Z" fill="#263238"/>
<path d="M359.59 627.729C359.59 627.729 359.563 627.42 359.551 626.818C359.543 626.186 359.531 625.297 359.515 624.143C359.501 621.762 359.481 618.3 359.454 613.856C359.454 604.895 359.452 591.976 359.451 576.022C359.521 544.076 359.838 499.947 360.289 451.21C360.704 402.467 361.082 358.346 361.354 326.379C361.457 310.427 361.539 297.509 361.597 288.549C361.633 284.105 361.662 280.644 361.682 278.264C361.7 277.11 361.714 276.221 361.724 275.589C361.738 274.987 361.765 274.678 361.765 274.678C361.765 274.678 361.792 274.987 361.803 275.589C361.811 276.219 361.824 277.108 361.839 278.264C361.853 280.644 361.874 284.105 361.901 288.549C361.901 297.509 361.902 310.428 361.904 326.381C361.833 358.326 361.517 402.461 361.066 451.215C360.649 499.941 360.272 544.057 360 576.025C359.897 591.978 359.814 604.895 359.757 613.856C359.721 618.3 359.693 621.762 359.672 624.143C359.654 625.297 359.64 626.186 359.63 626.818C359.616 627.42 359.59 627.729 359.59 627.729Z" fill="#263238"/>
<path d="M525.93 403.299C525.93 403.514 503.485 403.688 475.802 403.688C448.109 403.688 425.667 403.514 425.667 403.299C425.667 403.083 448.109 402.91 475.802 402.91C503.484 402.91 525.93 403.083 525.93 403.299Z" fill="#263238"/>
<path d="M588.598 414.359C588.598 414.574 552.122 414.749 507.138 414.749C462.137 414.749 425.668 414.574 425.668 414.359C425.668 414.144 462.137 413.971 507.138 413.971C552.122 413.971 588.598 414.145 588.598 414.359Z" fill="#263238"/>
<path d="M525.93 533.426C525.93 533.641 503.485 533.815 475.802 533.815C448.109 533.815 425.667 533.641 425.667 533.426C425.667 533.21 448.109 533.037 475.802 533.037C503.484 533.037 525.93 533.21 525.93 533.426Z" fill="#263238"/>
<path d="M588.598 544.486C588.598 544.701 552.122 544.876 507.138 544.876C462.137 544.876 425.668 544.701 425.668 544.486C425.668 544.271 462.137 544.098 507.138 544.098C552.122 544.098 588.598 544.271 588.598 544.486Z" fill="#263238"/>
<path d="M525.93 340.777C525.93 340.992 503.485 341.167 475.802 341.167C448.109 341.167 425.667 340.992 425.667 340.777C425.667 340.562 448.109 340.389 475.802 340.389C503.484 340.387 525.93 340.562 525.93 340.777Z" fill="#263238"/>
<path d="M588.598 351.838C588.598 352.053 552.122 352.227 507.138 352.227C462.137 352.227 425.668 352.053 425.668 351.838C425.668 351.622 462.137 351.449 507.138 351.449C552.122 351.449 588.598 351.622 588.598 351.838Z" fill="#263238"/>
<path d="M525.93 467.056C525.93 467.271 503.485 467.444 475.802 467.444C448.109 467.444 425.667 467.27 425.667 467.056C425.667 466.841 448.109 466.666 475.802 466.666C503.484 466.668 525.93 466.841 525.93 467.056Z" fill="#263238"/>
<path d="M588.598 478.117C588.598 478.332 552.122 478.507 507.138 478.507C462.137 478.507 425.668 478.332 425.668 478.117C425.668 477.902 462.137 477.729 507.138 477.729C552.122 477.729 588.598 477.903 588.598 478.117Z" fill="#263238"/>
<path d="M525.93 595.163C525.93 595.378 503.485 595.553 475.802 595.553C448.109 595.553 425.667 595.378 425.667 595.163C425.667 594.948 448.109 594.773 475.802 594.773C503.484 594.773 525.93 594.948 525.93 595.163Z" fill="#263238"/>
<path d="M588.598 606.224C588.598 606.439 552.122 606.614 507.138 606.614C462.137 606.614 425.668 606.439 425.668 606.224C425.668 606.009 462.137 605.834 507.138 605.834C552.122 605.834 588.598 606.01 588.598 606.224Z" fill="#263238"/>
<path d="M639.688 282.828H619.958V302.557H639.688V282.828Z" fill="#E0E0E0"/>
<path d="M607.561 282.828H587.833V302.557H607.561V282.828Z" fill="#E0E0E0"/>
<path d="M575.437 282.828H555.708V302.557H575.437V282.828Z" fill="#E0E0E0"/>
<path d="M217.271 334.488L225.659 345.434L232.826 334.488H217.271Z" fill="#263238"/>
<path d="M199.118 476.329C218.583 450.698 239.101 454.319 253.341 460.512C267.582 466.706 277.142 482.31 276.197 497.81C275.947 501.903 275.072 506.215 276.736 509.963C279.415 515.99 287.206 517.689 291.718 522.502C297.886 529.081 296.519 539.499 294.435 548.273C292.351 557.048 290.158 567.066 295.318 574.463C300.044 581.239 309.057 583.056 316.487 586.663C326.307 591.429 334.202 600.326 337.054 610.862C339.904 621.399 337.395 633.401 330.012 641.442C322.788 649.314 311.938 652.803 301.368 654.361C270.611 658.89 238.032 648.966 215.025 628.057C192.017 607.15 179.029 575.666 180.605 544.616" fill="#263238"/>
<path d="M254.345 461.61C254.336 461.767 251.668 461.361 247.432 462.002C243.18 462.562 237.562 464.48 231.359 466.657C225.148 468.83 219.167 470.037 214.799 469.755C212.625 469.643 210.887 469.292 209.73 468.92C208.573 468.558 207.966 468.265 207.983 468.227C208.026 468.058 210.534 469.142 214.815 469.204C219.092 469.34 224.928 468.079 231.108 465.919C237.288 463.75 243.019 461.884 247.358 461.455C249.515 461.21 251.28 461.21 252.487 461.322C253.695 461.427 254.351 461.567 254.345 461.61Z" fill="#455A64"/>
<path d="M299.089 665.504C299.834 667.74 315.331 740.939 315.331 740.939L433.176 786.25L426.544 803.443L325.499 794.559C266.533 785.757 263.25 756.817 266.814 724.473L272.923 669.04L299.089 665.504Z" fill="#FFBE9D"/>
<path d="M129.704 626.029C141.852 607.642 160.287 597.04 177.164 591.168L239.161 595.588C239.161 595.588 260.099 592.532 276.927 609.517L282.688 763.142L296.923 803.441H149.437L129.704 626.029Z" fill="#4A375B"/>
<path d="M279.192 672.594C279.183 672.605 279.062 672.524 278.835 672.358C278.575 672.161 278.247 671.913 277.839 671.605C277.392 671.286 276.893 670.823 276.213 670.397C275.532 669.958 274.758 669.459 273.891 668.9C272.97 668.419 271.957 667.862 270.827 667.3C269.648 666.846 268.432 666.19 267.011 665.781C264.243 664.762 260.93 664.072 257.246 663.733C253.561 663.415 249.46 663.558 245.203 664.478C240.956 665.394 236.549 667.105 232.494 669.825C228.43 672.476 224.636 676.241 222.494 681.076C221.463 683.49 220.872 686.172 221.133 688.868C221.397 691.551 222.376 694.229 224.079 696.409C225.758 698.597 228.247 700.121 230.892 700.45C233.511 700.813 236.345 699.824 237.599 697.567C238.877 695.35 238.59 692.559 237.717 690.247C237.275 689.071 236.676 687.966 235.955 686.969C235.224 685.991 234.379 685.078 233.473 684.275C229.872 680.99 225.461 679.113 221.24 678.159C216.995 677.189 212.889 677.131 209.203 677.487C201.806 678.25 196.046 680.25 192.091 681.511C190.158 682.165 188.636 682.681 187.541 683.05C187.054 683.21 186.663 683.338 186.354 683.441C186.085 683.526 185.944 683.562 185.94 683.55C185.935 683.537 186.065 683.475 186.327 683.366C186.63 683.245 187.011 683.093 187.487 682.902C188.514 682.506 190.025 681.926 191.993 681.224C195.926 679.874 201.674 677.782 209.149 676.938C212.872 676.544 217.05 676.568 221.381 677.53C225.688 678.474 230.22 680.365 233.954 683.743C234.43 684.151 234.873 684.599 235.303 685.068C235.746 685.517 236.164 686.016 236.545 686.539C237.308 687.586 237.942 688.744 238.412 689.984C239.329 692.417 239.697 695.417 238.257 697.954C237.55 699.195 236.385 700.176 235.045 700.711C233.705 701.252 232.229 701.389 230.8 701.218C227.919 700.865 225.253 699.214 223.469 696.891C221.662 694.576 220.64 691.763 220.364 688.941C220.09 686.096 220.721 683.277 221.796 680.775C224.037 675.752 227.943 671.924 232.098 669.23C236.25 666.467 240.75 664.752 245.072 663.848C249.404 662.94 253.565 662.828 257.297 663.185C261.029 663.564 264.373 664.304 267.158 665.372C268.587 665.803 269.808 666.488 270.988 666.966C272.12 667.553 273.132 668.135 274.047 668.64C274.906 669.226 275.674 669.749 276.348 670.209C277.017 670.657 277.506 671.142 277.937 671.483C278.327 671.818 278.639 672.085 278.887 672.297C279.098 672.484 279.201 672.584 279.192 672.594Z" fill="#FAFAFA"/>
<path d="M276.927 609.518L313.52 675.322L272.92 687.799L276.927 609.518Z" fill="#4A375B"/>
<path d="M281.841 763.634C281.814 763.635 281.774 763.24 281.72 762.484C281.671 761.655 281.607 760.558 281.526 759.184C281.392 756.231 281.202 752.103 280.97 747.036C280.545 736.778 280.025 722.604 279.571 706.945C279.115 691.28 278.819 677.098 278.725 666.829C278.683 661.694 278.664 657.539 278.706 654.668C278.73 653.291 278.747 652.191 278.762 651.361C278.785 650.605 278.809 650.209 278.836 650.209C278.863 650.209 278.891 650.606 278.919 651.361C278.942 652.191 278.972 653.289 279.009 654.665C279.073 657.62 279.164 661.749 279.276 666.82C279.554 677.155 279.932 691.295 280.35 706.922C280.807 722.543 281.22 736.684 281.522 747.018C281.65 752.088 281.755 756.22 281.829 759.173C281.849 760.551 281.865 761.65 281.877 762.481C281.879 763.235 281.868 763.632 281.841 763.634Z" fill="#263238"/>
<path d="M287.727 629.559C287.742 629.583 287.452 629.78 286.886 630.142C286.333 630.529 285.455 630.983 284.308 631.549C281.995 632.596 278.385 633.764 273.787 633.827C269.238 633.908 263.606 632.817 258.53 629.382C257.253 628.558 256.03 627.559 254.956 626.348C253.898 625.136 253.008 623.632 252.754 621.911C252.494 620.23 252.819 618.309 254.071 616.933C255.317 615.519 257.374 615.096 259.149 615.468C260.941 615.828 262.598 616.886 263.521 618.463C264.428 620.027 264.613 621.875 264.311 623.545C264.016 625.229 263.252 626.761 262.238 628.034C261.213 629.319 259.909 630.263 258.566 631.005C255.841 632.457 252.948 633.028 250.287 633.336C247.61 633.642 245.09 633.618 242.815 633.424C238.252 633.007 234.69 631.858 232.339 630.898C231.157 630.418 230.268 629.981 229.677 629.665C229.087 629.347 228.784 629.169 228.797 629.145C228.811 629.122 229.136 629.253 229.746 629.525C230.355 629.792 231.26 630.182 232.448 630.614C234.814 631.482 238.358 632.534 242.86 632.876C245.105 633.032 247.585 633.025 250.211 632.696C252.825 632.369 255.64 631.779 258.224 630.376C259.494 629.665 260.726 628.756 261.66 627.571C262.592 626.386 263.299 624.955 263.561 623.412C263.833 621.882 263.651 620.223 262.853 618.854C262.066 617.504 260.592 616.55 258.998 616.231C257.411 615.904 255.67 616.285 254.643 617.453C253.587 618.602 253.275 620.284 253.505 621.797C253.725 623.333 254.524 624.713 255.514 625.861C256.518 627.006 257.692 627.983 258.932 628.79C263.835 632.159 269.322 633.288 273.782 633.277C278.291 633.286 281.864 632.221 284.185 631.27C286.511 630.278 287.678 629.477 287.727 629.559Z" fill="#FAFAFA"/>
<path d="M279.93 762.337C279.921 762.347 279.778 762.252 279.506 762.057C279.204 761.838 278.808 761.549 278.309 761.188C277.232 760.462 275.638 759.388 273.434 758.282C269.063 756.089 262.106 753.689 253.267 753.84C244.461 753.909 234.046 756.78 223.965 762.624C221.457 764.083 218.98 765.761 216.731 767.789C214.477 769.806 212.436 772.184 211.024 774.971C209.657 777.744 208.993 781.032 209.675 784.13C210.058 785.655 210.803 787.143 211.967 788.193C213.104 789.261 214.778 789.701 216.271 789.245C217.782 788.825 218.945 787.567 219.723 786.193C220.489 784.787 220.915 783.2 220.972 781.621C220.982 778.431 219.865 775.306 218.123 772.734C216.399 770.126 214.057 768.025 211.514 766.418C208.951 764.83 206.135 763.801 203.307 763.203C197.629 761.993 192.018 762.349 186.905 763.049C181.771 763.775 177.052 764.875 172.823 766.122C164.357 768.644 157.886 771.776 153.543 774.113C151.377 775.3 149.724 776.276 148.614 776.954C148.086 777.275 147.668 777.527 147.347 777.723C147.06 777.892 146.908 777.974 146.9 777.962C146.893 777.95 147.029 777.847 147.304 777.656C147.614 777.445 148.019 777.17 148.53 776.821C149.616 776.099 151.246 775.078 153.397 773.848C157.708 771.424 164.172 768.199 172.664 765.595C176.908 764.309 181.648 763.172 186.814 762.411C191.965 761.678 197.646 761.288 203.458 762.504C206.349 763.105 209.253 764.153 211.906 765.787C214.533 767.438 216.958 769.601 218.756 772.311C220.573 774.994 221.754 778.233 221.746 781.643C221.684 783.353 221.233 785.043 220.404 786.57C219.56 788.057 218.281 789.483 216.49 789.992C214.73 790.534 212.745 789.992 211.45 788.773C210.131 787.575 209.339 785.962 208.925 784.317C208.192 780.953 208.915 777.542 210.345 774.635C211.821 771.731 213.93 769.293 216.238 767.239C218.541 765.172 221.063 763.475 223.611 762.005C233.801 756.142 244.353 753.29 253.262 753.293C262.207 753.209 269.212 755.724 273.575 758.017C277.966 760.365 279.93 762.337 279.93 762.337Z" fill="#FAFAFA"/>
<path d="M174.695 643.03C170.227 620.07 137.72 619.222 132.023 641.908C131.936 642.256 131.849 642.611 131.767 642.968C123.399 678.718 151.702 784.352 159.309 790.437C166.916 796.523 174.449 803.442 187.453 798.043C195.052 794.89 274.007 725.118 274.007 725.118C274.007 725.118 292.263 742.613 298.347 741.091C304.433 739.569 316.074 721.619 316.074 721.619C316.074 721.619 327.356 738.549 328.774 738.81C332.802 739.55 334.859 735.005 333.337 732.724C331.815 730.443 317.437 698.961 317.437 698.961C317.437 698.961 328.774 697.734 326.492 693.931C326.492 693.931 326.209 690.434 318.547 691.109C310.885 691.786 310.885 682.996 296.688 683.898C282.49 684.801 252.968 688.407 211.502 720.181L192.347 733.703L174.695 643.03Z" fill="#FFBE9D"/>
<path d="M211.497 720.18C211.497 720.18 211.651 720.041 211.969 719.793C212.312 719.53 212.784 719.168 213.401 718.698C214.693 717.728 216.566 716.321 218.99 714.498C224.005 711.028 231.298 705.86 241.192 700.515C251.064 695.21 263.513 689.477 278.569 686.092C282.335 685.296 286.237 684.571 290.286 684.127C292.309 683.905 294.363 683.72 296.446 683.579C298.538 683.494 300.691 683.431 302.827 683.86C304.962 684.239 307.067 685.036 308.94 686.232C310.837 687.387 312.428 688.991 314.346 689.962C315.289 690.488 316.351 690.696 317.417 690.768C318.472 690.794 319.643 690.626 320.799 690.673C321.957 690.708 323.142 690.833 324.28 691.262C325.384 691.683 326.575 692.457 326.857 693.903L326.806 693.745C327.068 694.182 327.262 694.777 327.105 695.361C326.951 695.938 326.564 696.368 326.165 696.697C325.345 697.352 324.4 697.726 323.449 698.062C321.533 698.7 319.528 699.081 317.477 699.338L317.777 698.809C321.046 705.873 324.435 713.203 327.916 720.726C329.686 724.464 331.446 728.307 333.385 732.026C333.602 732.432 333.974 732.971 334.111 733.555C334.238 734.135 334.253 734.728 334.154 735.3C333.938 736.431 333.373 737.514 332.459 738.255C331.568 739.026 330.338 739.38 329.18 739.247L328.747 739.199C328.684 739.2 328.529 739.13 328.43 739.082C328.343 739.03 328.292 738.984 328.224 738.933C327.979 738.734 327.791 738.533 327.599 738.33C327.226 737.92 326.873 737.502 326.534 737.076C322.643 732.084 319.189 726.917 315.753 721.836L316.4 721.832C313.64 725.985 310.755 729.973 307.615 733.693C306.033 735.541 304.418 737.35 302.582 738.936C302.116 739.326 301.629 739.692 301.154 740.068C300.639 740.4 300.126 740.739 299.575 741.02C298.984 741.243 298.42 741.531 297.741 741.558C297.098 741.561 296.469 741.488 295.882 741.319C293.525 740.661 291.486 739.432 289.52 738.191C287.562 736.927 285.708 735.557 283.909 734.153C280.321 731.332 276.954 728.391 273.762 725.378L274.244 725.389C249.208 747.414 227.765 765.903 212.439 778.718C204.775 785.124 198.636 790.107 194.336 793.389C192.19 795.035 190.499 796.25 189.317 797.012C188.147 797.794 187.453 798.045 187.453 798.045C187.435 798.007 188.107 797.726 189.253 796.913C190.409 796.123 192.075 794.88 194.196 793.207C198.447 789.873 204.539 784.837 212.161 778.387C227.402 765.481 248.779 746.921 273.771 724.852L274.014 724.636L274.255 724.861C277.429 727.844 280.796 730.778 284.362 733.572C286.149 734.964 287.99 736.32 289.923 737.563C291.854 738.784 293.882 739.983 296.069 740.588C298.301 741.423 300.313 739.832 302.085 738.359C303.865 736.819 305.465 735.028 307.029 733.197C310.136 729.513 313.014 725.527 315.75 721.407L316.071 720.923L316.397 721.404C319.822 726.467 323.291 731.651 327.139 736.586C327.472 737.005 327.817 737.412 328.168 737.799C328.345 737.987 328.53 738.179 328.703 738.319L328.823 738.409L328.838 738.416C328.847 738.389 328.827 738.464 328.817 738.555C328.83 738.492 328.776 738.784 328.847 738.43H328.859L328.883 738.433L329.252 738.471C330.236 738.582 331.223 738.294 331.964 737.657C333.452 736.4 334.03 734.033 332.713 732.41C330.729 728.605 328.996 724.807 327.22 721.05C323.745 713.523 320.36 706.188 317.098 699.117L316.883 698.652L317.398 698.588C319.386 698.341 321.379 697.963 323.212 697.355C324.117 697.04 325.016 696.671 325.699 696.121C326.035 695.848 326.301 695.524 326.392 695.179C326.486 694.837 326.379 694.466 326.179 694.12L326.147 694.064L326.128 693.961C325.964 693.068 325.015 692.282 324.022 691.942C323.009 691.558 321.891 691.431 320.786 691.398C319.669 691.349 318.59 691.513 317.392 691.486C316.23 691.413 315.044 691.165 314.029 690.599C311.963 689.535 310.399 687.935 308.569 686.824C306.765 685.671 304.768 684.909 302.708 684.537C298.573 683.79 294.381 684.425 290.364 684.782C286.337 685.213 282.456 685.922 278.708 686.701C263.722 690.024 251.292 695.682 241.413 700.917C231.515 706.193 224.192 711.294 219.137 714.7C216.683 716.479 214.788 717.852 213.481 718.801C212.849 719.25 212.364 719.595 212.014 719.845C211.677 720.075 211.497 720.18 211.497 720.18Z" fill="#EB996E"/>
<path d="M185.248 759.403C185.194 759.412 185.088 759.016 184.939 758.29C184.779 757.564 184.641 756.496 184.558 755.171C184.38 752.522 184.589 748.801 185.678 744.873C186.781 740.948 188.527 737.656 190.051 735.482C190.809 734.393 191.48 733.549 191.991 733.012C192.494 732.466 192.79 732.184 192.832 732.22C192.934 732.306 191.889 733.561 190.512 735.784C189.13 737.998 187.507 741.249 186.43 745.085C185.367 748.922 185.075 752.543 185.109 755.153C185.136 757.766 185.381 759.381 185.248 759.403Z" fill="#EB996E"/>
<path d="M152.549 603.314C151.825 603.8 125.534 611.659 121.399 638.617C117.264 665.573 119.742 712.489 119.742 712.489L191.062 707.59L170.62 612.811L152.549 603.314Z" fill="#4A375B"/>
<path d="M304.154 737.362C304.024 737.33 304.225 736.401 304.183 734.913C304.151 733.428 303.759 731.377 302.709 729.368C301.647 727.366 300.174 725.885 298.968 725.018C297.763 724.141 296.883 723.784 296.932 723.659C296.953 723.583 297.923 723.757 299.273 724.561C300.621 725.35 302.267 726.875 303.398 729.008C304.518 731.144 304.845 733.364 304.735 734.922C304.632 736.489 304.23 737.387 304.154 737.362Z" fill="#EB996E"/>
<path d="M310.7 729.367C310.459 729.399 310.392 726.122 308.277 722.879C306.223 719.596 303.276 718.158 303.407 717.954C303.444 717.87 304.232 718.102 305.343 718.81C306.452 719.512 307.839 720.756 308.933 722.459C310.019 724.167 310.564 725.947 310.736 727.248C310.911 728.557 310.79 729.368 310.7 729.367Z" fill="#EB996E"/>
<path d="M310.702 712.342C310.755 712.264 311.372 712.562 312.192 713.295C313.011 714.021 313.988 715.228 314.674 716.77C315.356 718.314 315.594 719.85 315.582 720.944C315.574 722.042 315.38 722.699 315.286 722.687C315.049 722.681 315.283 719.995 313.961 717.085C312.694 714.153 310.546 712.523 310.702 712.342Z" fill="#EB996E"/>
<path d="M182.367 662.856C182.366 662.871 182.239 662.865 181.994 662.841C181.705 662.81 181.35 662.769 180.914 662.721C179.973 662.581 178.567 662.488 176.764 662.438C173.171 662.399 167.858 662.842 161.841 665.206C155.877 667.533 149.192 671.964 144.411 679.03C142.091 682.528 140.276 686.844 140.576 691.427C140.733 693.693 141.394 695.987 142.66 697.955C143.912 699.921 145.792 701.539 148.076 702.254C150.341 702.983 152.86 702.892 154.948 701.924C157.062 700.977 158.538 699.008 159.131 696.863C159.689 694.685 159.482 692.384 158.871 690.284C158.26 688.172 157.256 686.225 156.022 684.527C150.922 677.682 143.456 674.154 137.136 673.357C130.721 672.497 125.497 674.009 122.203 675.367C120.538 676.063 119.314 676.757 118.487 677.225C118.113 677.452 117.807 677.637 117.559 677.788C117.348 677.912 117.236 677.97 117.227 677.958C117.227 677.958 118.758 676.61 122.082 675.087C125.375 673.629 130.652 672.006 137.206 672.812C143.665 673.556 151.328 677.096 156.597 684.1C157.889 685.864 158.938 687.873 159.583 690.078C160.227 692.268 160.466 694.695 159.866 697.062C159.234 699.396 157.6 701.582 155.274 702.626C152.979 703.688 150.275 703.778 147.836 702.995C145.368 702.226 143.326 700.462 142.005 698.372C140.662 696.276 139.974 693.859 139.814 691.479C139.514 686.651 141.427 682.202 143.813 678.634C148.734 671.436 155.569 666.988 161.64 664.695C167.768 662.366 173.152 662.004 176.771 662.137C180.415 662.311 182.367 662.856 182.367 662.856Z" fill="#FAFAFA"/>
<path d="M179.924 624.173C179.945 624.222 179.303 624.515 178.118 625.006C177.528 625.263 176.798 625.55 175.921 625.799C175.048 626.061 174.067 626.415 172.938 626.633C171.819 626.896 170.589 627.168 169.245 627.326C167.911 627.562 166.466 627.628 164.949 627.735C161.909 627.832 158.554 627.667 155.089 627.068C151.633 626.424 148.428 625.411 145.612 624.261C144.226 623.632 142.895 623.067 141.727 622.381C140.522 621.764 139.464 621.082 138.506 620.445C137.523 619.849 136.727 619.173 136 618.626C135.265 618.087 134.679 617.562 134.216 617.117C133.276 616.245 132.776 615.746 132.812 615.707C132.922 615.58 134.963 617.562 138.804 619.982C139.769 620.58 140.826 621.228 142.027 621.811C143.191 622.462 144.515 622.997 145.884 623.597C148.67 624.691 151.827 625.668 155.225 626.301C158.631 626.891 161.928 627.075 164.92 627.018C166.414 626.93 167.839 626.891 169.158 626.685C170.486 626.557 171.705 626.319 172.817 626.094C177.262 625.163 179.866 624.014 179.924 624.173Z" fill="#FAFAFA"/>
<path d="M185.815 669.865C185.837 669.862 185.892 670.106 185.977 670.578C186.069 671.119 186.184 671.806 186.327 672.659C186.618 674.562 187.02 677.197 187.521 680.47C188.496 687.236 189.851 696.632 191.424 707.537L191.481 707.933L191.082 707.961C185.903 708.322 180.271 708.715 174.426 709.123C159.363 710.114 145.732 711.01 135.765 711.664C130.879 711.948 126.896 712.181 124.043 712.345C122.718 712.407 121.658 712.454 120.854 712.492C120.123 712.517 119.74 712.517 119.738 712.49C119.737 712.463 120.116 712.411 120.843 712.335C121.646 712.262 122.703 712.165 124.022 712.044C126.871 711.818 130.849 711.503 135.727 711.116C145.69 710.402 159.316 709.425 174.372 708.346C180.22 707.95 185.852 707.57 191.031 707.22L190.69 707.643C189.228 696.721 187.97 687.313 187.063 680.536C186.653 677.248 186.321 674.604 186.082 672.693C185.988 671.833 185.912 671.14 185.852 670.596C185.807 670.118 185.794 669.868 185.815 669.865Z" fill="#263238"/>
<g opacity="0.2">
<g opacity="0.2">
<path opacity="0.2" d="M151.236 602.567C150.526 605.082 152.513 607.449 153.815 609.715C156.325 614.081 156.462 619.359 156.688 624.39C157.1 633.6 158.043 642.875 160.916 651.636C163.787 660.396 168.719 668.676 176 674.332C183.281 679.988 193.078 682.742 201.999 680.416C210.92 678.089 218.462 670.196 219.184 661.004C219.901 651.892 214.405 643.629 211.238 635.058C208.794 628.444 207.707 621.426 206.298 614.519C204.889 607.613 203.1 600.653 199.435 594.632C195.771 588.61 189.963 583.57 183.029 582.303C176.094 581.038 168.173 584.318 165.366 590.784" fill="black"/>
</g>
</g>
<path d="M185.664 481.947L185.68 489.891L185.162 608.812C185.1 622.618 196.924 633.666 211.707 633.616C226.638 633.568 238.965 622.23 239.255 608.285C239.559 593.648 240.149 578.245 240.149 578.245C240.149 578.245 259.063 575.449 263.405 550.914C265.565 538.714 265.307 518.641 264.566 502.224C263.898 487.447 251.075 476.2 236.34 477.494L185.664 481.947Z" fill="#FFBE9D"/>
<path d="M258.792 517.193C258.822 518.86 257.432 520.26 255.692 520.323C253.953 520.386 252.519 519.089 252.489 517.42C252.459 515.755 253.847 514.352 255.584 514.289C257.326 514.227 258.762 515.526 258.792 517.193Z" fill="#263238"/>
<path d="M260.03 512.584C259.631 512.989 257.273 511.177 253.877 511.126C250.486 511.026 247.965 512.728 247.603 512.306C247.425 512.12 247.838 511.383 248.936 510.614C250.019 509.846 251.853 509.114 253.968 509.16C256.084 509.21 257.848 510.019 258.856 510.835C259.885 511.653 260.226 512.403 260.03 512.584Z" fill="#263238"/>
<path d="M226.625 516.623C226.655 518.29 225.265 519.69 223.525 519.753C221.788 519.815 220.352 518.519 220.322 516.852C220.292 515.185 221.682 513.782 223.417 513.719C225.159 513.655 226.595 514.954 226.625 516.623Z" fill="#263238"/>
<path d="M226.666 512.626C226.267 513.031 223.905 511.219 220.513 511.167C217.122 511.068 214.599 512.77 214.237 512.347C214.061 512.16 214.469 511.424 215.571 510.653C216.653 509.885 218.489 509.153 220.602 509.199C222.718 509.249 224.483 510.06 225.492 510.874C226.52 511.694 226.862 512.445 226.666 512.626Z" fill="#263238"/>
<path d="M238.526 538.024C238.512 537.831 240.63 537.504 244.059 537.128C244.927 537.053 245.75 536.896 245.907 536.306C246.122 535.683 245.777 534.742 245.373 533.725C244.595 531.612 243.782 529.398 242.926 527.079C239.533 517.615 237.093 509.84 237.476 509.707C237.858 509.574 240.919 517.136 244.313 526.599C245.128 528.932 245.908 531.157 246.651 533.285C246.961 534.276 247.507 535.404 247.04 536.696C246.796 537.34 246.15 537.797 245.591 537.937C245.033 538.096 244.544 538.097 244.116 538.115C240.671 538.239 238.535 538.218 238.526 538.024Z" fill="#263238"/>
<path d="M240.159 578.246C240.159 578.246 223.588 579.019 207.365 568.871C207.365 568.871 215.058 585.914 239.725 584.048L240.159 578.246Z" fill="#EB996E"/>
<path d="M236.948 546.181C235.755 544.545 233.631 543.621 231.503 543.812C230.027 543.945 228.524 544.629 227.608 545.812C226.692 546.997 226.474 548.697 227.268 549.855C228.161 551.16 230.07 551.492 231.698 551.06C233.327 550.628 234.741 549.587 236.084 548.546C236.456 548.259 236.836 547.957 237.072 547.56C237.308 547.161 237.364 546.635 237.088 546.296" fill="#EB996E"/>
<path d="M228.483 540.196C229.036 540.173 228.978 543.859 232.086 546.531C235.189 549.211 239.124 548.866 239.145 549.383C239.192 549.614 238.257 550.084 236.598 550.098C234.971 550.127 232.605 549.562 230.703 547.928C228.806 546.288 228.017 544.134 227.918 542.619C227.803 541.076 228.231 540.169 228.483 540.196Z" fill="#263238"/>
<path d="M227.763 499.336C227.412 500.253 224.028 499.754 220.037 500.163C216.036 500.493 212.804 501.602 212.29 500.764C212.061 500.363 212.636 499.506 213.951 498.635C215.253 497.766 217.322 496.954 219.718 496.73C222.115 496.512 224.297 496.931 225.737 497.546C227.191 498.161 227.914 498.899 227.763 499.336Z" fill="#263238"/>
<path d="M258.97 502.737C258.359 503.497 256.035 502.655 253.222 502.568C250.414 502.381 248.019 502.994 247.484 502.177C247.251 501.781 247.64 501.014 248.694 500.303C249.732 499.594 251.459 499.031 253.391 499.123C255.322 499.219 256.985 499.948 257.948 500.755C258.928 501.564 259.241 502.365 258.97 502.737Z" fill="#263238"/>
<path d="M216.53 473.856C223.187 482.531 216.467 494.971 208.973 502.933C201.478 510.895 192.34 520.145 194.511 530.862C197.03 543.286 214.134 551.094 211.726 563.541C210.847 568.085 207.309 571.984 207.337 576.614C207.389 584.967 218.236 588.918 221.422 596.638C225.79 607.219 214.171 617.928 214.107 629.374C214.07 635.875 217.81 641.9 218.07 648.394C218.603 661.699 202.959 671.596 190.019 668.45C177.079 665.304 168.115 652.793 165.175 639.804C162.235 626.815 164.179 613.28 166.134 600.108C164.902 605.73 156.387 606.859 152.182 602.929C147.977 599 147.412 592.502 148.295 586.815C150.509 572.558 159.745 560.414 164.064 546.647C167.839 534.616 167.739 521.768 169.318 509.257C170.897 496.746 174.642 483.685 184.103 475.348C193.564 467.011 210.072 465.836 217.889 475.731" fill="#263238"/>
<path d="M182.805 663.703C182.794 663.694 182.899 663.529 183.109 663.212C183.343 662.864 183.655 662.399 184.052 661.811C184.823 660.545 185.934 658.648 186.916 656.009C187.882 653.376 188.749 650.002 188.897 646.012C189.016 642.047 188.493 637.418 186.474 632.821C184.512 628.187 181.066 623.818 177.422 619.136C175.613 616.778 173.746 614.314 172.142 611.548C170.548 608.778 169.308 605.681 168.652 602.355C168.055 599.04 168.067 595.396 169.483 592.062C170.198 590.416 171.241 588.885 172.526 587.593C173.813 586.304 175.271 585.2 176.744 584.131C179.663 582.018 182.8 579.876 184.418 576.559C186.054 573.268 186.015 569.32 185.099 565.665C183.313 558.164 178.107 552.376 174.777 545.87C173.089 542.63 171.837 539.125 171.677 535.549C171.462 531.977 172.3 528.503 173.615 525.399C176.322 519.157 180.788 514.34 185.195 510.377C189.627 506.393 194.002 503 197.6 499.473C201.225 495.984 204.042 492.354 205.79 488.762C207.586 485.2 208.407 481.795 208.59 479.002C208.794 476.198 208.372 474.017 207.949 472.605C207.537 471.185 207.184 470.478 207.235 470.457C207.235 470.457 207.634 471.14 208.098 472.559C208.573 473.968 209.053 476.171 208.891 479.02C208.754 481.856 207.962 485.324 206.18 488.954C204.447 492.612 201.611 496.327 197.984 499.866C194.383 503.445 190.012 506.874 185.628 510.853C181.268 514.809 176.897 519.58 174.273 525.678C173.002 528.71 172.203 532.073 172.418 535.507C172.578 538.946 173.788 542.334 175.452 545.519C177.115 548.722 179.202 551.775 181.172 554.984C183.168 558.178 184.91 561.675 185.852 565.478C186.796 569.239 186.856 573.389 185.111 576.9C183.368 580.448 180.087 582.648 177.191 584.747C175.724 585.809 174.297 586.888 173.06 588.123C171.828 589.36 170.85 590.795 170.165 592.354C168.818 595.504 168.787 599.003 169.356 602.222C169.983 605.454 171.184 608.49 172.736 611.207C174.297 613.926 176.141 616.385 177.935 618.744C181.547 623.431 185.013 627.869 186.98 632.603C189.006 637.304 189.494 642.011 189.331 646.03C189.14 650.071 188.218 653.475 187.198 656.116C186.161 658.763 184.999 660.651 184.182 661.896C183.759 662.51 183.401 662.953 183.172 663.258C182.941 663.56 182.817 663.711 182.805 663.703Z" fill="#455A64"/>
<path d="M365.989 691.884L309.376 790.741L229.208 793.516V802.342H463.419L527.158 697.92C529.571 693.967 526.726 688.9 522.095 688.9H371.136C369.009 688.9 367.046 690.039 365.989 691.884Z" fill="#263238"/>
<path d="M424.711 750.965C427.91 753.02 433.384 750.203 436.938 744.673C440.492 739.142 440.78 732.993 437.58 730.937C434.381 728.881 428.907 731.698 425.353 737.229C421.8 742.759 421.512 748.909 424.711 750.965Z" fill="#E0E0E0"/>
</g>
<defs>
<clipPath id="clip0">
<rect width="793.919" height="1028.37" fill="white" transform="translate(-39)"/>
</clipPath>
</defs>
</svg>
