<svg width="609" height="365" viewBox="0 0 609 365" fill="none" xmlns="http://www.w3.org/2000/svg">
<path d="M63.4914 276.999C4.50392 232.86 14.5028 184.426 63.4925 155C138.476 128.249 221.768 90.2368 265.49 80.9996C407.49 50.9998 382.491 6.05586e-05 428.491 0C522.174 -0.000123333 530.134 42.2103 576.124 80.9996C622.115 119.789 534.447 138.885 562.491 178C585.986 210.77 632.113 225.252 576.124 266.716C520.136 308.181 359.482 347.725 316.491 329C273.5 310.274 122.479 321.139 63.4914 276.999Z" fill="#AED1EF" fill-opacity="0.21"/>
<path d="M608.509 18.1797H518.078V141.765H608.509V18.1797Z" fill="#E0E0E0"/>
<path d="M605.317 21.5586H521.225V138.523H605.317V21.5586Z" fill="#FAFAFA"/>
<path d="M576.985 48.9395H549.553V115.94H576.985V48.9395Z" fill="#E0E0E0"/>
<path d="M65.5501 363.791C86.7809 353.483 95.0598 329.396 97.8474 307.002C98.3133 303.265 99.3453 299.41 98.0961 295.867C96.8461 292.323 93.0744 289.438 89.4964 290.475C86.5286 291.335 84.8144 294.356 82.8469 296.765C80.2297 299.972 76.7031 302.409 72.8016 303.705C70.2384 304.556 67.1904 304.842 65.058 303.181C62.1325 300.902 62.4597 296.411 63.0716 292.716C64.2117 285.831 65.3509 278.947 66.491 272.062C67.103 268.369 67.714 264.596 67.1228 260.903C66.5316 257.211 64.5091 253.546 61.1484 252.001C57.7867 250.456 53.1146 251.791 51.7961 255.292C51.2472 256.749 51.3058 258.362 50.9588 259.88C50.6118 261.399 49.6258 262.983 48.1009 263.179C46.5562 263.378 45.2431 262.094 44.3103 260.835C41.0874 256.494 39.2632 251.272 37.604 246.104C35.9448 240.936 34.3748 235.665 31.5602 231.042C28.7456 226.418 24.4683 222.429 19.2212 221.287C13.9723 220.144 7.81041 222.514 5.6456 227.501C3.47358 232.5 5.67354 238.274 8.3115 243.02C12.2247 250.062 17.1528 256.523 22.8893 262.136C23.923 263.149 25.0442 264.244 25.2722 265.685C25.6832 268.278 22.9578 270.355 20.3946 270.777C17.4926 271.256 14.5473 270.494 11.6101 270.375C8.67291 270.255 5.34728 271.03 3.82236 273.582C1.70622 277.12 4.23604 281.585 6.93439 284.675C12.3347 290.862 18.7931 296.098 25.9373 300.085C28.4987 301.513 31.2223 302.842 33.1113 305.101C35.0003 307.363 35.7952 310.896 34.0558 313.289C32.3146 315.686 28.7799 315.978 26.0157 314.995C23.2516 314.015 20.9471 312.061 18.3947 310.605C13.6181 307.878 7.00018 307.184 3.04638 311.058C0.448069 313.604 -0.380183 317.594 0.154261 321.208C0.687802 324.821 2.4101 328.134 4.30543 331.238C10.9296 342.09 20.1305 351.441 31.2682 357.405C42.4068 363.367 53.1534 366.211 65.5501 363.791Z" fill="#EBEBEB"/>
<path d="M62.5387 364.978C63.1362 356.026 63.5337 360.67 62.0214 348.914C60.5325 337.152 57.8305 324.395 54.5464 311.149C53.7127 307.841 52.8899 304.572 52.0787 301.35C51.2613 298.137 50.4511 294.948 49.466 291.88C47.522 285.733 45.1842 279.971 42.794 274.572C40.4057 269.169 37.9417 264.128 35.6038 259.433C33.2552 254.74 30.9831 250.408 28.7444 246.547C24.2895 238.806 19.9653 232.999 16.8343 229.134C15.2725 227.196 14.0125 225.732 13.1437 224.751C12.7255 224.284 12.3975 223.918 12.1496 223.642C11.9225 223.396 11.8026 223.274 11.7936 223.282C11.7837 223.289 11.8865 223.428 12.0964 223.69C12.3308 223.976 12.6426 224.358 13.0383 224.844C13.8701 225.853 15.0976 227.344 16.6252 229.305C19.6868 233.217 23.9344 239.048 28.3226 246.796C30.528 250.662 32.7703 254.997 35.0919 259.695C37.4054 264.399 39.8469 269.44 42.2145 274.836C44.5821 280.229 46.8974 285.975 48.8225 292.091C49.7977 295.145 50.598 298.306 51.4145 301.528C52.2247 304.748 53.0458 308.015 53.8776 311.321C57.1582 324.557 59.8719 337.279 61.3923 349.002C62.9334 360.717 62.5846 356.028 62.0511 364.951" fill="#E0E0E0"/>
<path d="M49.2786 291.822C49.3227 291.838 49.5381 291.295 49.8905 290.302C50.2474 289.311 50.7161 287.861 51.2686 286.061C52.3771 282.463 53.7389 277.441 55.2187 271.899C56.6995 266.354 58.1289 261.365 59.2888 257.795C59.8638 256.008 60.3442 254.565 60.6885 253.573C61.0273 252.578 61.195 252.018 61.1508 252C61.1066 251.982 60.8561 252.508 60.4388 253.477C60.0161 254.441 59.4645 255.863 58.8292 257.636C57.5458 261.181 56.0362 266.168 54.5545 271.718C53.108 277.19 51.7994 282.141 50.7999 285.925C50.3376 287.631 49.9464 289.068 49.6328 290.223C49.3633 291.237 49.2326 291.808 49.2786 291.822Z" fill="#E0E0E0"/>
<path d="M3.14853 275.371C3.13952 275.418 3.80374 275.605 5.00871 275.9C6.21099 276.203 7.95401 276.632 10.0891 277.231C14.3691 278.393 20.2237 280.207 26.5955 282.49C32.9656 284.787 38.6426 287.109 42.6991 288.907C44.735 289.792 46.3627 290.553 47.4911 291.072C48.6176 291.595 49.2512 291.864 49.2747 291.822C49.2963 291.779 48.7033 291.427 47.611 290.828C46.5168 290.234 44.9162 289.403 42.901 288.457C38.8841 286.538 33.217 284.135 26.8281 281.831C20.4373 279.542 14.5359 277.796 10.2116 276.752C8.05315 276.212 6.28849 275.855 5.06459 275.634C3.83889 275.421 3.15844 275.324 3.14853 275.371Z" fill="#E0E0E0"/>
<path d="M61.5768 347.946C61.5966 347.96 61.7399 347.777 61.995 347.418C62.2888 346.988 62.6475 346.463 63.0819 345.828C64.0192 344.442 65.3233 342.402 66.9014 339.86C70.0621 334.779 74.206 327.624 78.6736 319.666C83.1429 311.704 87.2156 304.52 90.2646 299.38C91.7552 296.882 92.9828 294.828 93.8948 293.303C94.2869 292.639 94.6086 292.092 94.8736 291.642C95.0908 291.259 95.1953 291.052 95.1755 291.038C95.1548 291.025 95.0124 291.207 94.7573 291.567C94.4635 291.998 94.1048 292.521 93.6704 293.157C92.7331 294.542 91.429 296.582 89.85 299.123C86.6893 304.204 82.5453 311.36 78.0769 319.322C73.6085 327.281 69.5366 334.465 66.4868 339.605C64.9952 342.102 63.7686 344.157 62.8575 345.682C62.4654 346.345 62.1437 346.894 61.8787 347.342C61.6615 347.726 61.5561 347.934 61.5768 347.946Z" fill="#E0E0E0"/>
<path d="M1.64683 317.533C1.63692 317.554 1.8388 317.678 2.23265 317.89C2.7004 318.135 3.2745 318.435 3.96936 318.798C5.5763 319.616 7.74561 320.723 10.3854 322.067C15.8019 324.828 23.24 328.728 31.4531 333.049C39.668 337.372 47.1502 341.207 52.6253 343.855C55.3624 345.182 57.5885 346.232 59.1405 346.926C59.8588 347.242 60.4518 347.503 60.9331 347.716C61.3458 347.889 61.5693 347.969 61.5784 347.947C61.5874 347.925 61.3855 347.802 60.9925 347.588C60.5257 347.345 59.9516 347.045 59.2558 346.683C57.6489 345.863 55.4805 344.758 52.8407 343.414C47.4233 340.653 39.9852 336.752 31.7694 332.429C23.5572 328.109 16.0759 324.274 10.6008 321.624C7.86278 320.298 5.63758 319.248 4.08382 318.554C3.36462 318.237 2.7734 317.976 2.29123 317.764C1.87936 317.591 1.65765 317.512 1.64683 317.533Z" fill="#E0E0E0"/>
<path d="M85.8735 94.502H14.4609V164.668H85.8735V94.502Z" fill="#E0E0E0"/>
<path d="M83.3532 96.4219H16.9453V162.83H83.3532V96.4219Z" fill="#FAFAFA"/>
<path d="M60.9779 118.795H39.3145V140.459H60.9779V118.795Z" fill="#E0E0E0"/>
<path d="M587.238 364.766C587.238 364.896 461.471 365.001 306.366 365.001C151.206 365.001 25.4668 364.896 25.4668 364.766C25.4668 364.636 151.207 364.531 306.366 364.531C461.471 364.532 587.238 364.637 587.238 364.766Z" fill="#263238"/>
<path d="M488.68 42.873H124.021C117.734 42.873 112.639 47.9687 112.639 54.255V311.821C112.639 318.109 117.734 323.205 124.021 323.205H263.977C263.977 323.205 272.88 350.735 245.281 364.979H376.147C376.147 364.979 344.988 354.297 352.999 323.205H488.681C494.967 323.205 500.063 318.109 500.063 311.823V54.2559C500.063 47.9696 494.967 42.873 488.68 42.873Z" fill="#455A64"/>
<path d="M311.209 296.118C316.17 303.206 308.406 310.97 301.315 306.012C301.082 305.847 300.869 305.635 300.706 305.401C295.759 298.312 303.512 290.559 310.6 295.508C310.833 295.67 311.046 295.883 311.209 296.118Z" fill="#263238"/>
<path d="M488.122 277.907H123.815C122.186 277.907 120.865 276.586 120.865 274.958V61.2643C120.865 59.6348 122.186 58.3145 123.815 58.3145H488.122C489.752 58.3145 491.071 59.6348 491.071 61.2634V274.958C491.071 276.587 489.752 277.907 488.122 277.907Z" fill="#FAFAFA"/>
<path d="M488.122 278.357H123.814C121.939 278.357 120.414 276.832 120.414 274.957V61.2637C120.414 59.3882 121.939 57.8633 123.814 57.8633H488.122C489.996 57.8633 491.521 59.3882 491.521 61.2628V274.957C491.521 276.832 489.996 278.357 488.122 278.357ZM123.814 58.7645C122.436 58.7645 121.315 59.8857 121.315 61.2637V274.957C121.315 276.334 122.436 277.455 123.814 277.455H488.122C489.499 277.455 490.62 276.334 490.62 274.957V61.2628C490.62 59.8848 489.499 58.7645 488.122 58.7645H123.814Z" fill="white"/>
<path d="M148.273 69.75C149.907 69.75 151.23 68.4261 151.23 66.793C151.23 65.1598 149.907 63.8359 148.273 63.8359C146.64 63.8359 145.316 65.1598 145.316 66.793C145.316 68.4261 146.64 69.75 148.273 69.75Z" fill="#455A64"/>
<path d="M130.355 69.75C131.989 69.75 133.312 68.4261 133.312 66.793C133.312 65.1598 131.989 63.8359 130.355 63.8359C128.722 63.8359 127.398 65.1598 127.398 66.793C127.398 68.4261 128.722 69.75 130.355 69.75Z" fill="#455A64"/>
<path d="M138.951 69.7519C140.584 69.7519 141.908 68.428 141.908 66.7949C141.908 65.1618 140.584 63.8379 138.951 63.8379C137.318 63.8379 135.994 65.1618 135.994 66.7949C135.994 68.428 137.318 69.7519 138.951 69.7519Z" fill="#455A64"/>
<path d="M491.339 75.6699C491.339 75.7997 408.34 75.9051 305.979 75.9051C203.583 75.9051 120.602 75.7997 120.602 75.6699C120.602 75.5401 203.584 75.4355 305.979 75.4355C408.341 75.4355 491.339 75.541 491.339 75.6699Z" fill="#263238"/>
<path d="M404.183 95.5258L404.279 148.998L471.164 148.878L471.068 95.4054L404.183 95.5258Z" fill="#F5F5F5"/>
<path d="M406.559 145.604L468.744 145.492L468.66 98.7523L406.474 98.8642L406.559 145.604Z" fill="#EBEBEB"/>
<path d="M406.549 145.625L428.215 116.531L441.703 134.683L450.811 124.95L468.734 145.51L406.549 145.625Z" fill="#E0E0E0"/>
<path d="M442.473 117.842C445.177 117.842 447.369 115.65 447.369 112.945C447.369 110.241 445.177 108.049 442.473 108.049C439.768 108.049 437.576 110.241 437.576 112.945C437.576 115.65 439.768 117.842 442.473 117.842Z" fill="#E0E0E0"/>
<path d="M404.156 210.014L404.252 263.486L471.137 263.366L471.04 209.894L404.156 210.014Z" fill="#F5F5F5"/>
<path d="M406.553 260.085L468.738 259.973L468.654 213.234L406.469 213.346L406.553 260.085Z" fill="#EBEBEB"/>
<path d="M406.543 260.106L428.209 231.014L441.697 249.166L450.805 239.432L468.729 259.993L406.543 260.106Z" fill="#E0E0E0"/>
<path d="M442.477 232.324C445.181 232.324 447.373 230.132 447.373 227.428C447.373 224.724 445.181 222.531 442.477 222.531C439.772 222.531 437.58 224.724 437.58 227.428C437.58 230.132 439.772 232.324 442.477 232.324Z" fill="#E0E0E0"/>
<path d="M136.007 148.12L136.104 201.592L202.988 201.471L202.892 147.999L136.007 148.12Z" fill="#F5F5F5"/>
<path d="M138.408 198.206L200.594 198.094L200.51 151.355L138.324 151.467L138.408 198.206Z" fill="#EBEBEB"/>
<path d="M138.4 198.216L160.067 169.123L173.554 187.275L182.662 177.542L200.586 198.102L138.4 198.216Z" fill="#E0E0E0"/>
<path d="M174.32 170.434C177.025 170.434 179.217 168.241 179.217 165.537C179.217 162.833 177.025 160.641 174.32 160.641C171.616 160.641 169.424 162.833 169.424 165.537C169.424 168.241 171.616 170.434 174.32 170.434Z" fill="#E0E0E0"/>
<path d="M135.999 87.1195L136.096 140.592L202.98 140.471L202.884 86.9992L135.999 87.1195Z" fill="#F5F5F5"/>
<path d="M138.4 137.206L200.586 137.094L200.502 90.3548L138.316 90.4667L138.4 137.206Z" fill="#EBEBEB"/>
<path d="M138.393 137.216L160.059 108.123L173.546 126.275L182.654 116.542L200.578 137.102L138.393 137.216Z" fill="#E0E0E0"/>
<path d="M174.313 109.434C177.017 109.434 179.209 107.241 179.209 104.537C179.209 101.833 177.017 99.6406 174.313 99.6406C171.608 99.6406 169.416 101.833 169.416 104.537C169.416 107.241 171.608 109.434 174.313 109.434Z" fill="#E0E0E0"/>
<path d="M136.007 211.301L136.104 264.773L202.988 264.653L202.892 211.181L136.007 211.301Z" fill="#F5F5F5"/>
<path d="M138.408 261.385L200.594 261.273L200.51 214.534L138.324 214.646L138.408 261.385Z" fill="#EBEBEB"/>
<path d="M138.4 261.395L160.067 232.303L173.554 250.455L182.662 240.721L200.586 261.281L138.4 261.395Z" fill="#E0E0E0"/>
<path d="M174.338 233.613C177.042 233.613 179.234 231.421 179.234 228.717C179.234 226.013 177.042 223.82 174.338 223.82C171.634 223.82 169.441 226.013 169.441 228.717C169.441 231.421 171.634 233.613 174.338 233.613Z" fill="#E0E0E0"/>
<path d="M425.047 353.844L429.004 346.193L443.382 353.511L437.714 364.766L436.794 364.37C432.714 362.571 416.175 354.935 413.932 352.782C411.429 350.379 425.047 353.844 425.047 353.844Z" fill="#AA9678"/>
<g opacity="0.5">
<g opacity="0.5">
<path opacity="0.5" d="M432.553 362C433.369 360.903 434.605 360.127 435.949 359.868C437.291 359.61 438.676 359.818 439.841 360.533L437.799 364.553L432.553 362Z" fill="white"/>
</g>
</g>
<g opacity="0.4">
<g opacity="0.4">
<path opacity="0.4" d="M418.277 352.363C418.277 352.363 413.367 351.419 413.542 352.396C413.717 353.373 430.139 361.718 437.706 364.766L437.846 364.433L418.607 354.863C418.607 354.862 419.096 352.823 418.277 352.363Z" fill="white"/>
</g>
</g>
<path d="M438.073 364.539C438.07 364.545 437.98 364.511 437.812 364.441C437.593 364.346 437.351 364.241 437.08 364.123C436.353 363.792 435.461 363.386 434.408 362.906C432.16 361.864 429.072 360.382 425.7 358.672C422.326 356.96 419.306 355.344 417.137 354.147C416.128 353.58 415.273 353.1 414.578 352.709C414.322 352.56 414.096 352.427 413.889 352.307C413.732 352.214 413.651 352.161 413.654 352.155C413.658 352.149 413.745 352.189 413.907 352.272C414.119 352.384 414.351 352.506 414.613 352.642C415.316 353.018 416.182 353.481 417.202 354.025C419.387 355.191 422.415 356.786 425.786 358.498C429.158 360.207 432.233 361.708 434.466 362.782C435.508 363.284 436.392 363.707 437.11 364.053C437.376 364.184 437.612 364.298 437.827 364.405C437.991 364.488 438.076 364.534 438.073 364.539Z" fill="#263238"/>
<path d="M418.494 355.088C418.437 355.068 418.713 354.423 418.639 353.592C418.58 352.759 418.205 352.167 418.257 352.138C418.288 352.101 418.767 352.685 418.835 353.577C418.911 354.467 418.532 355.12 418.494 355.088Z" fill="#263238"/>
<path d="M423.661 354.337C423.703 354.774 423.781 355.125 423.835 355.119C423.889 355.114 423.899 354.756 423.857 354.319C423.815 353.882 423.737 353.532 423.683 353.537C423.629 353.542 423.62 353.9 423.661 354.337Z" fill="#263238"/>
<path d="M424.983 354.478C425.117 354.826 425.268 355.093 425.318 355.074C425.369 355.054 425.301 354.755 425.166 354.407C425.031 354.058 424.881 353.791 424.83 353.811C424.78 353.83 424.848 354.129 424.983 354.478Z" fill="#263238"/>
<path d="M425.971 353.778C426.388 353.984 426.746 354.112 426.77 354.063C426.794 354.015 426.475 353.808 426.058 353.602C425.641 353.396 425.283 353.268 425.259 353.317C425.235 353.365 425.554 353.572 425.971 353.778Z" fill="#263238"/>
<path d="M427.471 353.254C427.465 353.306 427.015 353.285 426.51 353.072C426.003 352.863 425.671 352.558 425.703 352.518C425.737 352.472 426.103 352.694 426.585 352.892C427.065 353.094 427.48 353.198 427.471 353.254Z" fill="#263238"/>
<path d="M423.986 353.588C423.977 353.607 423.601 353.47 423.065 353.113C422.798 352.934 422.496 352.695 422.191 352.395C422.044 352.239 421.879 352.096 421.746 351.877C421.686 351.77 421.628 351.633 421.663 351.474C421.695 351.316 421.849 351.198 421.991 351.176C423.107 351.167 423.739 352.114 423.835 352.737C423.897 353.061 423.864 353.331 423.823 353.506C423.779 353.683 423.73 353.772 423.72 353.768C423.682 353.763 423.843 353.373 423.701 352.766C423.629 352.468 423.464 352.129 423.172 351.851C422.894 351.589 422.443 351.326 422.032 351.367C421.829 351.4 421.799 351.603 421.913 351.782C422.014 351.958 422.181 352.118 422.319 352.268C422.607 352.566 422.894 352.811 423.145 353C423.649 353.38 424.002 353.56 423.986 353.588Z" fill="#263238"/>
<path d="M423.724 353.513C423.706 353.517 423.69 353.212 423.944 352.818C424.07 352.626 424.267 352.422 424.539 352.272C424.806 352.149 425.16 351.973 425.548 352.191C425.748 352.327 425.728 352.624 425.616 352.763C425.517 352.916 425.373 353.018 425.249 353.096C424.995 353.258 424.743 353.365 424.528 353.433C424.095 353.568 423.81 353.561 423.809 353.539C423.804 353.508 424.077 353.467 424.481 353.303C424.682 353.221 424.913 353.105 425.15 352.946C425.376 352.814 425.641 352.509 425.431 352.348C425.211 352.208 424.858 352.318 424.622 352.431C424.376 352.558 424.186 352.732 424.056 352.9C423.794 353.239 423.758 353.522 423.724 353.513Z" fill="#263238"/>
<path d="M439.78 360.453C439.76 360.484 439.387 360.206 438.699 359.951C438.018 359.695 436.989 359.504 435.895 359.729C434.801 359.954 433.93 360.536 433.406 361.039C432.872 361.545 432.641 361.949 432.611 361.927C432.6 361.921 432.648 361.815 432.758 361.637C432.867 361.459 433.048 361.212 433.308 360.942C433.82 360.398 434.714 359.773 435.855 359.537C436.996 359.303 438.063 359.526 438.749 359.822C439.095 359.969 439.359 360.123 439.53 360.244C439.702 360.366 439.788 360.444 439.78 360.453Z" fill="#263238"/>
<path d="M439.924 356.737C440.733 355.094 441.349 353.743 441.3 353.719C441.252 353.695 440.557 355.008 439.748 356.65C438.939 358.293 438.323 359.644 438.371 359.668C438.42 359.692 439.115 358.38 439.924 356.737Z" fill="#263238"/>
<path d="M431.448 359.677C431.431 359.726 430.416 359.403 429.242 358.819C428.067 358.237 427.196 357.624 427.225 357.581C427.255 357.533 428.165 358.068 429.33 358.644C430.492 359.222 431.468 359.623 431.448 359.677Z" fill="#263238"/>
<path d="M434.269 361.106C434.286 361.159 434.091 361.266 433.885 361.432C433.678 361.597 433.53 361.763 433.482 361.735C433.437 361.711 433.524 361.47 433.764 361.28C434.002 361.088 434.256 361.054 434.269 361.106Z" fill="#263238"/>
<path d="M435.62 360.585C435.845 360.51 436.014 360.408 435.997 360.357C435.98 360.306 435.783 360.326 435.558 360.401C435.333 360.476 435.164 360.578 435.181 360.629C435.198 360.68 435.395 360.661 435.62 360.585Z" fill="#263238"/>
<path d="M437.837 360.492C437.803 360.536 437.612 360.437 437.364 360.404C437.116 360.365 436.905 360.406 436.885 360.354C436.86 360.308 437.085 360.165 437.392 360.21C437.699 360.255 437.875 360.455 437.837 360.492Z" fill="#263238"/>
<path d="M438.814 360.808C438.957 360.822 439.077 360.79 439.083 360.737C439.088 360.683 438.977 360.628 438.833 360.614C438.69 360.6 438.57 360.631 438.565 360.685C438.559 360.738 438.671 360.793 438.814 360.808Z" fill="#263238"/>
<path d="M519.432 356.91L516.005 349.007L530.765 342.492L535.902 354L535.012 354.464C531.04 356.487 514.667 364.473 511.581 364.85C508.138 365.269 519.432 356.91 519.432 356.91Z" fill="#AA9678"/>
<g opacity="0.5">
<g opacity="0.5">
<path opacity="0.5" d="M530.499 356.247C530.164 354.92 530.344 353.472 530.993 352.268C531.642 351.064 532.679 350.123 533.97 349.672L535.793 353.796L530.499 356.247Z" fill="white"/>
</g>
</g>
<g opacity="0.4">
<g opacity="0.4">
<path opacity="0.4" d="M514.004 361.213C514.004 361.213 510.168 364.421 511.036 364.903C511.903 365.384 528.751 357.937 535.896 354.001L535.727 353.682L516.149 362.537C516.148 362.537 514.878 360.869 514.004 361.213Z" fill="white"/>
</g>
</g>
<path d="M535.96 353.569C535.963 353.575 535.88 353.624 535.719 353.709C535.506 353.819 535.272 353.939 535.009 354.075C534.295 354.429 533.415 354.862 532.379 355.375C530.149 356.458 527.049 357.913 523.591 359.446C520.132 360.977 516.972 362.296 514.672 363.22C513.595 363.643 512.683 364.002 511.942 364.294C511.663 364.397 511.418 364.489 511.194 364.573C511.022 364.634 510.93 364.665 510.928 364.659C510.926 364.652 511.012 364.61 511.178 364.536C511.399 364.443 511.641 364.339 511.912 364.223C512.647 363.915 513.552 363.538 514.619 363.092C516.905 362.135 520.055 360.798 523.512 359.268C526.968 357.736 530.075 356.301 532.318 355.251C533.365 354.76 534.253 354.344 534.975 354.006C535.244 353.883 535.482 353.773 535.701 353.673C535.868 353.599 535.957 353.563 535.96 353.569Z" fill="#263238"/>
<path d="M516.255 362.764C516.203 362.795 515.878 362.174 515.188 361.705C514.505 361.226 513.809 361.142 513.818 361.083C513.809 361.034 514.565 361.032 515.298 361.545C516.036 362.049 516.303 362.755 516.255 362.764Z" fill="#263238"/>
<path d="M518.893 358.272C519.259 358.516 519.579 358.678 519.609 358.633C519.639 358.588 519.367 358.354 519.002 358.11C518.636 357.866 518.316 357.704 518.286 357.749C518.256 357.794 518.528 358.028 518.893 358.272Z" fill="#263238"/>
<path d="M519.876 357.375C520.231 357.491 520.533 357.544 520.55 357.493C520.566 357.442 520.292 357.306 519.936 357.19C519.581 357.074 519.279 357.022 519.263 357.073C519.246 357.124 519.521 357.26 519.876 357.375Z" fill="#263238"/>
<path d="M519.973 356.144C520.396 355.951 520.721 355.755 520.699 355.706C520.677 355.657 520.315 355.774 519.892 355.967C519.468 356.16 519.143 356.356 519.165 356.405C519.188 356.454 519.549 356.337 519.973 356.144Z" fill="#263238"/>
<path d="M520.522 354.647C520.558 354.684 520.257 355.019 519.773 355.276C519.291 355.537 518.845 355.601 518.834 355.551C518.82 355.496 519.224 355.352 519.681 355.105C520.141 354.86 520.485 354.605 520.522 354.647Z" fill="#263238"/>
<path d="M518.567 357.563C518.577 357.582 518.233 357.788 517.615 357.976C517.308 358.07 516.931 358.154 516.508 358.201C516.294 358.217 516.079 358.253 515.825 358.218C515.703 358.197 515.56 358.156 515.46 358.028C515.359 357.902 515.364 357.708 515.436 357.585C516.135 356.714 517.268 356.823 517.812 357.142C518.103 357.3 518.29 357.496 518.4 357.639C518.51 357.784 518.548 357.879 518.538 357.884C518.51 357.911 518.309 357.539 517.749 357.266C517.473 357.133 517.106 357.046 516.706 357.097C516.327 357.146 515.839 357.33 515.61 357.673C515.509 357.852 515.645 358.003 515.857 358.029C516.057 358.061 516.287 358.033 516.491 358.021C516.903 357.986 517.273 357.918 517.579 357.844C518.192 357.693 518.554 357.535 518.567 357.563Z" fill="#263238"/>
<path d="M518.342 357.721C518.333 357.737 518.086 357.556 517.942 357.11C517.873 356.89 517.84 356.607 517.894 356.303C517.969 356.019 518.057 355.634 518.47 355.471C518.703 355.402 518.921 355.604 518.956 355.779C519.013 355.953 519.001 356.129 518.982 356.275C518.946 356.574 518.871 356.835 518.787 357.046C518.618 357.468 518.433 357.683 518.415 357.669C518.388 357.653 518.529 357.416 518.658 357C518.722 356.793 518.778 356.539 518.803 356.256C518.845 355.998 518.775 355.599 518.518 355.66C518.271 355.743 518.132 356.087 518.072 356.339C518.013 356.61 518.028 356.868 518.076 357.074C518.174 357.493 518.37 357.7 518.342 357.721Z" fill="#263238"/>
<path d="M533.872 349.666C533.884 349.701 533.431 349.813 532.8 350.186C532.171 350.551 531.372 351.228 530.855 352.218C530.338 353.209 530.238 354.251 530.297 354.976C530.352 355.709 530.518 356.143 530.482 356.154C530.471 356.157 530.419 356.054 530.351 355.856C530.281 355.658 530.206 355.363 530.16 354.989C530.064 354.249 530.143 353.161 530.682 352.128C531.222 351.096 532.07 350.41 532.732 350.066C533.065 349.89 533.351 349.784 533.553 349.728C533.754 349.67 533.868 349.654 533.872 349.666Z" fill="#263238"/>
<path d="M531.097 347.21C530.336 345.545 529.679 344.213 529.63 344.236C529.581 344.258 530.159 345.626 530.92 347.291C531.682 348.957 532.338 350.289 532.387 350.266C532.436 350.244 531.859 348.876 531.097 347.21Z" fill="#263238"/>
<path d="M527.995 355.628C528.022 355.672 527.13 356.255 525.936 356.795C524.742 357.338 523.717 357.625 523.701 357.575C523.683 357.521 524.673 357.154 525.855 356.617C527.038 356.082 527.967 355.579 527.995 355.628Z" fill="#263238"/>
<path d="M530.891 354.345C530.943 354.365 530.903 354.585 530.902 354.85C530.898 355.115 530.934 355.334 530.883 355.354C530.834 355.374 530.703 355.154 530.707 354.848C530.709 354.542 530.843 354.324 530.891 354.345Z" fill="#263238"/>
<path d="M531.289 352.948C531.373 352.726 531.401 352.531 531.35 352.512C531.3 352.493 531.191 352.657 531.107 352.879C531.023 353.101 530.996 353.297 531.046 353.316C531.096 353.335 531.205 353.17 531.289 352.948Z" fill="#263238"/>
<path d="M532.67 351.199C532.682 351.254 532.486 351.338 532.303 351.51C532.116 351.679 532.014 351.867 531.961 351.851C531.909 351.841 531.941 351.576 532.17 351.367C532.398 351.155 532.665 351.146 532.67 351.199Z" fill="#263238"/>
<path d="M533.531 350.67C533.633 350.569 533.684 350.455 533.646 350.417C533.608 350.379 533.495 350.431 533.393 350.533C533.291 350.634 533.24 350.748 533.278 350.786C533.316 350.824 533.429 350.772 533.531 350.67Z" fill="#263238"/>
<path d="M534.505 347.413L513.732 359.223L484.616 300.87C480.29 285.27 476.123 230.354 476.123 230.354L500.119 232.186C500.119 232.186 503.816 271.611 509.622 291.927L534.505 347.413Z" fill="#263238"/>
<path d="M512.051 206.377C512.631 206.344 516.833 222.626 511.707 232.439C511.208 233.396 507.526 238.725 507.526 238.725C494.449 254.152 481.203 284.079 477.502 291.941C469.914 308.068 441.943 361.118 441.943 361.118L423.979 350.831L450.246 283.294L472.769 217.023L512.051 206.377Z" fill="#263238"/>
<path d="M500.255 248.061C500.228 248.046 499.959 248.521 499.496 249.39C499.003 250.325 498.347 251.568 497.552 253.074C495.914 256.185 493.607 260.46 491.052 265.181C488.496 269.903 486.232 274.207 484.663 277.359C483.879 278.934 483.257 280.216 482.845 281.109C482.431 282.002 482.215 282.502 482.243 282.517C482.271 282.53 482.539 282.056 483.001 281.187C483.495 280.253 484.151 279.01 484.946 277.504C486.584 274.393 488.891 270.117 491.447 265.395C494.002 260.675 496.267 256.37 497.835 253.219C498.619 251.643 499.241 250.362 499.653 249.468C500.068 248.575 500.283 248.074 500.255 248.061Z" fill="#455A64"/>
<path d="M491.032 104.994C489.883 103.146 487.484 102.477 485.307 102.507C479.256 102.592 473.607 107.393 472.546 113.351C472.112 115.795 472.368 118.362 471.597 120.721C471.041 122.427 469.982 123.914 469.001 125.418C468.02 126.92 467.082 128.517 466.822 130.292C466.56 132.068 467.12 134.072 468.612 135.069C466.855 136.86 466.418 139.811 467.582 142.033C468.747 144.256 471.421 145.577 473.893 145.151C475.207 144.925 476.616 144.276 477.793 144.9C478.381 145.212 478.774 145.787 479.238 146.264C481.045 148.114 484.05 148.417 486.462 147.482C488.874 146.547 490.754 144.579 492.174 142.418C492.549 141.848 493.045 141.184 493.723 141.252C494.119 141.291 494.437 141.58 494.751 141.825C497.107 143.669 500.856 143.387 502.912 141.211C504.966 139.036 505.034 135.277 503.058 133.029C505.217 132.428 506.909 130.584 507.618 128.46C508.325 126.336 508.125 123.977 507.366 121.87C506.238 118.746 503.98 116.182 501.773 113.701C499.754 111.43 499.157 107.921 497.136 105.649C496.266 104.671 495.22 103.469 493.37 103.139C492.08 102.909 490.179 103.45 489.046 104.107" fill="#263238"/>
<path d="M486.482 106.07C492.766 106.07 497.84 111.199 497.772 117.483L497.44 148.35C497.387 152.284 493.963 155.372 489.751 155.283C485.497 155.193 482.042 151.901 482.03 147.926C482.017 143.754 481.928 139.363 481.928 139.363C481.928 139.363 476.553 138.47 475.44 131.458C475.16 129.695 475.142 123.227 475.192 117.263C475.243 111.064 480.284 106.07 486.482 106.07Z" fill="#FFBE9D"/>
<path d="M476.803 121.559C476.786 122.034 477.175 122.439 477.67 122.465C478.165 122.492 478.581 122.129 478.597 121.655C478.613 121.181 478.226 120.774 477.731 120.748C477.236 120.72 476.82 121.084 476.803 121.559Z" fill="#263238"/>
<path d="M476.607 120.552C476.717 120.669 477.399 120.165 478.367 120.168C479.333 120.156 480.043 120.655 480.149 120.536C480.201 120.483 480.087 120.272 479.778 120.047C479.473 119.823 478.954 119.605 478.351 119.607C477.748 119.611 477.242 119.833 476.95 120.06C476.652 120.287 476.551 120.5 476.607 120.552Z" fill="#263238"/>
<path d="M486.483 121.559C486.466 122.034 486.854 122.439 487.35 122.465C487.845 122.492 488.26 122.129 488.276 121.655C488.294 121.18 487.905 120.774 487.41 120.748C486.915 120.72 486.499 121.084 486.483 121.559Z" fill="#263238"/>
<path d="M486.117 120.733C486.229 120.85 486.911 120.346 487.878 120.348C488.845 120.337 489.555 120.834 489.66 120.716C489.713 120.664 489.6 120.452 489.289 120.227C488.984 120.003 488.465 119.784 487.863 119.787C487.26 119.79 486.754 120.012 486.461 120.24C486.164 120.468 486.063 120.68 486.117 120.733Z" fill="#263238"/>
<path d="M482.595 127.91C482.6 127.854 481.999 127.75 481.024 127.626C480.778 127.601 480.543 127.551 480.502 127.383C480.443 127.204 480.547 126.937 480.667 126.65C480.899 126.051 481.142 125.425 481.398 124.768C482.412 122.089 483.147 119.886 483.039 119.846C482.931 119.807 482.02 121.946 481.006 124.625C480.761 125.285 480.528 125.915 480.305 126.517C480.212 126.799 480.051 127.117 480.177 127.487C480.243 127.672 480.424 127.806 480.583 127.848C480.742 127.897 480.88 127.9 481.003 127.907C481.983 127.96 482.592 127.964 482.595 127.91Z" fill="#263238"/>
<path d="M481.932 139.361C481.932 139.361 486.649 139.665 491.323 136.855C491.323 136.855 489.044 141.673 482.026 141.017L481.932 139.361Z" fill="#EB996E"/>
<path d="M483.003 130.242C483.352 129.782 483.961 129.529 484.566 129.594C484.987 129.639 485.411 129.842 485.666 130.183C485.921 130.525 485.974 131.011 485.743 131.337C485.481 131.705 484.935 131.789 484.474 131.658C484.012 131.527 483.615 131.223 483.237 130.92C483.133 130.836 483.026 130.749 482.961 130.634C482.895 130.52 482.881 130.369 482.962 130.275" fill="#EB996E"/>
<path d="M485.446 128.578C485.288 128.569 485.286 129.619 484.387 130.365C483.49 131.113 482.37 130.994 482.362 131.141C482.347 131.207 482.612 131.345 483.084 131.359C483.548 131.375 484.226 131.226 484.775 130.769C485.323 130.312 485.56 129.702 485.595 129.27C485.635 128.832 485.518 128.573 485.446 128.578Z" fill="#263238"/>
<path d="M486.077 118.023C486.173 118.286 487.139 118.161 488.274 118.298C489.413 118.411 490.328 118.745 490.479 118.509C490.546 118.396 490.386 118.148 490.016 117.893C489.65 117.638 489.063 117.397 488.382 117.321C487.699 117.246 487.076 117.355 486.662 117.524C486.247 117.691 486.037 117.898 486.077 118.023Z" fill="#263238"/>
<path d="M476.96 117.752C477.13 117.971 477.798 117.743 478.599 117.733C479.4 117.694 480.08 117.88 480.235 117.651C480.303 117.539 480.197 117.319 479.9 117.111C479.608 116.904 479.119 116.734 478.567 116.751C478.017 116.768 477.539 116.967 477.26 117.193C476.978 117.418 476.886 117.644 476.96 117.752Z" fill="#263238"/>
<path d="M500.323 117.294C499.83 113.047 497.824 108.769 494.18 106.531C490.982 104.568 487.716 104.124 484.539 105.852C481.889 105.428 479.089 106.378 477.1 108.19C475.026 110.078 473.807 112.803 473.488 115.588C473.169 118.374 473.709 121.216 474.752 123.819C474.932 121.451 475.112 119.083 475.293 116.714C478.938 115.167 482.917 112.111 484.336 108.4C485.711 113.387 489.901 117.575 494.963 118.753C494.237 122.883 495.889 127.347 499.129 130.009C500.004 125.824 500.817 121.543 500.323 117.294Z" fill="#263238"/>
<path d="M495.672 121.501C496.217 124.218 495.286 126.98 494.597 129.664C493.908 132.347 493.501 135.373 494.943 137.74C495.359 138.423 495.938 139.091 495.915 139.89C495.895 140.602 495.397 141.204 495.186 141.883C494.799 143.134 495.487 144.55 496.585 145.262C497.684 145.974 499.092 146.069 500.373 145.805C501.656 145.542 502.844 144.953 504.015 144.37C505.155 143.803 506.294 143.236 507.433 142.669C507.94 142.417 508.456 142.159 508.869 141.771C509.57 141.116 509.905 140.162 510.113 139.225C510.917 135.593 510.117 131.706 508.29 128.465C506.464 125.224 507.275 119.839 504.133 117.848" fill="#263238"/>
<path d="M505.682 143.229C505.665 143.17 506.419 143.164 507.513 142.509C508.049 142.179 508.655 141.673 509.171 140.941C509.692 140.217 510.115 139.259 510.216 138.14C510.33 137.025 510.131 135.773 509.605 134.562C509.339 133.958 508.988 133.366 508.56 132.81C508.125 132.256 507.614 131.728 507.085 131.18C506.558 130.632 506.012 130.057 505.542 129.384C505.074 128.714 504.707 127.913 504.608 127.045C504.395 125.317 505.047 123.612 504.769 121.956C504.633 121.137 504.178 120.425 503.529 119.942C502.884 119.449 502.103 119.151 501.332 118.881C499.767 118.405 498.215 117.783 496.942 116.925C494.368 115.226 492.46 113.199 490.945 111.468C489.432 109.725 488.334 108.216 487.584 107.168C487.214 106.642 486.931 106.229 486.747 105.945C486.562 105.662 486.47 105.507 486.484 105.498C486.497 105.489 486.614 105.625 486.824 105.891C487.063 106.199 487.363 106.585 487.731 107.06C488.523 108.072 489.659 109.545 491.194 111.248C492.729 112.939 494.648 114.922 497.175 116.56C498.442 117.393 499.882 117.964 501.482 118.447C502.267 118.72 503.089 119.024 503.811 119.572C504.539 120.104 505.083 120.952 505.231 121.873C505.52 123.721 504.858 125.406 505.064 126.991C505.233 128.586 506.371 129.798 507.397 130.882C507.919 131.432 508.436 131.976 508.886 132.559C509.331 133.148 509.69 133.773 509.961 134.409C510.498 135.685 510.687 137.004 510.544 138.176C510.415 139.353 509.944 140.358 509.381 141.097C508.821 141.846 508.172 142.351 507.603 142.668C507.028 142.982 506.535 143.128 506.199 143.184C505.864 143.241 505.684 143.241 505.682 143.229Z" fill="#455A64"/>
<path d="M503.517 115.604C503.507 115.635 503.242 115.579 502.77 115.452C502.297 115.329 501.624 115.107 500.805 114.795C499.17 114.175 496.971 113.122 494.754 111.617C492.539 110.108 490.751 108.451 489.573 107.158C488.982 106.512 488.529 105.967 488.24 105.572C487.947 105.18 487.799 104.953 487.823 104.934C487.882 104.886 488.582 105.706 489.812 106.927C491.039 108.149 492.835 109.741 495.018 111.229C497.203 112.711 499.344 113.796 500.932 114.488C502.52 115.183 503.54 115.531 503.517 115.604Z" fill="#455A64"/>
<path d="M478.876 104.774C478.839 104.728 479.196 104.338 479.901 103.846C480.598 103.37 481.711 102.775 483.075 102.747C483.75 102.735 484.401 102.872 484.933 103.136C485.467 103.397 485.868 103.763 486.136 104.115C486.677 104.839 486.665 105.431 486.616 105.428C486.54 105.451 486.43 104.921 485.882 104.328C485.352 103.73 484.323 103.17 483.084 103.216C481.852 103.239 480.796 103.736 480.075 104.128C479.352 104.532 478.919 104.83 478.876 104.774Z" fill="#455A64"/>
<path d="M79.4537 260.561C79.4537 260.561 85.3758 260.822 83.3021 273.933C81.2283 287.044 79.0671 293.905 79.0671 293.905C79.0671 293.905 78.8994 296.846 81.2283 296.536C83.5571 296.225 88.1436 293.879 89.9984 296.248C91.9216 298.706 90.7527 301.996 87.3983 305.641C84.0438 309.286 76.9861 317.542 76.3507 318.29C75.727 319.025 75.3404 320.494 76.9608 320.538C78.5813 320.581 89.8325 318.172 90.6563 323.579C91.48 328.987 80.4649 337.606 79.2789 338.571C78.0928 339.536 77.9558 340.217 78.3091 340.925C78.6624 341.634 82.3675 340.468 85.5957 339.914C88.824 339.36 92.6643 339.284 92.8779 342.444C93.0915 345.603 87.6876 354.147 70.2871 361.764L61.9937 364.765L55.1253 359.169C41.1568 346.299 38.8324 336.46 40.0644 333.542C41.2965 330.624 44.9015 331.948 47.7729 333.523C50.6443 335.099 53.7671 337.409 54.3322 336.854C54.8964 336.299 54.9892 335.61 54.1817 334.312C53.3751 333.013 45.7703 321.275 48.3109 316.432C50.8515 311.587 60.704 317.532 62.2497 318.019C63.7953 318.506 63.9089 316.99 63.5583 316.093C63.2014 315.177 59.2206 305.072 57.236 300.533C55.2524 295.994 55.2199 292.502 57.839 290.805C60.3643 289.17 63.9359 292.884 66.0368 293.936C68.1376 294.988 68.9379 292.153 68.9379 292.153C68.9379 292.153 69.1308 284.962 71.4425 271.892C73.7542 258.821 79.5727 260.575 79.5727 260.575" fill="#006900"/>
<path d="M77.6131 272.309C77.6185 272.31 77.6104 272.392 77.5879 272.55C77.5608 272.725 77.5257 272.958 77.4806 273.252C77.3761 273.889 77.2265 274.793 77.0363 275.948C76.638 278.307 76.0675 281.687 75.3636 285.855C73.9802 294.243 72.0758 305.799 69.9705 318.563C67.8886 331.344 65.9509 342.906 64.4774 351.261C63.7284 355.421 63.121 358.795 62.6974 361.151C62.4793 362.3 62.3089 363.201 62.19 363.835C62.1314 364.127 62.0845 364.357 62.0494 364.531C62.016 364.688 61.9953 364.767 61.9899 364.766C61.9845 364.765 61.9926 364.683 62.0151 364.525C62.0413 364.35 62.0773 364.117 62.1224 363.823C62.2269 363.186 62.3765 362.283 62.5667 361.127C62.9651 358.769 63.5355 355.389 64.2394 351.221C65.6517 342.855 67.5515 331.289 69.6334 318.508C71.7144 305.731 73.6521 294.171 75.1257 285.815C75.8755 281.655 76.482 278.281 76.9065 275.925C77.1237 274.775 77.2941 273.874 77.4139 273.241C77.4725 272.948 77.5194 272.718 77.5545 272.544C77.587 272.386 77.6068 272.307 77.6131 272.309Z" fill="#263238"/>
<path d="M83.7125 299.791C83.7432 299.83 83.0546 300.418 81.9389 301.366C80.7573 302.378 79.2559 303.664 77.5966 305.086C75.9023 306.542 74.3575 307.852 73.2102 308.765C72.6361 309.221 72.1621 309.579 71.8286 309.817C71.4925 310.054 71.3005 310.175 71.2861 310.157C71.2563 310.118 71.9521 309.538 73.0552 308.579C74.2296 307.558 75.722 306.262 77.3731 304.826C79.0684 303.37 80.6303 302.08 81.7857 301.179C82.3643 300.729 82.8374 300.371 83.1727 300.133C83.5062 299.895 83.6981 299.772 83.7125 299.791Z" fill="#263238"/>
<path d="M64.6622 302.566C67.8327 306.629 70.4634 309.876 70.538 309.817C70.6125 309.759 68.1027 306.418 64.9322 302.355C61.7616 298.292 59.131 295.045 59.0564 295.103C58.9818 295.162 61.4916 298.503 64.6622 302.566Z" fill="#263238"/>
<path d="M67.9292 332.526C67.9156 332.545 67.712 332.435 67.3533 332.218C66.9937 332.004 66.4845 331.676 65.8599 331.262C64.6153 330.43 62.9227 329.239 61.1274 327.825C59.3276 326.415 57.7666 325.055 56.6653 324.04C56.1137 323.534 55.6775 323.114 55.3828 322.816C55.0881 322.519 54.9322 322.347 54.9484 322.33C54.9827 322.293 55.6865 322.893 56.8257 323.859C57.9649 324.825 59.5457 326.151 61.3383 327.556C63.1273 328.965 64.7919 330.184 65.9978 331.066C67.2073 331.942 67.9571 332.484 67.9292 332.526Z" fill="#263238"/>
<path d="M81.8388 326.088C81.8577 326.131 81.0952 326.52 79.8479 327.112C78.5997 327.704 76.8647 328.5 74.9415 329.361C73.0173 330.222 71.2671 330.984 69.9927 331.521C68.7192 332.057 67.9216 332.366 67.9027 332.324C67.8838 332.28 68.6453 331.892 69.8936 331.3C71.1418 330.708 72.8767 329.911 74.8009 329.049C76.7242 328.189 78.4744 327.427 79.7479 326.891C81.0222 326.355 81.8198 326.045 81.8388 326.088Z" fill="#263238"/>
<path d="M82.0814 346.437C82.0913 346.458 81.8488 346.588 81.4036 346.805C80.889 347.045 80.2545 347.342 79.5029 347.692C77.8923 348.428 75.6572 349.424 73.1815 350.503C70.7039 351.582 68.4544 352.543 66.8186 353.222C66.0508 353.534 65.401 353.798 64.8746 354.01C64.4123 354.189 64.1527 354.278 64.1428 354.256C64.1338 354.235 64.3753 354.104 64.8206 353.888C65.3352 353.647 65.9697 353.351 66.7213 353C68.3318 352.265 70.567 351.27 73.0445 350.19C75.5211 349.11 77.7707 348.15 79.4064 347.471C80.1743 347.159 80.8241 346.896 81.3504 346.682C81.8119 346.504 82.0724 346.414 82.0814 346.437Z" fill="#263238"/>
<path d="M64.5186 353.947C64.5051 353.966 64.2554 353.81 63.8165 353.513C63.3758 353.217 62.7494 352.771 61.9833 352.213C60.4521 351.09 58.3675 349.496 56.1405 347.644C53.9099 345.793 51.9578 344.04 50.5753 342.739C49.8831 342.089 49.3325 341.554 48.9593 341.177C48.5853 340.799 48.387 340.583 48.4033 340.566C48.4195 340.548 48.6493 340.732 49.0504 341.078C49.501 341.474 50.0661 341.97 50.7384 342.56C52.1606 343.814 54.1334 345.535 56.3586 347.382C58.5811 349.23 60.6378 350.851 62.1285 352.02C62.8314 352.571 63.4227 353.036 63.8949 353.407C64.3095 353.737 64.5321 353.929 64.5186 353.947Z" fill="#263238"/>
<path d="M561.598 307.379C564.242 308.526 566.187 310.97 567.162 313.682C568.138 316.394 568.227 319.356 567.901 322.22C567.274 327.76 564.125 333.355 560.735 337.782C556.07 333.71 554.996 326.607 554.677 322.969C554.174 317.219 556.756 306.522 561.598 307.379Z" fill="#006900"/>
<path d="M566.161 346.925C565.415 343.793 566.717 340.359 569.121 338.216C571.525 336.075 574.883 335.168 578.094 335.414C579.577 335.528 581.182 335.96 582.031 337.183C582.826 338.325 582.737 339.92 582.092 341.153C581.447 342.386 580.332 343.308 579.153 344.047C575.111 346.585 570.732 348.298 566.161 346.925Z" fill="#006900"/>
<path d="M560.178 363.915C560.15 363.907 560.214 363.504 560.345 362.777C560.491 361.976 560.681 360.942 560.909 359.7C561.424 357.128 562.087 353.446 564.084 349.87C566.055 346.304 568.815 343.678 571.138 342.375C572.292 341.707 573.301 341.308 574.014 341.102C574.367 340.983 574.653 340.938 574.843 340.892C575.034 340.852 575.136 340.837 575.138 340.851C575.172 340.942 573.522 341.238 571.285 342.62C569.043 343.962 566.376 346.562 564.437 350.068C562.477 353.57 561.774 357.201 561.189 359.759C560.907 361.049 560.677 362.093 560.497 362.811C560.321 363.527 560.204 363.921 560.178 363.915Z" fill="#263238"/>
<path d="M560.349 315.697C560.363 315.696 560.382 315.868 560.406 316.194C560.427 316.563 560.456 317.037 560.49 317.622C560.557 318.863 560.63 320.659 560.701 322.878C560.845 327.319 560.957 333.455 560.929 340.233C560.899 347.013 560.733 353.149 560.551 357.588C560.46 359.807 560.371 361.602 560.295 362.842C560.254 363.427 560.223 363.901 560.198 364.269C560.171 364.595 560.151 364.766 560.137 364.765C560.123 364.765 560.117 364.593 560.117 364.265C560.123 363.896 560.13 363.421 560.138 362.836C560.169 361.543 560.213 359.76 560.266 357.578C560.375 353.14 560.496 347.008 560.526 340.231C560.554 333.457 560.488 327.325 560.416 322.886C560.382 320.704 560.355 318.92 560.334 317.628C560.331 317.041 560.327 316.566 560.325 316.197C560.326 315.869 560.335 315.697 560.349 315.697Z" fill="#263238"/>
<path d="M558.084 350.298C557.022 343.595 552.504 337.534 546.383 334.601C544.825 333.855 542.789 333.367 541.506 334.526C540.223 335.688 540.511 337.773 541.138 339.387C543.751 346.099 550.771 350.839 557.975 350.754" fill="#006900"/>
<path d="M547.149 339.856C547.162 339.832 547.512 339.986 548.14 340.288C548.455 340.436 548.839 340.621 549.258 340.883C549.677 341.146 550.184 341.401 550.682 341.777C551.191 342.136 551.759 342.518 552.313 343.003C552.893 343.455 553.457 344 554.047 344.579C555.196 345.763 556.354 347.178 557.342 348.812C558.315 350.456 559.02 352.143 559.512 353.72C559.734 354.517 559.947 355.272 560.06 355.998C560.218 356.718 560.276 357.4 560.341 358.02C560.427 358.639 560.398 359.205 560.418 359.699C560.44 360.195 560.409 360.619 560.381 360.966C560.329 361.661 560.288 362.042 560.261 362.039C560.169 362.036 560.327 360.498 560.056 358.048C559.975 357.437 559.901 356.766 559.732 356.062C559.606 355.349 559.384 354.609 559.156 353.828C558.652 352.284 557.95 350.632 556.995 349.017C556.024 347.412 554.896 346.016 553.78 344.835C553.206 344.26 552.66 343.712 552.097 343.256C551.562 342.768 551.011 342.377 550.519 342.007C548.513 340.574 547.109 339.934 547.149 339.856Z" fill="#263238"/>
<path d="M389.54 86.5254H209.799V266.268H389.54V86.5254Z" fill="#F5F5F5"/>
<path d="M389.539 266.268C389.537 264.535 389.458 194.274 389.336 86.5262L389.539 86.729C337.299 86.738 275.62 86.7488 209.815 86.7606H209.798L210.032 86.5262C210.02 152.346 210.01 214.028 210.001 266.268L209.798 266.064C317.559 266.187 387.807 266.266 389.539 266.268C387.808 266.269 317.559 266.349 209.798 266.471H209.595V266.268C209.586 214.028 209.575 152.346 209.562 86.5262V86.291H209.798H209.815C275.62 86.3027 337.299 86.3136 389.539 86.3226H389.743V86.5262C389.621 194.275 389.541 264.536 389.539 266.268Z" fill="#263238"/>
<path d="M373.42 255.557C373.42 255.427 375.842 255.322 378.827 255.322C378.358 255.791 378.697 255.451 378.592 255.555V255.552V255.548V255.539V255.521V255.487V255.417L378.593 255.278L378.594 255.003C378.595 254.822 378.596 254.644 378.598 254.466C378.602 254.12 378.607 253.783 378.611 253.451C378.629 252.859 378.645 252.288 378.662 251.732C378.705 250.753 378.763 250.148 378.828 250.148C378.894 250.148 378.952 250.753 378.994 251.732C379.011 252.288 379.028 252.859 379.046 253.451C379.05 253.783 379.055 254.12 379.059 254.466C379.061 254.643 379.062 254.822 379.063 255.003L379.064 255.278V255.417L379.064 255.487V255.521V255.539V255.548V255.552V255.555C378.96 255.66 379.299 255.322 378.829 255.791C375.841 255.79 373.42 255.686 373.42 255.557Z" fill="#455A64"/>
<path d="M356.398 255.793C359.531 255.793 362.071 255.687 362.071 255.558C362.071 255.428 359.531 255.322 356.398 255.322C353.265 255.322 350.725 255.428 350.725 255.558C350.725 255.687 353.265 255.793 356.398 255.793Z" fill="#455A64"/>
<path d="M333.71 255.793C336.844 255.793 339.384 255.687 339.384 255.558C339.384 255.428 336.844 255.322 333.71 255.322C330.577 255.322 328.037 255.428 328.037 255.558C328.037 255.687 330.577 255.793 333.71 255.793Z" fill="#455A64"/>
<path d="M311.011 255.793C314.145 255.793 316.685 255.687 316.685 255.558C316.685 255.428 314.145 255.322 311.011 255.322C307.878 255.322 305.338 255.428 305.338 255.558C305.338 255.687 307.878 255.793 311.011 255.793Z" fill="#455A64"/>
<path d="M288.324 255.793C291.457 255.793 293.997 255.687 293.997 255.558C293.997 255.428 291.457 255.322 288.324 255.322C285.19 255.322 282.65 255.428 282.65 255.558C282.65 255.687 285.19 255.793 288.324 255.793Z" fill="#455A64"/>
<path d="M265.628 255.793C268.762 255.793 271.302 255.687 271.302 255.558C271.302 255.428 268.762 255.322 265.628 255.322C262.495 255.322 259.955 255.428 259.955 255.558C259.955 255.687 262.495 255.793 265.628 255.793Z" fill="#455A64"/>
<path d="M242.937 255.793C246.07 255.793 248.61 255.687 248.61 255.558C248.61 255.428 246.07 255.322 242.937 255.322C239.804 255.322 237.264 255.428 237.264 255.558C237.264 255.687 239.804 255.793 242.937 255.793Z" fill="#455A64"/>
<path d="M220.504 250.148C220.634 250.148 220.738 252.57 220.738 255.556C220.27 255.086 220.609 255.425 220.506 255.321H220.508H220.512H220.521H220.539H220.574H220.644L220.783 255.322L221.058 255.323C221.239 255.323 221.418 255.324 221.595 255.326C221.94 255.331 222.278 255.335 222.61 255.34C223.202 255.358 223.773 255.374 224.329 255.39C225.308 255.433 225.912 255.491 225.912 255.557C225.912 255.621 225.308 255.68 224.329 255.723C223.773 255.74 223.202 255.756 222.61 255.774C222.278 255.779 221.94 255.783 221.595 255.788C221.419 255.788 221.239 255.79 221.058 255.791L220.783 255.792H220.644H220.574H220.539H220.521H220.512H220.508H220.506C220.4 255.688 220.738 256.027 220.27 255.558C220.27 252.569 220.374 250.148 220.504 250.148Z" fill="#455A64"/>
<path d="M220.504 238.802C220.633 238.802 220.738 236.262 220.738 233.128C220.738 229.995 220.633 227.455 220.504 227.455C220.374 227.455 220.27 229.995 220.27 233.128C220.27 236.262 220.374 238.802 220.504 238.802Z" fill="#455A64"/>
<path d="M220.504 216.109C220.633 216.109 220.738 213.569 220.738 210.436C220.738 207.303 220.633 204.764 220.504 204.764C220.374 204.764 220.27 207.303 220.27 210.436C220.27 213.569 220.374 216.109 220.504 216.109Z" fill="#455A64"/>
<path d="M220.504 193.417C220.633 193.417 220.738 190.877 220.738 187.744C220.738 184.61 220.633 182.07 220.504 182.07C220.374 182.07 220.27 184.61 220.27 187.744C220.27 190.877 220.374 193.417 220.504 193.417Z" fill="#455A64"/>
<path d="M220.504 170.724C220.633 170.724 220.738 168.184 220.738 165.05C220.738 161.917 220.633 159.377 220.504 159.377C220.374 159.377 220.27 161.917 220.27 165.05C220.27 168.184 220.374 170.724 220.504 170.724Z" fill="#455A64"/>
<path d="M220.504 148.03C220.633 148.03 220.738 145.49 220.738 142.357C220.738 139.224 220.633 136.684 220.504 136.684C220.374 136.684 220.27 139.224 220.27 142.357C220.27 145.49 220.374 148.03 220.504 148.03Z" fill="#455A64"/>
<path d="M220.504 125.337C220.633 125.337 220.738 122.797 220.738 119.664C220.738 116.53 220.633 113.99 220.504 113.99C220.374 113.99 220.27 116.53 220.27 119.664C220.27 122.797 220.374 125.337 220.504 125.337Z" fill="#455A64"/>
<path d="M225.916 97.2382C225.916 97.368 223.495 97.4726 220.509 97.4726C220.978 97.0039 220.639 97.3437 220.743 97.24V97.2418V97.2463V97.2554V97.2734V97.3085V97.3788V97.5176L220.742 97.7925C220.741 97.9737 220.74 98.1521 220.739 98.3296C220.734 98.6748 220.73 99.0119 220.724 99.3445C220.707 99.9366 220.69 100.507 220.674 101.063C220.631 102.042 220.573 102.647 220.508 102.647C220.443 102.647 220.385 102.042 220.342 101.063C220.326 100.507 220.309 99.9366 220.292 99.3445C220.287 99.0119 220.283 98.6748 220.278 98.3296C220.277 98.153 220.275 97.9737 220.275 97.7925L220.274 97.5176V97.3788V97.3085V97.2734V97.2554V97.2463V97.2418V97.24C220.378 97.1346 220.039 97.4726 220.509 97.0039C223.495 97.0039 225.916 97.1084 225.916 97.2382Z" fill="#455A64"/>
<path d="M242.937 97.4726C246.07 97.4726 248.61 97.3676 248.61 97.2382C248.61 97.1088 246.07 97.0039 242.937 97.0039C239.804 97.0039 237.264 97.1088 237.264 97.2382C237.264 97.3676 239.804 97.4726 242.937 97.4726Z" fill="#455A64"/>
<path d="M265.628 97.4726C268.762 97.4726 271.302 97.3676 271.302 97.2382C271.302 97.1088 268.762 97.0039 265.628 97.0039C262.495 97.0039 259.955 97.1088 259.955 97.2382C259.955 97.3676 262.495 97.4726 265.628 97.4726Z" fill="#455A64"/>
<path d="M288.324 97.4726C291.457 97.4726 293.997 97.3676 293.997 97.2382C293.997 97.1088 291.457 97.0039 288.324 97.0039C285.19 97.0039 282.65 97.1088 282.65 97.2382C282.65 97.3676 285.19 97.4726 288.324 97.4726Z" fill="#455A64"/>
<path d="M311.011 97.4726C314.145 97.4726 316.685 97.3676 316.685 97.2382C316.685 97.1088 314.145 97.0039 311.011 97.0039C307.878 97.0039 305.338 97.1088 305.338 97.2382C305.338 97.3676 307.878 97.4726 311.011 97.4726Z" fill="#455A64"/>
<path d="M333.71 97.4726C336.844 97.4726 339.384 97.3676 339.384 97.2382C339.384 97.1088 336.844 97.0039 333.71 97.0039C330.577 97.0039 328.037 97.1088 328.037 97.2382C328.037 97.3676 330.577 97.4726 333.71 97.4726Z" fill="#455A64"/>
<path d="M356.398 97.4726C359.531 97.4726 362.071 97.3676 362.071 97.2382C362.071 97.1088 359.531 97.0039 356.398 97.0039C353.265 97.0039 350.725 97.1088 350.725 97.2382C350.725 97.3676 353.265 97.4726 356.398 97.4726Z" fill="#455A64"/>
<path d="M378.828 102.645C378.699 102.645 378.593 100.223 378.593 97.2374C379.063 97.706 378.723 97.3672 378.827 97.4717H378.824H378.819H378.81H378.793H378.758H378.689H378.55L378.275 97.4708C378.094 97.4699 377.915 97.469 377.738 97.4672C377.393 97.4627 377.055 97.4582 376.722 97.4537C376.131 97.4366 375.56 97.4194 375.003 97.4032C374.026 97.3609 373.42 97.3023 373.42 97.2374C373.42 97.1725 374.026 97.1139 375.003 97.0716C375.56 97.0553 376.131 97.0382 376.722 97.0211C377.055 97.0166 377.393 97.0121 377.738 97.0067C377.914 97.0058 378.094 97.0049 378.275 97.0031L378.55 97.0022H378.689H378.758H378.793H378.81H378.819H378.824H378.827C378.931 97.1067 378.594 96.7678 379.064 97.2374C379.063 100.224 378.957 102.645 378.828 102.645Z" fill="#455A64"/>
<path d="M378.831 125.337C378.961 125.337 379.066 122.797 379.066 119.664C379.066 116.53 378.961 113.99 378.831 113.99C378.701 113.99 378.596 116.53 378.596 119.664C378.596 122.797 378.701 125.337 378.831 125.337Z" fill="#455A64"/>
<path d="M378.831 148.03C378.961 148.03 379.066 145.49 379.066 142.357C379.066 139.224 378.961 136.684 378.831 136.684C378.701 136.684 378.596 139.224 378.596 142.357C378.596 145.49 378.701 148.03 378.831 148.03Z" fill="#455A64"/>
<path d="M378.831 170.724C378.961 170.724 379.066 168.184 379.066 165.05C379.066 161.917 378.961 159.377 378.831 159.377C378.701 159.377 378.596 161.917 378.596 165.05C378.596 168.184 378.701 170.724 378.831 170.724Z" fill="#455A64"/>
<path d="M378.831 193.417C378.961 193.417 379.066 190.877 379.066 187.744C379.066 184.61 378.961 182.07 378.831 182.07C378.701 182.07 378.596 184.61 378.596 187.744C378.596 190.877 378.701 193.417 378.831 193.417Z" fill="#455A64"/>
<path d="M378.831 216.109C378.961 216.109 379.066 213.569 379.066 210.436C379.066 207.303 378.961 204.764 378.831 204.764C378.701 204.764 378.596 207.303 378.596 210.436C378.596 213.569 378.701 216.109 378.831 216.109Z" fill="#455A64"/>
<path d="M378.831 238.802C378.961 238.802 379.066 236.262 379.066 233.128C379.066 229.995 378.961 227.455 378.831 227.455C378.701 227.455 378.596 229.995 378.596 233.128C378.596 236.262 378.701 238.802 378.831 238.802Z" fill="#455A64"/>
<path d="M481.058 147.969C481.058 147.969 474.845 146.553 469.436 151.98C464.723 156.709 445.082 173.99 445.082 173.99L416.618 168.292L412.691 180.998C412.691 180.998 446.307 191.454 448.759 190.557C451.21 189.66 469.437 177.312 469.437 177.312L481.058 147.969Z" fill="#FBB040"/>
<path d="M279.334 122.715L297.742 232.258L467.253 213.646L448.844 104.103L279.334 122.715Z" fill="#EBEBEB"/>
<path d="M448.848 104.107C448.848 104.107 448.569 104.147 448.035 104.211C447.492 104.274 446.703 104.365 445.668 104.485C443.572 104.722 440.489 105.07 436.477 105.522C428.439 106.42 416.694 107.731 401.8 109.394C372.034 112.692 329.7 117.381 279.375 122.956L279.629 122.686C285.118 155.287 291.41 192.664 298.068 232.213L298.071 232.225L297.697 231.995C360.457 225.122 418.783 218.734 467.216 213.429L466.979 213.681C461.492 180.668 456.943 153.305 453.765 134.182C452.188 124.613 450.952 117.107 450.108 111.983C449.692 109.426 449.373 107.465 449.155 106.132C448.943 104.805 448.848 104.107 448.848 104.107C448.848 104.107 448.978 104.768 449.209 106.078C449.437 107.4 449.775 109.345 450.215 111.88C451.09 116.989 452.372 124.473 454.005 134.016C457.258 153.164 461.912 180.564 467.527 213.621L467.564 213.843L467.289 213.873C418.86 219.203 360.54 225.621 297.786 232.528L297.456 232.564L297.413 232.297L297.41 232.285C290.777 192.733 284.508 155.354 279.04 122.751L279 122.512L279.294 122.479C329.716 116.994 372.128 112.379 401.951 109.135C416.824 107.529 428.555 106.263 436.583 105.397C440.573 104.972 443.641 104.645 445.725 104.422C446.748 104.316 447.527 104.235 448.065 104.179C448.589 104.126 448.848 104.107 448.848 104.107Z" fill="#263238"/>
<path d="M302.422 224.73L460.023 207.426L443.933 111.675L286.331 128.979L302.422 224.73Z" fill="#A0DBE8"/>
<path d="M302.422 224.723L347.467 159.162L387.823 192.655L407.605 170.209L460.025 207.421L302.422 224.723Z" fill="#A0DBE8"/>
<path d="M382.414 158.023C389.331 158.023 394.937 153.491 394.937 147.9C394.937 142.31 389.331 137.777 382.414 137.777C375.498 137.777 369.891 142.31 369.891 147.9C369.891 153.491 375.498 158.023 382.414 158.023Z" fill="#A0DBE8"/>
<g opacity="0.2">
<g opacity="0.2">
<path opacity="0.2" d="M302.422 224.723L347.467 159.162L387.823 192.655L407.605 170.209L460.025 207.421L302.422 224.723Z" fill="black"/>
</g>
</g>
<g opacity="0.2">
<g opacity="0.2">
<g opacity="0.2">
<g opacity="0.2">
<path opacity="0.2" d="M382.414 158.023C389.331 158.023 394.937 153.491 394.937 147.9C394.937 142.31 389.331 137.777 382.414 137.777C375.498 137.777 369.891 142.31 369.891 147.9C369.891 153.491 375.498 158.023 382.414 158.023Z" fill="black"/>
</g>
</g>
</g>
</g>
<path d="M393.229 165.181L384.934 166.347L384.333 162.069C383.854 158.663 380.667 156.262 377.262 156.74C373.856 157.219 371.455 160.406 371.934 163.811L372.535 168.09L364.24 169.255L363.639 164.977C362.51 156.944 368.15 149.562 376.096 148.445C384.129 147.316 391.511 152.957 392.628 160.903L393.229 165.181Z" fill="black"/>
<path d="M396.639 164.68L360.839 169.711C359.267 169.932 358.217 171.326 358.438 172.898L362.156 199.354C362.377 200.926 363.771 201.977 365.343 201.756L401.142 196.724C402.714 196.504 403.765 195.109 403.544 193.538L399.825 167.081C399.517 165.522 398.123 164.471 396.639 164.68ZM382.927 184.326L383.43 187.906C383.565 188.866 382.902 189.85 381.854 189.997C380.894 190.132 379.91 189.469 379.763 188.421L379.26 184.841C378.039 184.389 377.169 183.265 376.972 181.868C376.69 179.86 378.116 177.968 380.124 177.685C382.132 177.403 384.024 178.829 384.307 180.837C384.59 182.222 383.976 183.555 382.927 184.326Z" fill="black"/>
<path d="M356.615 166.302L347.97 167.517C346.573 167.713 345.279 166.738 345.082 165.341C344.886 163.944 345.862 162.649 347.259 162.453L355.903 161.238C357.3 161.042 358.595 162.017 358.791 163.414C358.987 164.811 358.012 166.106 356.615 166.302Z" fill="black"/>
<path d="M360.814 151.829C360.29 151.903 359.655 151.814 359.157 151.439L351.561 146.808C350.39 146.082 349.995 144.535 350.708 143.277C351.434 142.107 352.981 141.711 354.239 142.425L361.835 147.056C363.006 147.782 363.401 149.329 362.687 150.587C362.162 151.284 361.513 151.731 360.814 151.829Z" fill="black"/>
<path d="M375.436 143.717C374.039 143.914 372.744 142.938 372.548 141.541L371.321 132.81C371.124 131.412 372.1 130.118 373.497 129.921C374.894 129.725 376.189 130.701 376.385 132.098L377.612 140.829C377.809 142.226 376.833 143.521 375.436 143.717Z" fill="black"/>
<path d="M391.634 147.495C390.936 147.594 390.101 147.355 389.578 146.805C388.558 145.88 388.5 144.196 389.425 143.176L395.45 136.63C396.375 135.61 398.059 135.552 399.079 136.477C400.099 137.402 400.158 139.085 399.233 140.106L393.208 146.651C392.745 147.161 392.246 147.41 391.634 147.495Z" fill="black"/>
<path d="M408.302 159.038L399.57 160.265C398.173 160.461 396.878 159.486 396.682 158.089C396.486 156.692 397.461 155.397 398.858 155.201L407.59 153.974C408.987 153.777 410.282 154.753 410.478 156.15C410.674 157.547 409.699 158.842 408.302 159.038Z" fill="black"/>
<path d="M513.41 162.172C514.702 153.265 510.565 150.493 504.066 147.802C495.949 144.44 480.491 146.111 475.269 150.822L469.283 168.407C466.784 171.319 467.183 175.768 468.626 179.325C470.068 182.882 472.389 186.072 473.464 189.756C475.544 196.877 474.086 203.18 473.591 210.581C473.476 212.29 472.162 215.445 473.426 216.602C474.588 217.666 476.333 217.704 477.908 217.64C490.296 217.142 502.575 214.032 513.709 208.574C509.471 200.013 504.79 190.107 507.522 183.544C509.938 177.737 512.239 170.242 513.41 162.172Z" fill="#FBB040"/>
<path d="M457.279 180.409L453.271 194.091C453.271 194.091 474.26 201.726 485.628 201.585C496.278 201.455 499.33 200.248 503.078 191.646C506.827 183.045 511.079 173.166 511.97 167.474C511.97 167.474 512.879 164.972 513.319 161.673C514.878 150 500.678 146.926 498.605 158.519L496.914 164.731C496.914 164.731 493.045 173.472 492.862 173.958C491.15 178.491 488.191 185.751 486.046 186.554C483.9 187.357 457.279 180.409 457.279 180.409Z" fill="#FBB040"/>
<path d="M508.529 180.999C508.536 181.002 508.499 181.112 508.419 181.324C508.328 181.555 508.207 181.865 508.053 182.258C507.723 183.076 507.223 184.279 506.495 185.791C505.769 187.305 504.832 189.14 503.542 191.155C502.253 193.162 500.638 195.391 498.42 197.455C497.898 198.005 497.239 198.431 496.632 198.939C495.992 199.407 495.286 199.818 494.573 200.237C494.194 200.407 493.811 200.58 493.425 200.754C493.231 200.839 493.039 200.933 492.841 201.011L492.218 201.184C491.801 201.3 491.38 201.417 490.955 201.535C490.519 201.588 490.078 201.639 489.633 201.692C486.067 202.031 482.266 201.544 478.335 200.889C470.468 199.499 461.975 197.19 453.19 194.313L452.977 194.242L453.041 194.024C453.2 193.479 453.373 192.888 453.547 192.296C454.748 188.201 455.923 184.195 457.053 180.343L457.116 180.127L457.335 180.186C465.013 182.237 472.272 184.032 478.884 185.234C480.538 185.522 482.154 185.781 483.724 185.904C484.506 185.97 485.287 185.996 486.017 185.902C486.206 185.889 486.368 185.831 486.531 185.781C486.68 185.707 486.791 185.662 486.898 185.489C487.117 185.205 487.322 184.905 487.501 184.579C488.975 182.03 490.107 179.513 491.183 177.264C493.291 172.735 494.909 169.072 496.029 166.558C496.582 165.319 497.014 164.351 497.317 163.669C497.46 163.357 497.571 163.112 497.658 162.925C497.736 162.758 497.78 162.674 497.787 162.678C497.793 162.681 497.763 162.77 497.697 162.942C497.621 163.133 497.522 163.384 497.395 163.703C497.108 164.392 496.701 165.37 496.18 166.623C495.106 169.159 493.53 172.84 491.457 177.391C490.395 179.656 489.289 182.17 487.808 184.764C487.632 185.09 487.417 185.41 487.177 185.725C487.095 185.881 486.859 186.044 486.67 186.122C486.472 186.188 486.272 186.254 486.074 186.27C485.282 186.376 484.491 186.349 483.694 186.288C482.099 186.172 480.477 185.918 478.814 185.635C472.171 184.455 464.906 182.678 457.212 180.633L457.494 180.475C456.366 184.327 455.194 188.335 453.996 192.429C453.823 193.021 453.649 193.612 453.488 194.158L453.339 193.87C462.096 196.742 470.581 199.061 478.406 200.468C482.315 201.133 486.099 201.627 489.591 201.311C490.024 201.261 490.455 201.214 490.882 201.166C491.295 201.053 491.704 200.941 492.109 200.831L492.715 200.666C492.909 200.591 493.096 200.499 493.286 200.418C493.664 200.25 494.038 200.085 494.407 199.92C495.106 199.514 495.8 199.116 496.431 198.662C497.031 198.165 497.681 197.753 498.199 197.214C500.4 195.194 502.022 192.997 503.325 191.016C504.627 189.026 505.585 187.21 506.334 185.714C507.085 184.217 507.611 183.028 507.968 182.222C508.14 181.836 508.277 181.533 508.377 181.306C508.469 181.099 508.521 180.996 508.529 180.999Z" fill="#263238"/>
<path d="M472.435 165.079C472.494 165.119 471.893 166.045 470.975 167.563C470.09 169.08 468.816 171.236 468.393 173.876C467.942 176.529 468.833 178.91 469.507 180.517C470.211 182.141 470.711 183.127 470.644 183.162C470.616 183.176 470.46 182.948 470.205 182.519C469.95 182.089 469.594 181.46 469.205 180.654C468.818 179.846 468.398 178.855 468.106 177.691C467.813 176.531 467.708 175.178 467.929 173.805C468.376 171.041 469.733 168.87 470.695 167.386C471.692 165.902 472.387 165.046 472.435 165.079Z" fill="#263238"/>
<g opacity="0.2">
<g opacity="0.2">
<path opacity="0.2" d="M474.293 199.984C474.2 201.542 474.969 203.067 476.102 204.139C477.235 205.211 478.699 205.875 480.196 206.313C484.897 207.692 490.16 206.94 494.341 204.39C498.525 201.839 501.375 197.207 502.529 192.445C502.529 192.445 499.885 195.773 498.149 197.502C495.831 199.811 493.322 200.907 490.05 201.37C484.764 202.116 479.408 201.045 474.178 199.978" fill="black"/>
</g>
</g>
<path d="M472.658 152.279C472.677 152.252 473.211 152.516 474.124 152.982C475.163 153.527 476.405 154.179 477.807 154.914L478.136 155.088L477.816 155.297C477.018 155.817 476.161 156.375 475.268 156.959C474.437 157.489 473.639 157.999 472.896 158.474L472.551 158.695L472.547 158.296C472.53 156.544 472.532 155.041 472.551 153.974C472.569 152.909 472.606 152.28 472.658 152.279C472.709 152.278 472.769 152.905 472.827 153.969C472.886 155.033 472.943 156.536 472.992 158.288L472.643 158.109C473.386 157.625 474.184 157.105 475.013 156.566C475.917 155.988 476.783 155.435 477.589 154.92L477.597 155.302C474.642 153.655 472.583 152.401 472.658 152.279Z" fill="#FAFAFA"/>
<path d="M462.633 161.207C462.653 161.18 463.188 161.444 464.101 161.91C465.14 162.455 466.382 163.107 467.783 163.842L468.112 164.015L467.792 164.224C466.995 164.744 466.138 165.303 465.244 165.886C464.413 166.416 463.616 166.927 462.872 167.402L462.527 167.623L462.524 167.224C462.506 165.472 462.508 163.968 462.527 162.902C462.546 161.836 462.582 161.208 462.633 161.207C462.686 161.206 462.745 161.832 462.803 162.897C462.861 163.961 462.919 165.464 462.968 167.216L462.619 167.037C463.362 166.553 464.159 166.034 464.988 165.493C465.892 164.916 466.758 164.363 467.564 163.848L467.572 164.23C464.619 162.582 462.56 161.328 462.633 161.207Z" fill="#FAFAFA"/>
<path d="M489.447 164.252C489.416 164.244 489.463 163.65 489.555 162.629C489.675 161.461 489.819 160.067 489.98 158.493L490.018 158.123L490.332 158.343C491.111 158.889 491.948 159.478 492.822 160.09C493.624 160.664 494.394 161.215 495.111 161.728L495.444 161.967L495.075 162.118C493.454 162.785 492.057 163.342 491.061 163.721C490.066 164.099 489.467 164.299 489.447 164.252C489.428 164.205 489.987 163.916 490.953 163.467C491.919 163.016 493.294 162.404 494.902 161.708L494.865 162.098C494.139 161.589 493.361 161.042 492.551 160.473C491.679 159.848 490.843 159.25 490.066 158.693L490.418 158.542C489.986 161.898 489.587 164.276 489.447 164.252Z" fill="#FAFAFA"/>
<path d="M471.749 174.785C471.728 174.76 472.11 174.303 472.78 173.527C473.557 172.646 474.484 171.594 475.531 170.407L475.777 170.129L475.904 170.49C476.221 171.388 476.561 172.353 476.915 173.36C477.234 174.292 477.539 175.189 477.825 176.023L477.957 176.411L477.567 176.32C475.861 175.92 474.401 175.562 473.371 175.29C472.339 175.019 471.738 174.835 471.749 174.785C471.761 174.734 472.383 174.825 473.431 175.021C474.479 175.216 475.952 175.517 477.665 175.885L477.409 176.182C477.115 175.345 476.799 174.448 476.47 173.514C476.123 172.499 475.792 171.526 475.483 170.622L475.856 170.705C473.557 173.182 471.849 174.886 471.749 174.785Z" fill="#FAFAFA"/>
<path d="M485.588 176.196C485.556 176.188 485.603 175.594 485.696 174.574C485.816 173.406 485.959 172.01 486.121 170.436L486.159 170.066L486.473 170.286C487.252 170.832 488.089 171.421 488.963 172.034C489.765 172.607 490.535 173.159 491.251 173.671L491.585 173.909L491.215 174.062C489.595 174.729 488.199 175.286 487.202 175.664C486.204 176.044 485.608 176.244 485.588 176.196C485.569 176.148 486.128 175.861 487.094 175.41C488.06 174.96 489.434 174.348 491.042 173.652L491.005 174.043C490.28 173.534 489.502 172.986 488.692 172.417C487.82 171.792 486.984 171.194 486.207 170.637L486.559 170.487C486.127 173.843 485.728 176.22 485.588 176.196Z" fill="#FAFAFA"/>
<path d="M480.67 184.637C480.638 184.629 480.685 184.035 480.778 183.015C480.898 181.847 481.041 180.453 481.203 178.877L481.241 178.508L481.555 178.728C482.334 179.274 483.171 179.862 484.046 180.475C484.847 181.048 485.616 181.6 486.334 182.113L486.666 182.351L486.298 182.502C484.677 183.169 483.28 183.726 482.285 184.105C481.287 184.485 480.69 184.684 480.67 184.637C480.651 184.59 481.21 184.302 482.176 183.851C483.143 183.402 484.516 182.79 486.124 182.094L486.088 182.484C485.362 181.975 484.584 181.428 483.774 180.858C482.902 180.234 482.066 179.635 481.29 179.078L481.641 178.929C481.209 182.283 480.81 184.662 480.67 184.637Z" fill="#FAFAFA"/>
<path d="M490.877 213.015C490.845 213.006 490.892 212.412 490.985 211.392C491.105 210.224 491.248 208.829 491.41 207.254L491.448 206.885L491.763 207.105C492.54 207.651 493.378 208.239 494.253 208.852C495.054 209.425 495.824 209.977 496.541 210.49L496.873 210.729L496.505 210.88C494.884 211.547 493.487 212.104 492.492 212.482C491.493 212.862 490.897 213.062 490.877 213.015C490.858 212.968 491.417 212.679 492.383 212.229C493.35 211.779 494.723 211.167 496.331 210.472L496.295 210.862C495.569 210.353 494.791 209.806 493.981 209.236C493.109 208.612 492.274 208.014 491.496 207.456L491.848 207.307C491.416 210.66 491.017 213.039 490.877 213.015Z" fill="#FAFAFA"/>
<path d="M499.768 156.945C499.736 156.937 499.782 156.342 499.875 155.323C499.996 154.154 500.139 152.759 500.3 151.185L500.338 150.814L500.653 151.035C501.431 151.581 502.269 152.17 503.143 152.783C503.944 153.356 504.715 153.908 505.431 154.421L505.764 154.659L505.395 154.811C503.775 155.478 502.378 156.035 501.382 156.413C500.386 156.792 499.788 156.993 499.768 156.945C499.749 156.897 500.308 156.609 501.274 156.159C502.24 155.708 503.614 155.096 505.222 154.401L505.185 154.791C504.46 154.282 503.682 153.735 502.872 153.166C502 152.541 501.164 151.943 500.387 151.386L500.738 151.236C500.308 154.591 499.907 156.969 499.768 156.945Z" fill="#FAFAFA"/>
<path d="M477.612 166.885C477.579 166.877 477.626 166.283 477.719 165.263C477.839 164.095 477.982 162.7 478.144 161.125L478.182 160.756L478.496 160.976C479.275 161.522 480.113 162.11 480.987 162.723C481.788 163.297 482.558 163.848 483.275 164.362L483.608 164.6L483.238 164.751C481.619 165.418 480.222 165.975 479.226 166.354C478.227 166.733 477.632 166.933 477.612 166.885C477.592 166.838 478.152 166.55 479.118 166.099C480.084 165.649 481.457 165.038 483.065 164.342L483.029 164.732C482.304 164.223 481.525 163.676 480.716 163.106C479.843 162.482 479.007 161.883 478.23 161.326L478.582 161.177C478.15 164.531 477.752 166.91 477.612 166.885Z" fill="#FAFAFA"/>
<path d="M478.868 210.677C478.835 210.668 478.882 210.074 478.975 209.054C479.095 207.886 479.238 206.491 479.4 204.916L479.438 204.547L479.752 204.767C480.53 205.313 481.369 205.901 482.242 206.514C483.044 207.088 483.814 207.639 484.531 208.152L484.864 208.391L484.495 208.542C482.875 209.209 481.478 209.766 480.482 210.145C479.484 210.524 478.888 210.725 478.868 210.677C478.847 210.629 479.408 210.341 480.374 209.891C481.34 209.442 482.713 208.829 484.321 208.134L484.285 208.524C483.56 208.015 482.781 207.468 481.972 206.898C481.099 206.274 480.264 205.675 479.486 205.118L479.838 204.969C479.408 208.322 479.008 210.701 478.868 210.677Z" fill="#FAFAFA"/>
<path d="M502.6 174.069C502.568 174.061 502.614 173.467 502.707 172.447C502.827 171.279 502.971 169.884 503.133 168.309L503.171 167.939L503.484 168.159C504.263 168.706 505.101 169.294 505.975 169.907C506.777 170.48 507.546 171.032 508.264 171.544L508.596 171.782L508.227 171.935C506.607 172.602 505.21 173.159 504.214 173.537C503.217 173.917 502.621 174.117 502.6 174.069C502.579 174.021 503.14 173.734 504.106 173.283C505.072 172.833 506.446 172.221 508.054 171.526L508.018 171.916C507.292 171.407 506.513 170.86 505.704 170.29C504.832 169.665 503.996 169.067 503.218 168.51L503.571 168.36C503.14 171.715 502.741 174.093 502.6 174.069Z" fill="#FAFAFA"/>
<path d="M492.321 194.475C492.288 194.467 492.335 193.873 492.428 192.853C492.549 191.685 492.691 190.29 492.853 188.715L492.891 188.346L493.206 188.566C493.985 189.112 494.822 189.7 495.696 190.313C496.497 190.886 497.267 191.438 497.984 191.952L498.317 192.19L497.948 192.341C496.328 193.008 494.931 193.565 493.935 193.943C492.939 194.322 492.342 194.523 492.321 194.475C492.3 194.427 492.861 194.14 493.827 193.69C494.793 193.24 496.166 192.628 497.774 191.932L497.738 192.322C497.013 191.813 496.234 191.266 495.425 190.696C494.552 190.072 493.717 189.473 492.94 188.916L493.291 188.767C492.861 192.122 492.46 194.5 492.321 194.475Z" fill="#FAFAFA"/>
<path d="M500.899 203.927C500.866 203.918 500.913 203.324 501.006 202.304C501.126 201.136 501.269 199.741 501.432 198.166L501.469 197.797L501.783 198.017C502.562 198.563 503.4 199.151 504.274 199.764C505.075 200.337 505.845 200.889 506.562 201.402L506.895 201.641L506.526 201.792C504.906 202.459 503.509 203.016 502.513 203.395C501.514 203.774 500.919 203.974 500.899 203.927C500.879 203.88 501.439 203.591 502.405 203.141C503.371 202.692 504.745 202.079 506.352 201.384L506.316 201.774C505.591 201.265 504.812 200.718 504.003 200.148C503.13 199.525 502.295 198.926 501.517 198.368L501.87 198.219C501.437 201.572 501.039 203.951 500.899 203.927Z" fill="#FAFAFA"/>
<path d="M495.022 184.099C494.99 184.091 495.036 183.496 495.129 182.476C495.249 181.308 495.392 179.914 495.555 178.339L495.592 177.969L495.906 178.19C496.686 178.736 497.523 179.323 498.397 179.937C499.198 180.51 499.968 181.062 500.685 181.575L501.018 181.813L500.649 181.965C499.029 182.632 497.632 183.189 496.636 183.567C495.638 183.947 495.043 184.147 495.022 184.099C495.002 184.051 495.562 183.763 496.528 183.313C497.494 182.863 498.868 182.251 500.475 181.555L500.439 181.945C499.714 181.436 498.935 180.889 498.126 180.32C497.254 179.696 496.418 179.097 495.64 178.54L495.993 178.391C495.562 181.745 495.162 184.123 495.022 184.099Z" fill="#FAFAFA"/>
<path d="M467.542 196.252C467.509 196.244 467.556 195.65 467.648 194.629C467.769 193.461 467.912 192.067 468.073 190.493L468.112 190.123L468.426 190.343C469.204 190.889 470.042 191.478 470.916 192.09C471.717 192.665 472.488 193.215 473.205 193.728L473.538 193.967L473.168 194.119C471.548 194.785 470.151 195.342 469.155 195.722C468.158 196.1 467.561 196.3 467.542 196.252C467.522 196.205 468.08 195.917 469.047 195.467C470.013 195.017 471.387 194.405 472.995 193.709L472.958 194.099C472.232 193.591 471.455 193.043 470.645 192.474C469.773 191.85 468.937 191.251 468.16 190.694L468.511 190.545C468.08 193.898 467.68 196.277 467.542 196.252Z" fill="#FAFAFA"/>
<path d="M481.096 193.398C481.064 193.39 481.111 192.796 481.203 191.776C481.323 190.608 481.467 189.212 481.629 187.638L481.667 187.268L481.98 187.488C482.759 188.035 483.597 188.623 484.471 189.236C485.273 189.809 486.042 190.361 486.76 190.874L487.092 191.112L486.724 191.264C485.103 191.931 483.706 192.488 482.71 192.866C481.713 193.246 481.117 193.446 481.096 193.398C481.075 193.35 481.636 193.063 482.602 192.613C483.568 192.162 484.942 191.551 486.55 190.855L486.514 191.246C485.788 190.737 485.009 190.189 484.2 189.62C483.328 188.995 482.491 188.397 481.714 187.84L482.067 187.69C481.635 191.045 481.237 193.422 481.096 193.398Z" fill="#FAFAFA"/>
<path d="M457.504 190.171C457.472 190.163 457.519 189.568 457.612 188.548C457.732 187.38 457.875 185.986 458.037 184.411L458.075 184.041L458.389 184.262C459.167 184.808 460.005 185.397 460.879 186.009C461.681 186.583 462.45 187.134 463.168 187.647L463.5 187.886L463.131 188.037C461.51 188.704 460.114 189.261 459.118 189.64C458.121 190.019 457.524 190.219 457.504 190.171C457.485 190.124 458.043 189.835 459.009 189.385C459.976 188.935 461.35 188.323 462.958 187.627L462.921 188.017C462.195 187.508 461.418 186.961 460.607 186.392C459.736 185.768 458.9 185.169 458.123 184.612L458.475 184.463C458.043 187.817 457.643 190.196 457.504 190.171Z" fill="#FAFAFA"/>
<path d="M510.66 164.018C510.645 164.049 510.07 163.893 509.085 163.613C507.96 163.278 506.615 162.88 505.097 162.429L504.74 162.324L505.015 162.056C505.697 161.392 506.428 160.677 507.193 159.932C507.905 159.251 508.59 158.596 509.227 157.986L509.522 157.703L509.603 158.094C509.959 159.81 510.249 161.286 510.436 162.335C510.624 163.384 510.71 164.007 510.66 164.018C510.608 164.029 510.43 163.426 510.166 162.393C509.903 161.36 509.555 159.897 509.169 158.188L509.546 158.296C508.911 158.915 508.229 159.579 507.521 160.27C506.746 161.011 506.002 161.722 505.312 162.382L505.23 162.009C508.446 163.052 510.709 163.885 510.66 164.018Z" fill="#FAFAFA"/>
<path d="M450.669 190.495C447.306 190.165 443.277 189.699 441.207 189.198C437.356 188.266 437.425 187.916 437.599 187.48C438.067 186.312 444.43 188.862 443.36 187.515C442.289 186.167 435.238 185.309 435.777 184.109C436.479 182.546 443.096 185.337 443.672 185.533C444.232 185.721 444.528 184.894 443.999 184.746C443.238 184.534 435.302 182.106 435.978 180.564C436.352 179.709 437.814 180.566 437.814 180.566C437.814 180.566 445.086 183.39 445.381 182.65C445.679 181.899 441.462 180.096 440 179.59C438.554 179.089 438.187 178.192 438.924 177.731C439.427 177.415 443.939 178.861 445.374 179.396C446.81 179.931 450.722 181.469 449.368 179.129C448.014 176.789 447.832 174.492 448.207 173.843C448.583 173.195 449.618 173.509 449.704 174.341C449.774 175.014 450.233 176.105 450.609 176.911C450.92 177.576 451.335 178.188 451.845 178.714C452.286 179.169 452.69 179.558 453.06 179.901L456.272 182.935L454.039 190.812L450.669 190.495Z" fill="#FFBE9D"/>
</svg>
