<svg width="569" height="457" viewBox="0 0 569 457" fill="none" xmlns="http://www.w3.org/2000/svg">
<path d="M559.788 135.675C559.788 135.499 561.01 135.358 562.517 135.358C562.811 135.365 563.098 135.37 563.437 135.377L563.139 135.675C563.182 134.617 563.299 133.865 563.437 133.865C563.573 133.865 563.69 134.618 563.734 135.675L563.747 135.966L563.437 135.973C563.098 135.979 562.812 135.985 562.517 135.99C561.01 135.992 559.788 135.85 559.788 135.675Z" fill="#E0E0E0"/>
<path d="M554.319 135.991C555.326 135.991 556.143 135.849 556.143 135.674C556.143 135.499 555.326 135.357 554.319 135.357C553.312 135.357 552.495 135.499 552.495 135.674C552.495 135.849 553.312 135.991 554.319 135.991Z" fill="#E0E0E0"/>
<path d="M547.026 135.991C548.034 135.991 548.85 135.849 548.85 135.674C548.85 135.499 548.034 135.357 547.026 135.357C546.019 135.357 545.203 135.499 545.203 135.674C545.203 135.849 546.019 135.991 547.026 135.991Z" fill="#E0E0E0"/>
<path d="M539.729 135.991C540.736 135.991 541.552 135.849 541.552 135.674C541.552 135.499 540.736 135.357 539.729 135.357C538.721 135.357 537.905 135.499 537.905 135.674C537.905 135.849 538.721 135.991 539.729 135.991Z" fill="#E0E0E0"/>
<path d="M532.436 135.991C533.443 135.991 534.259 135.849 534.259 135.674C534.259 135.499 533.443 135.357 532.436 135.357C531.428 135.357 530.612 135.499 530.612 135.674C530.612 135.849 531.428 135.991 532.436 135.991Z" fill="#E0E0E0"/>
<path d="M525.143 135.991C526.15 135.991 526.967 135.849 526.967 135.674C526.967 135.499 526.15 135.357 525.143 135.357C524.136 135.357 523.319 135.499 523.319 135.674C523.319 135.849 524.136 135.991 525.143 135.991Z" fill="#E0E0E0"/>
<path d="M517.845 135.991C518.852 135.991 519.669 135.849 519.669 135.674C519.669 135.499 518.852 135.357 517.845 135.357C516.838 135.357 516.021 135.499 516.021 135.674C516.021 135.849 516.838 135.991 517.845 135.991Z" fill="#E0E0E0"/>
<path d="M510.552 135.991C511.559 135.991 512.376 135.849 512.376 135.674C512.376 135.499 511.559 135.357 510.552 135.357C509.545 135.357 508.729 135.499 508.729 135.674C508.729 135.849 509.545 135.991 510.552 135.991Z" fill="#E0E0E0"/>
<path d="M503.26 135.991C504.267 135.991 505.083 135.849 505.083 135.674C505.083 135.499 504.267 135.357 503.26 135.357C502.253 135.357 501.436 135.499 501.436 135.674C501.436 135.849 502.253 135.991 503.26 135.991Z" fill="#E0E0E0"/>
<path d="M495.967 135.991C496.974 135.991 497.79 135.849 497.79 135.674C497.79 135.499 496.974 135.357 495.967 135.357C494.96 135.357 494.143 135.499 494.143 135.674C494.143 135.849 494.96 135.991 495.967 135.991Z" fill="#E0E0E0"/>
<path d="M488.669 135.991C489.676 135.991 490.493 135.849 490.493 135.674C490.493 135.499 489.676 135.357 488.669 135.357C487.662 135.357 486.845 135.499 486.845 135.674C486.845 135.849 487.662 135.991 488.669 135.991Z" fill="#E0E0E0"/>
<path d="M481.376 135.991C482.384 135.991 483.2 135.849 483.2 135.674C483.2 135.499 482.384 135.357 481.376 135.357C480.369 135.357 479.553 135.499 479.553 135.674C479.553 135.849 480.369 135.991 481.376 135.991Z" fill="#E0E0E0"/>
<path d="M474.084 135.991C475.091 135.991 475.907 135.849 475.907 135.674C475.907 135.499 475.091 135.357 474.084 135.357C473.076 135.357 472.26 135.499 472.26 135.674C472.26 135.849 473.076 135.991 474.084 135.991Z" fill="#E0E0E0"/>
<path d="M466.784 135.991C467.791 135.991 468.607 135.849 468.607 135.674C468.607 135.499 467.791 135.357 466.784 135.357C465.776 135.357 464.96 135.499 464.96 135.674C464.96 135.849 465.776 135.991 466.784 135.991Z" fill="#E0E0E0"/>
<path d="M459.493 135.991C460.5 135.991 461.317 135.849 461.317 135.674C461.317 135.499 460.5 135.357 459.493 135.357C458.486 135.357 457.669 135.499 457.669 135.674C457.669 135.849 458.486 135.991 459.493 135.991Z" fill="#E0E0E0"/>
<path d="M452.2 135.991C453.207 135.991 454.024 135.849 454.024 135.674C454.024 135.499 453.207 135.357 452.2 135.357C451.193 135.357 450.376 135.499 450.376 135.674C450.376 135.849 451.193 135.991 452.2 135.991Z" fill="#E0E0E0"/>
<path d="M444.899 135.991C445.907 135.991 446.723 135.849 446.723 135.674C446.723 135.499 445.907 135.357 444.899 135.357C443.892 135.357 443.076 135.499 443.076 135.674C443.076 135.849 443.892 135.991 444.899 135.991Z" fill="#E0E0E0"/>
<path d="M437.607 135.991C438.614 135.991 439.431 135.849 439.431 135.674C439.431 135.499 438.614 135.357 437.607 135.357C436.6 135.357 435.783 135.499 435.783 135.674C435.783 135.849 436.6 135.991 437.607 135.991Z" fill="#E0E0E0"/>
<path d="M433.51 134.304C433.684 134.304 433.826 133.487 433.826 132.48C433.826 131.473 433.684 130.656 433.51 130.656C433.335 130.656 433.193 131.473 433.193 132.48C433.193 133.487 433.335 134.304 433.51 134.304Z" fill="#E0E0E0"/>
<path d="M433.51 127.011C433.684 127.011 433.826 126.194 433.826 125.187C433.826 124.18 433.684 123.363 433.51 123.363C433.335 123.363 433.193 124.18 433.193 125.187C433.193 126.194 433.335 127.011 433.51 127.011Z" fill="#E0E0E0"/>
<path d="M433.51 119.716C433.684 119.716 433.826 118.899 433.826 117.892C433.826 116.885 433.684 116.068 433.51 116.068C433.335 116.068 433.193 116.885 433.193 117.892C433.193 118.899 433.335 119.716 433.51 119.716Z" fill="#E0E0E0"/>
<path d="M433.51 112.423C433.684 112.423 433.826 111.606 433.826 110.599C433.826 109.592 433.684 108.775 433.51 108.775C433.335 108.775 433.193 109.592 433.193 110.599C433.193 111.606 433.335 112.423 433.51 112.423Z" fill="#E0E0E0"/>
<path d="M433.51 105.128C433.684 105.128 433.826 104.311 433.826 103.304C433.826 102.297 433.684 101.48 433.51 101.48C433.335 101.48 433.193 102.297 433.193 103.304C433.193 104.311 433.335 105.128 433.51 105.128Z" fill="#E0E0E0"/>
<path d="M433.51 97.833C433.684 97.833 433.826 97.0164 433.826 96.0092C433.826 95.002 433.684 94.1855 433.51 94.1855C433.335 94.1855 433.193 95.002 433.193 96.0092C433.193 97.0164 433.335 97.833 433.51 97.833Z" fill="#E0E0E0"/>
<path d="M433.51 90.538C433.684 90.538 433.826 89.7215 433.826 88.7143C433.826 87.7071 433.684 86.8906 433.51 86.8906C433.335 86.8906 433.193 87.7071 433.193 88.7143C433.193 89.7215 433.335 90.538 433.51 90.538Z" fill="#E0E0E0"/>
<path d="M433.51 83.2431C433.684 83.2431 433.826 82.4266 433.826 81.4194C433.826 80.4122 433.684 79.5957 433.51 79.5957C433.335 79.5957 433.193 80.4122 433.193 81.4194C433.193 82.4266 433.335 83.2431 433.51 83.2431Z" fill="#E0E0E0"/>
<path d="M433.51 75.9501C433.684 75.9501 433.826 75.1337 433.826 74.1265C433.826 73.1192 433.684 72.3027 433.51 72.3027C433.335 72.3027 433.193 73.1192 433.193 74.1265C433.193 75.1337 433.335 75.9501 433.51 75.9501Z" fill="#E0E0E0"/>
<path d="M433.51 68.6552C433.684 68.6552 433.826 67.8387 433.826 66.8315C433.826 65.8243 433.684 65.0078 433.51 65.0078C433.335 65.0078 433.193 65.8243 433.193 66.8315C433.193 67.8387 433.335 68.6552 433.51 68.6552Z" fill="#E0E0E0"/>
<path d="M433.51 61.3603C433.684 61.3603 433.826 60.5438 433.826 59.5366C433.826 58.5294 433.684 57.7129 433.51 57.7129C433.335 57.7129 433.193 58.5294 433.193 59.5366C433.193 60.5438 433.335 61.3603 433.51 61.3603Z" fill="#E0E0E0"/>
<path d="M433.51 54.0673C433.684 54.0673 433.826 53.2508 433.826 52.2436C433.826 51.2364 433.684 50.4199 433.51 50.4199C433.335 50.4199 433.193 51.2364 433.193 52.2436C433.193 53.2508 433.335 54.0673 433.51 54.0673Z" fill="#E0E0E0"/>
<path d="M433.51 46.7724C433.684 46.7724 433.826 45.9559 433.826 44.9487C433.826 43.9415 433.684 43.125 433.51 43.125C433.335 43.125 433.193 43.9415 433.193 44.9487C433.193 45.9559 433.335 46.7724 433.51 46.7724Z" fill="#E0E0E0"/>
<path d="M433.51 39.4795C433.684 39.4795 433.826 38.663 433.826 37.6557C433.826 36.6485 433.684 35.832 433.51 35.832C433.335 35.832 433.193 36.6485 433.193 37.6557C433.193 38.663 433.335 39.4795 433.51 39.4795Z" fill="#E0E0E0"/>
<path d="M433.51 32.1845C433.684 32.1845 433.826 31.368 433.826 30.3608C433.826 29.3536 433.684 28.5371 433.51 28.5371C433.335 28.5371 433.193 29.3536 433.193 30.3608C433.193 31.368 433.335 32.1845 433.51 32.1845Z" fill="#E0E0E0"/>
<path d="M433.51 24.8896C433.684 24.8896 433.826 24.0731 433.826 23.0659C433.826 22.0587 433.684 21.2422 433.51 21.2422C433.335 21.2422 433.193 22.0587 433.193 23.0659C433.193 24.0731 433.335 24.8896 433.51 24.8896Z" fill="#E0E0E0"/>
<path d="M433.51 17.5966C433.684 17.5966 433.826 16.7801 433.826 15.7729C433.826 14.7657 433.684 13.9492 433.51 13.9492C433.335 13.9492 433.193 14.7657 433.193 15.7729C433.193 16.7801 433.335 17.5966 433.51 17.5966Z" fill="#E0E0E0"/>
<path d="M433.51 10.2998C433.684 10.2998 433.826 9.48326 433.826 8.47605C433.826 7.46884 433.684 6.65234 433.51 6.65234C433.335 6.65234 433.193 7.46884 433.193 8.47605C433.193 9.48326 433.335 10.2998 433.51 10.2998Z" fill="#E0E0E0"/>
<path d="M438.077 6.06303C439.084 6.06303 439.9 5.92125 439.9 5.74636C439.9 5.57147 439.084 5.42969 438.077 5.42969C437.069 5.42969 436.253 5.57147 436.253 5.74636C436.253 5.92125 437.069 6.06303 438.077 6.06303Z" fill="#E0E0E0"/>
<path d="M445.37 6.06303C446.377 6.06303 447.193 5.92125 447.193 5.74636C447.193 5.57147 446.377 5.42969 445.37 5.42969C444.362 5.42969 443.546 5.57147 443.546 5.74636C443.546 5.92125 444.362 6.06303 445.37 6.06303Z" fill="#E0E0E0"/>
<path d="M452.662 6.06303C453.669 6.06303 454.486 5.92125 454.486 5.74636C454.486 5.57147 453.669 5.42969 452.662 5.42969C451.655 5.42969 450.838 5.57147 450.838 5.74636C450.838 5.92125 451.655 6.06303 452.662 6.06303Z" fill="#E0E0E0"/>
<path d="M459.955 6.06303C460.962 6.06303 461.779 5.92125 461.779 5.74636C461.779 5.57147 460.962 5.42969 459.955 5.42969C458.948 5.42969 458.131 5.57147 458.131 5.74636C458.131 5.92125 458.948 6.06303 459.955 6.06303Z" fill="#E0E0E0"/>
<path d="M467.253 6.06303C468.26 6.06303 469.077 5.92125 469.077 5.74636C469.077 5.57147 468.26 5.42969 467.253 5.42969C466.246 5.42969 465.429 5.57147 465.429 5.74636C465.429 5.92125 466.246 6.06303 467.253 6.06303Z" fill="#E0E0E0"/>
<path d="M474.545 6.06303C475.553 6.06303 476.369 5.92125 476.369 5.74636C476.369 5.57147 475.553 5.42969 474.545 5.42969C473.538 5.42969 472.722 5.57147 472.722 5.74636C472.722 5.92125 473.538 6.06303 474.545 6.06303Z" fill="#E0E0E0"/>
<path d="M481.838 6.06303C482.846 6.06303 483.662 5.92125 483.662 5.74636C483.662 5.57147 482.846 5.42969 481.838 5.42969C480.831 5.42969 480.015 5.57147 480.015 5.74636C480.015 5.92125 480.831 6.06303 481.838 6.06303Z" fill="#E0E0E0"/>
<path d="M489.139 6.06303C490.146 6.06303 490.962 5.92125 490.962 5.74636C490.962 5.57147 490.146 5.42969 489.139 5.42969C488.131 5.42969 487.315 5.57147 487.315 5.74636C487.315 5.92125 488.131 6.06303 489.139 6.06303Z" fill="#E0E0E0"/>
<path d="M496.431 6.06303C497.438 6.06303 498.255 5.92125 498.255 5.74636C498.255 5.57147 497.438 5.42969 496.431 5.42969C495.424 5.42969 494.607 5.57147 494.607 5.74636C494.607 5.92125 495.424 6.06303 496.431 6.06303Z" fill="#E0E0E0"/>
<path d="M503.724 6.06303C504.731 6.06303 505.547 5.92125 505.547 5.74636C505.547 5.57147 504.731 5.42969 503.724 5.42969C502.716 5.42969 501.9 5.57147 501.9 5.74636C501.9 5.92125 502.716 6.06303 503.724 6.06303Z" fill="#E0E0E0"/>
<path d="M511.023 6.06303C512.03 6.06303 512.847 5.92125 512.847 5.74636C512.847 5.57147 512.03 5.42969 511.023 5.42969C510.016 5.42969 509.199 5.57147 509.199 5.74636C509.199 5.92125 510.016 6.06303 511.023 6.06303Z" fill="#E0E0E0"/>
<path d="M518.315 6.06303C519.323 6.06303 520.139 5.92125 520.139 5.74636C520.139 5.57147 519.323 5.42969 518.315 5.42969C517.308 5.42969 516.492 5.57147 516.492 5.74636C516.492 5.92125 517.308 6.06303 518.315 6.06303Z" fill="#E0E0E0"/>
<path d="M525.608 6.06303C526.615 6.06303 527.432 5.92125 527.432 5.74636C527.432 5.57147 526.615 5.42969 525.608 5.42969C524.601 5.42969 523.784 5.57147 523.784 5.74636C523.784 5.92125 524.601 6.06303 525.608 6.06303Z" fill="#E0E0E0"/>
<path d="M532.899 6.06303C533.907 6.06303 534.723 5.92125 534.723 5.74636C534.723 5.57147 533.907 5.42969 532.899 5.42969C531.892 5.42969 531.076 5.57147 531.076 5.74636C531.076 5.92125 531.892 6.06303 532.899 6.06303Z" fill="#E0E0E0"/>
<path d="M540.192 6.06303C541.199 6.06303 542.016 5.92125 542.016 5.74636C542.016 5.57147 541.199 5.42969 540.192 5.42969C539.185 5.42969 538.368 5.57147 538.368 5.74636C538.368 5.92125 539.185 6.06303 540.192 6.06303Z" fill="#E0E0E0"/>
<path d="M547.492 6.06303C548.499 6.06303 549.316 5.92125 549.316 5.74636C549.316 5.57147 548.499 5.42969 547.492 5.42969C546.485 5.42969 545.668 5.57147 545.668 5.74636C545.668 5.92125 546.485 6.06303 547.492 6.06303Z" fill="#E0E0E0"/>
<path d="M554.784 6.06303C555.791 6.06303 556.607 5.92125 556.607 5.74636C556.607 5.57147 555.791 5.42969 554.784 5.42969C553.776 5.42969 552.96 5.57147 552.96 5.74636C552.96 5.92125 553.776 6.06303 554.784 6.06303Z" fill="#E0E0E0"/>
<path d="M563.434 6.2131C563.354 6.2131 563.281 6.03886 563.225 5.74763L563.434 5.95747C563.105 6.02233 562.618 6.06303 562.076 6.06303C561.069 6.06303 560.252 5.92186 560.252 5.74636C560.252 5.57213 561.069 5.42969 562.076 5.42969C562.619 5.42969 563.106 5.47038 563.434 5.53524L563.675 5.58357L563.644 5.74636C563.588 6.04013 563.515 6.2131 563.434 6.2131Z" fill="#E0E0E0"/>
<path d="M563.442 13.5068C563.617 13.5068 563.758 12.6903 563.758 11.6831C563.758 10.6759 563.617 9.85938 563.442 9.85938C563.267 9.85938 563.125 10.6759 563.125 11.6831C563.125 12.6903 563.267 13.5068 563.442 13.5068Z" fill="#E0E0E0"/>
<path d="M563.442 20.8037C563.617 20.8037 563.758 19.9872 563.758 18.98C563.758 17.9727 563.617 17.1562 563.442 17.1562C563.267 17.1562 563.125 17.9727 563.125 18.98C563.125 19.9872 563.267 20.8037 563.442 20.8037Z" fill="#E0E0E0"/>
<path d="M563.442 28.0966C563.617 28.0966 563.758 27.2801 563.758 26.2729C563.758 25.2657 563.617 24.4492 563.442 24.4492C563.267 24.4492 563.125 25.2657 563.125 26.2729C563.125 27.2801 563.267 28.0966 563.442 28.0966Z" fill="#E0E0E0"/>
<path d="M563.442 35.3916C563.617 35.3916 563.758 34.5751 563.758 33.5678C563.758 32.5606 563.617 31.7441 563.442 31.7441C563.267 31.7441 563.125 32.5606 563.125 33.5678C563.125 34.5751 563.267 35.3916 563.442 35.3916Z" fill="#E0E0E0"/>
<path d="M563.442 42.6845C563.617 42.6845 563.758 41.868 563.758 40.8608C563.758 39.8536 563.617 39.0371 563.442 39.0371C563.267 39.0371 563.125 39.8536 563.125 40.8608C563.125 41.868 563.267 42.6845 563.442 42.6845Z" fill="#E0E0E0"/>
<path d="M563.442 49.9795C563.617 49.9795 563.758 49.1629 563.758 48.1557C563.758 47.1485 563.617 46.332 563.442 46.332C563.267 46.332 563.125 47.1485 563.125 48.1557C563.125 49.1629 563.267 49.9795 563.442 49.9795Z" fill="#E0E0E0"/>
<path d="M563.442 57.2744C563.617 57.2744 563.758 56.4579 563.758 55.4507C563.758 54.4435 563.617 53.627 563.442 53.627C563.267 53.627 563.125 54.4435 563.125 55.4507C563.125 56.4579 563.267 57.2744 563.442 57.2744Z" fill="#E0E0E0"/>
<path d="M563.442 64.5673C563.617 64.5673 563.758 63.7508 563.758 62.7436C563.758 61.7364 563.617 60.9199 563.442 60.9199C563.267 60.9199 563.125 61.7364 563.125 62.7436C563.125 63.7508 563.267 64.5673 563.442 64.5673Z" fill="#E0E0E0"/>
<path d="M563.442 71.8623C563.617 71.8623 563.758 71.0458 563.758 70.0386C563.758 69.0314 563.617 68.2148 563.442 68.2148C563.267 68.2148 563.125 69.0314 563.125 70.0386C563.125 71.0458 563.267 71.8623 563.442 71.8623Z" fill="#E0E0E0"/>
<path d="M563.442 79.1572C563.617 79.1572 563.758 78.3407 563.758 77.3335C563.758 76.3263 563.617 75.5098 563.442 75.5098C563.267 75.5098 563.125 76.3263 563.125 77.3335C563.125 78.3407 563.267 79.1572 563.442 79.1572Z" fill="#E0E0E0"/>
<path d="M563.442 86.4521C563.617 86.4521 563.758 85.6356 563.758 84.6284C563.758 83.6212 563.617 82.8047 563.442 82.8047C563.267 82.8047 563.125 83.6212 563.125 84.6284C563.125 85.6356 563.267 86.4521 563.442 86.4521Z" fill="#E0E0E0"/>
<path d="M563.442 93.7451C563.617 93.7451 563.758 92.9286 563.758 91.9214C563.758 90.9142 563.617 90.0977 563.442 90.0977C563.267 90.0977 563.125 90.9142 563.125 91.9214C563.125 92.9286 563.267 93.7451 563.442 93.7451Z" fill="#E0E0E0"/>
<path d="M563.442 101.04C563.617 101.04 563.758 100.224 563.758 99.2163C563.758 98.2091 563.617 97.3926 563.442 97.3926C563.267 97.3926 563.125 98.2091 563.125 99.2163C563.125 100.224 563.267 101.04 563.442 101.04Z" fill="#E0E0E0"/>
<path d="M563.442 108.335C563.617 108.335 563.758 107.518 563.758 106.511C563.758 105.504 563.617 104.688 563.442 104.688C563.267 104.688 563.125 105.504 563.125 106.511C563.125 107.518 563.267 108.335 563.442 108.335Z" fill="#E0E0E0"/>
<path d="M563.442 115.628C563.617 115.628 563.758 114.811 563.758 113.804C563.758 112.797 563.617 111.98 563.442 111.98C563.267 111.98 563.125 112.797 563.125 113.804C563.125 114.811 563.267 115.628 563.442 115.628Z" fill="#E0E0E0"/>
<path d="M563.442 122.923C563.617 122.923 563.758 122.106 563.758 121.099C563.758 120.092 563.617 119.275 563.442 119.275C563.267 119.275 563.125 120.092 563.125 121.099C563.125 122.106 563.267 122.923 563.442 122.923Z" fill="#E0E0E0"/>
<path d="M563.442 130.216C563.617 130.216 563.758 129.399 563.758 128.392C563.758 127.385 563.617 126.568 563.442 126.568C563.267 126.568 563.125 127.385 563.125 128.392C563.125 129.399 563.267 130.216 563.442 130.216Z" fill="#E0E0E0"/>
<path d="M568.247 129.547H558.625V139.169H568.247V129.547Z" fill="#E0E0E0"/>
<path d="M438.32 130.863H428.698V140.485H438.32V130.863Z" fill="#E0E0E0"/>
<path d="M568.247 0H558.625V9.62216H568.247V0Z" fill="#E0E0E0"/>
<path d="M438.32 0.9375H428.698V10.5597H438.32V0.9375Z" fill="#E0E0E0"/>
<g opacity="0.3">
<path opacity="0.3" d="M561.172 234.094C564.331 233.484 567.54 231.308 568.565 228.461H548.445V234.696C548.496 234.688 548.546 234.673 548.598 234.666C552.751 234.03 557.045 234.888 561.172 234.094Z" fill="white"/>
</g>
<path d="M58.5748 339.559C63.8958 336.815 70.1567 336.459 76.064 337.434C79.2358 337.958 82.545 338.907 84.7031 341.29C86.8613 343.674 87.2695 347.868 84.7921 349.914C83.3144 351.134 81.2579 351.318 79.3452 351.296C74.7223 351.243 69.5933 350.428 65.9001 353.21C63.7915 354.798 62.39 357.435 59.8694 358.216C57.4047 358.98 54.6234 357.526 53.3173 355.301C52.0112 353.077 51.9679 350.296 52.5771 347.789C52.5758 347.789 53.2168 342.324 58.5748 339.559Z" fill="#EBEBEB"/>
<path d="M46.3934 316.034C49.6478 320.678 55.9685 319.141 58.8999 316.306C61.8313 313.471 63.0674 309.361 64.1955 305.441C66.7734 296.487 69.3716 287.093 67.455 277.975C66.884 275.248 65.8628 272.53 63.9475 270.508C62.0322 268.485 59.0868 267.282 56.3945 267.993C53.2075 268.835 51.2261 271.957 49.7953 274.926C45.5845 283.656 43.3564 293.334 43.3246 303.025C43.3081 307.551 43.8397 312.297 46.3934 316.034Z" fill="#EBEBEB"/>
<path d="M37.459 322.699C40.9907 318.508 41.6622 312.394 40.0891 307.144C38.5197 301.893 34.9677 297.427 30.8764 293.781C26.0806 289.505 20.4416 286.177 14.3778 284.047C11.9933 283.207 9.47644 282.546 6.95834 282.786C4.44152 283.025 1.90563 284.314 0.731795 286.553C-1.00289 289.865 0.660567 293.881 2.46138 297.158C5.63316 302.931 9.26024 308.454 13.2968 313.66C16.5436 317.846 20.2648 321.977 25.2145 323.869C30.1655 325.76 35.3072 325.539 37.9296 322.105" fill="#EBEBEB"/>
<path d="M46.162 386.109C46.2243 386.112 46.3235 385.36 46.4571 383.998C46.6059 382.462 46.7953 380.533 47.0179 378.238C47.2862 375.814 47.6385 372.929 48.3126 369.788C48.9853 366.654 50.0358 363.258 51.3851 359.814C52.7815 356.391 54.4857 353.279 56.4773 350.79C58.4549 348.29 60.7542 346.48 62.9162 345.437C65.0693 344.373 67.0024 343.94 68.339 343.75C69.6858 343.611 70.44 343.505 70.44 343.446C70.44 343.385 69.6845 343.376 68.3009 343.413C66.9299 343.504 64.918 343.851 62.6479 344.884C60.3702 345.894 57.9309 347.731 55.8567 350.283C53.7646 352.824 51.9994 356.004 50.5763 359.488C49.2053 362.993 48.1689 366.423 47.5292 369.625C46.8882 372.821 46.5982 375.737 46.4062 378.181C46.2218 380.628 46.1531 382.608 46.12 383.978C46.087 385.346 46.1048 386.106 46.162 386.109Z" fill="#E0E0E0"/>
<path d="M46.5574 381.676C46.5866 381.674 46.607 381.337 46.6146 380.696C46.6121 379.96 46.6095 379.032 46.607 377.894C46.5993 375.464 46.6019 371.946 46.7316 367.603C46.9478 358.916 47.6956 349.564 49.1416 336.384C50.51 323.989 52.3464 309.564 54.2833 300.186C54.6979 298.052 55.1176 296.133 55.5106 294.453C55.8883 292.767 56.2088 291.315 56.5165 290.14C56.7849 289.034 57.0011 288.133 57.1728 287.417C57.3114 286.791 57.3737 286.458 57.3445 286.449C57.3152 286.442 57.1982 286.757 57.0036 287.369C56.79 288.075 56.5216 288.962 56.191 290.052C55.8285 291.216 55.461 292.659 55.0387 294.337C54.5987 296.01 54.1371 297.926 53.6805 300.056C51.7652 308.554 49.733 320.431 48.2755 333.643C46.827 346.853 46.1771 358.88 46.1173 367.588C46.0677 371.942 46.1593 375.468 46.2712 377.899C46.3412 379.038 46.3958 379.963 46.4404 380.698C46.4887 381.343 46.5281 381.678 46.5574 381.676Z" fill="#E0E0E0"/>
<path d="M46.6254 358.481C46.6852 358.478 46.675 357.439 46.6025 355.554C46.4957 353.673 46.2375 350.957 45.7085 347.627C45.1476 344.307 44.3617 340.363 43.1306 336.078C42.5965 334.12 41.3425 329.426 38.2992 322.412C34.2957 312.908 28.8525 305.14 24.1165 300.328C23.0062 299.05 21.7688 298.129 20.7807 297.226C20.2694 296.794 19.8167 296.361 19.355 296.021C18.8934 295.701 18.461 295.405 18.0604 295.129C16.5024 294.063 15.6313 293.501 15.5982 293.552C15.4571 293.741 19.0879 295.878 23.6714 300.755C28.237 305.621 33.5275 313.337 37.5018 322.761C39.7172 327.872 41.2624 332.431 42.3574 336.3C43.6241 340.544 44.466 344.447 45.0993 347.734C45.7059 351.031 46.0531 353.72 46.2643 355.584C46.4398 357.449 46.5657 358.483 46.6254 358.481Z" fill="#E0E0E0"/>
<path d="M24.2119 399.398L26.5367 431.243H67.4468L69.7716 399.398H24.2119Z" fill="#E0E0E0"/>
<path d="M74.6472 386.848H20.2539V399.399H74.6472V386.848Z" fill="#E0E0E0"/>
<path d="M20.2539 430.025V433.504H22.8101H73.7481V430.025H20.2539Z" fill="#EBEBEB"/>
<path d="M25.3099 439.629L22.8032 433.504H71.7928L68.8703 439.629H25.3099Z" fill="#E0E0E0"/>
<path d="M69.0058 409.807C69.016 409.815 68.9486 409.914 68.8151 410.1C68.6536 410.315 68.4526 410.582 68.2046 410.911C67.6234 411.655 66.826 412.677 65.8226 413.96L65.7158 414.096L65.614 413.953C64.1159 411.882 62.1142 409.114 59.7576 405.856H60.0959C58.3548 408.322 56.4141 411.07 54.3309 414.018L54.1516 414.274L53.9481 414.035C51.8218 411.504 49.5122 408.754 47.1124 405.901L47.5079 405.896C47.3884 406.044 47.26 406.206 47.1302 406.369C45.0115 409.027 42.9576 411.598 41.0169 414.031L40.8134 414.287L40.6252 414.021C38.5509 411.083 36.6115 408.341 34.8603 405.86L35.196 405.876C32.3523 409.116 29.9423 411.861 28.0919 413.969L27.9648 414.112L27.8706 413.951C26.9346 412.378 26.1868 411.122 25.6451 410.214C25.4136 409.81 25.2254 409.482 25.0766 409.22C24.9494 408.992 24.8909 408.873 24.8998 408.865C24.9125 408.859 24.9914 408.967 25.1389 409.18C25.3055 409.432 25.5141 409.748 25.7697 410.138C26.3382 411.031 27.1228 412.262 28.1046 413.807L27.8834 413.788C29.7045 411.655 32.0764 408.875 34.873 405.598L35.0472 405.392L35.2087 405.614C36.9777 408.083 38.9324 410.815 41.0258 413.738L40.6353 413.727C42.5697 411.29 44.6172 408.715 46.7334 406.053C46.8631 405.89 46.9891 405.729 47.1086 405.58L47.3019 405.336L47.5029 405.575C49.895 408.434 52.1995 411.189 54.3208 413.724L53.938 413.74C56.0389 410.806 57.9987 408.073 59.7576 405.618L59.9293 405.379L60.0959 405.618C62.4028 408.912 64.3613 411.71 65.8264 413.805L65.6204 413.798C66.6632 412.547 67.4937 411.55 68.0991 410.826C68.3674 410.515 68.5861 410.263 68.7616 410.058C68.9143 409.884 68.9956 409.8 69.0058 409.807Z" fill="#F5F5F5"/>
<path d="M70.3345 399.19C70.3345 399.33 60.0828 399.444 47.4427 399.444C34.795 399.444 24.5459 399.33 24.5459 399.19C24.5459 399.05 34.795 398.936 47.4427 398.936C60.0828 398.936 70.3345 399.05 70.3345 399.19Z" fill="#F5F5F5"/>
<path d="M72.4079 433.848C72.4079 433.988 61.2672 434.102 47.5283 434.102C33.7819 434.102 22.645 433.988 22.645 433.848C22.645 433.707 33.7831 433.594 47.5283 433.594C61.2672 433.594 72.4079 433.707 72.4079 433.848Z" fill="#F5F5F5"/>
<path d="M70.3156 129.336C72.1025 129.561 73.8295 130.023 75.4561 130.693L79.2345 127.526L85.7243 132.467L83.6806 136.953C84.7616 138.341 85.6671 139.881 86.359 141.545L91.268 141.977L92.3642 150.059L87.749 151.784C87.5264 153.571 87.0622 155.298 86.3907 156.924L89.5574 160.703L84.6192 167.194L80.1337 165.15C78.7449 166.231 77.2035 167.135 75.5401 167.827L75.1089 172.735L67.0269 173.832L65.3024 169.215C63.5155 168.992 61.7898 168.529 60.1619 167.858L56.3835 171.024L49.8924 166.085L51.9387 161.599C50.8577 160.211 49.9534 158.668 49.2603 157.007L44.3526 156.573L43.2563 148.493L47.8716 146.768C48.0954 144.981 48.5583 143.253 49.2298 141.628L46.0631 137.848L51.0014 131.358L55.4869 133.402C56.8757 132.321 58.417 131.415 60.0805 130.725L60.5129 125.817L68.5937 124.721L70.3156 129.336ZM66.9976 140.558C62.2094 141.208 58.8545 145.616 59.5031 150.404C60.1517 155.192 64.5622 158.546 69.3491 157.898C74.1373 157.247 77.4922 152.839 76.8423 148.052C76.1937 143.263 71.7858 139.908 66.9976 140.558Z" fill="#EB996E"/>
<path d="M66.9933 140.558C66.9895 140.533 67.179 140.493 67.544 140.44C67.909 140.379 68.4584 140.348 69.1617 140.405C70.5466 140.505 72.6704 141.072 74.5247 142.87C76.3726 144.598 77.7562 147.759 77.0301 151.144C76.6892 152.81 75.8257 154.476 74.4814 155.762C73.1614 157.076 71.3478 157.965 69.3944 158.247C67.4359 158.496 65.4494 158.122 63.8279 157.209C62.1886 156.328 60.913 154.952 60.1398 153.437C58.5373 150.367 59.0295 146.951 60.3509 144.793C61.6595 142.566 63.5557 141.453 64.8631 140.989C65.5257 140.747 66.0636 140.63 66.4312 140.591C66.7974 140.545 66.9895 140.533 66.9933 140.558C67.0073 140.633 66.2264 140.709 64.9648 141.243C63.7261 141.771 61.966 142.906 60.7833 145.04C59.5891 147.11 59.1974 150.304 60.7146 153.133C61.4459 154.531 62.6388 155.795 64.1585 156.601C65.663 157.438 67.4918 157.776 69.299 157.547C71.1011 157.284 72.7735 156.472 74.0007 155.265C75.2483 154.083 76.061 152.547 76.3942 151.007C77.1013 147.874 75.874 144.9 74.1711 143.222C72.4644 141.48 70.4639 140.856 69.1299 140.678C67.7716 140.5 66.9984 140.633 66.9933 140.558Z" fill="#EB996E"/>
<path d="M70.3129 129.336C70.3066 129.345 70.2634 129.252 70.1832 129.061C70.0917 128.838 69.9759 128.555 69.8322 128.199C69.5117 127.381 69.0628 126.237 68.4816 124.759L68.6024 124.831C66.5244 125.132 63.8091 125.522 60.5305 125.994L60.6844 125.832C60.5623 127.323 60.4263 128.975 60.28 130.743L60.2698 130.867L60.1528 130.917C58.6305 131.56 57.0853 132.439 55.6215 133.588L55.5122 133.673L55.3825 133.614C53.981 132.983 52.465 132.298 50.888 131.587L51.192 131.51C49.643 133.558 47.9999 135.733 46.2741 138.015L46.2665 137.669C47.2495 138.836 48.3331 140.122 49.4433 141.438L49.5565 141.573L49.4891 141.737C48.8697 143.244 48.3839 144.985 48.1639 146.804L48.141 146.987L47.9681 147.053C46.5386 147.591 44.9616 148.184 43.3567 148.786L43.5589 148.449C43.9073 150.988 44.2838 153.723 44.6691 156.53L44.3728 156.247C45.9014 156.379 47.5802 156.525 49.2818 156.671L49.484 156.689L49.5629 156.877C50.1936 158.389 51.0852 159.96 52.2018 161.39L52.3289 161.552L52.2425 161.741C51.6028 163.146 50.9058 164.68 50.2013 166.227L50.0957 165.809C52.1522 167.372 54.3549 169.047 56.5881 170.745L56.1506 170.755C57.3435 169.754 58.6318 168.676 59.9277 167.588L60.0918 167.451L60.2889 167.532C61.8227 168.167 63.5548 168.644 65.334 168.865H65.3353H65.3365C65.465 168.967 65.0504 168.639 65.6252 169.093L65.6265 169.098L65.6303 169.107L65.6367 169.126L65.6507 169.161L65.6774 169.234L65.7321 169.38L65.8402 169.671L66.0563 170.251L66.4888 171.409C66.7762 172.178 67.0636 172.946 67.3485 173.71L66.9708 173.484C69.7012 173.114 72.3974 172.749 75.0528 172.39L74.7514 172.706C74.8977 171.054 75.0426 169.418 75.1863 167.798L75.2054 167.588L75.3987 167.508C77.0317 166.83 78.5527 165.939 79.916 164.881L80.0801 164.753L80.2683 164.839C81.7842 165.532 83.2773 166.213 84.7513 166.887L84.3443 166.99C86.0332 164.778 87.6827 162.616 89.2915 160.507L89.3016 160.911C88.2295 159.628 87.1765 158.368 86.1413 157.128L86.0179 156.98L86.0917 156.802C86.7772 155.152 87.2236 153.444 87.4398 151.745L87.464 151.56L87.6369 151.495C89.2215 150.908 90.7566 150.338 92.256 149.781L92.0677 150.095C91.6913 147.253 91.3339 144.567 90.9956 142.012L91.2398 142.244C89.5153 142.087 87.8951 141.938 86.3333 141.796L86.1795 141.78L86.121 141.639C85.405 139.907 84.5033 138.402 83.4935 137.091L83.407 136.979L83.4655 136.852C84.2159 135.227 84.8924 133.762 85.5321 132.376L85.5957 132.629C83.0967 130.701 80.9652 129.059 79.1364 127.648L79.3336 127.643C77.8176 128.891 76.5713 129.916 75.5272 130.776L75.4738 130.82L75.4114 130.794C73.7632 130.1 72.4648 129.785 71.6051 129.597C71.1994 129.517 70.8814 129.454 70.6347 129.406C70.4083 129.368 70.3079 129.344 70.3129 129.336C70.3193 129.33 70.4338 129.334 70.6423 129.35C70.8598 129.374 71.1892 129.411 71.6254 129.486C72.4966 129.637 73.8154 129.919 75.4967 130.589L75.3809 130.607C76.4085 129.729 77.6358 128.681 79.1301 127.406L79.2255 127.325L79.3285 127.403C81.1751 128.789 83.3256 130.406 85.8488 132.302L85.9811 132.401L85.9124 132.555C85.2867 133.946 84.6241 135.416 83.889 137.049L83.861 136.81C84.9052 138.143 85.8437 139.675 86.5903 141.448L86.3779 141.292C87.9409 141.425 89.5611 141.563 91.2882 141.709L91.5031 141.727L91.5323 141.942C91.8859 144.497 92.2572 147.179 92.6515 150.021L92.6833 150.253L92.4633 150.335C90.9664 150.899 89.4339 151.476 87.8531 152.071L88.049 151.825C87.834 153.576 87.3813 155.341 86.6793 157.047L86.6297 156.722C87.6687 157.958 88.7255 159.216 89.8027 160.496L89.9693 160.694L89.8116 160.901C88.2092 163.014 86.5648 165.179 84.8823 167.397L84.7208 167.611L84.4753 167.499C83.0001 166.829 81.5057 166.15 79.9873 165.459L80.3383 165.419C78.9304 166.516 77.3572 167.442 75.6683 168.146L75.8807 167.857C75.7396 169.475 75.5958 171.113 75.4521 172.764L75.428 173.043L75.1507 173.081C72.494 173.442 69.7992 173.81 67.0687 174.18L66.7889 174.219L66.6897 173.953C66.4035 173.19 66.1174 172.423 65.83 171.653L65.3976 170.495L65.1814 169.914L65.0733 169.623L65.0199 169.479L64.9932 169.406L64.9792 169.37L64.9728 169.351L64.969 169.342L64.9677 169.337C65.5413 169.79 65.1267 169.463 65.2539 169.563H65.2526H65.2501C63.406 169.334 61.6115 168.841 60.0244 168.182L60.3856 168.126C59.0871 169.212 57.7988 170.291 56.6059 171.292L56.391 171.472L56.1684 171.302C53.9377 169.6 51.735 167.924 49.6811 166.358L49.4611 166.189L49.5768 165.939C50.2839 164.391 50.9834 162.858 51.6256 161.456L51.6664 161.805C50.5141 160.325 49.5959 158.699 48.9486 157.133L49.2284 157.336C47.528 157.185 45.8493 157.035 44.3206 156.898L44.0587 156.874L44.0243 156.613C43.6479 153.807 43.2816 151.069 42.9408 148.531L42.9077 148.28L43.143 148.194C44.7518 147.597 46.33 147.011 47.762 146.479L47.5675 146.725C47.804 144.849 48.3114 143.058 48.9575 141.511L49.0033 141.808C47.9007 140.484 46.8248 139.194 45.848 138.02L45.7056 137.848L45.8404 137.672C47.5802 135.401 49.2373 133.239 50.8003 131.199L50.9224 131.039L51.1042 131.122C52.6749 131.845 54.1857 132.541 55.5821 133.184L55.343 133.211C56.8501 132.05 58.4385 131.167 59.9989 130.526L59.8718 130.699C60.0371 128.933 60.1923 127.281 60.3322 125.794L60.3461 125.65L60.4873 125.631C63.7735 125.214 66.4951 124.866 68.577 124.601L68.6686 124.59L68.6978 124.673C69.2231 126.149 69.63 127.295 69.92 128.111C70.0459 128.481 70.1463 128.775 70.2265 129.008C70.2875 129.222 70.3193 129.33 70.3129 129.336Z" fill="#EB996E"/>
<path d="M53.2214 190.917C53.2201 190.901 53.3371 190.876 53.5673 190.842C53.7963 190.804 54.1422 190.784 54.5835 190.819C55.4534 190.882 56.7862 191.239 57.9524 192.368C59.1135 193.453 59.9821 195.438 59.5255 197.565C59.3106 198.61 58.7688 199.658 57.9244 200.464C57.0952 201.288 55.9557 201.848 54.7297 202.025C53.4999 202.182 52.2523 201.947 51.2324 201.372C50.2035 200.819 49.4023 199.956 48.9165 199.004C47.9105 197.076 48.2196 194.931 49.0488 193.575C49.8703 192.176 51.062 191.478 51.8835 191.186C52.2994 191.033 52.6377 190.96 52.8679 190.936C53.0981 190.908 53.2189 190.902 53.2214 190.917C53.2303 190.963 52.7407 191.011 51.9471 191.347C51.1701 191.679 50.0636 192.39 49.3222 193.732C48.5719 195.03 48.3264 197.038 49.279 198.815C49.7381 199.691 50.4871 200.485 51.441 200.992C52.3859 201.519 53.5343 201.73 54.67 201.586C55.8018 201.422 56.8523 200.912 57.6217 200.153C58.4064 199.411 58.9164 198.446 59.1249 197.479C59.5701 195.511 58.7994 193.644 57.7298 192.591C56.6577 191.496 55.4012 191.103 54.5644 190.991C53.711 190.88 53.2252 190.964 53.2214 190.917Z" fill="#263238"/>
<path d="M55.3081 183.871C55.3043 183.875 55.2776 183.816 55.2267 183.697C55.1695 183.558 55.097 183.379 55.0067 183.155C54.8058 182.644 54.5235 181.923 54.1585 180.997L54.2348 181.041C52.9287 181.228 51.2245 181.475 49.1655 181.771L49.2622 181.67C49.1846 182.604 49.0994 183.643 49.0078 184.754L49.0015 184.833L48.9277 184.862C47.9726 185.266 47.001 185.818 46.0828 186.538L46.0141 186.593L45.934 186.557C45.0539 186.16 44.1014 185.732 43.1119 185.284L43.3027 185.236C42.3298 186.524 41.2971 187.887 40.2136 189.321L40.2085 189.103C40.8266 189.837 41.507 190.644 42.2039 191.471L42.2751 191.555L42.2331 191.658C41.844 192.604 41.54 193.698 41.4001 194.84L41.3861 194.956L41.2768 194.995C40.3789 195.333 39.3895 195.706 38.381 196.085L38.5081 195.873C38.7269 197.466 38.9634 199.184 39.2051 200.947L39.0194 200.769C39.9796 200.85 41.0339 200.943 42.1021 201.036L42.2293 201.047L42.2789 201.166C42.6757 202.116 43.234 203.101 43.936 203.999L44.0161 204.102L43.9627 204.221C43.5609 205.103 43.1234 206.066 42.6808 207.039L42.6147 206.777C43.9055 207.757 45.2892 208.81 46.6919 209.876L46.4172 209.884C47.1663 209.255 47.9752 208.578 48.7904 207.895L48.8934 207.808L49.018 207.86C49.982 208.258 51.0694 208.559 52.186 208.696L52.1872 208.697C52.2673 208.761 52.0079 208.555 52.3691 208.84V208.842L52.3716 208.847L52.3755 208.86L52.3843 208.883L52.4022 208.929L52.4365 209.019L52.5052 209.202L52.6413 209.567L52.9121 210.293C53.0927 210.778 53.2733 211.26 53.4514 211.739L53.2148 211.598C54.9304 211.364 56.6231 211.136 58.2904 210.91L58.1009 211.108C58.1925 210.071 58.2841 209.043 58.3744 208.026L58.3858 207.893L58.5079 207.843C59.5342 207.418 60.488 206.858 61.3439 206.193L61.4469 206.113L61.5652 206.168C62.5178 206.603 63.455 207.031 64.3809 207.455L64.1253 207.519C65.1859 206.129 66.2224 204.772 67.2322 203.449L67.2386 203.703C66.5645 202.897 65.9032 202.104 65.2533 201.327L65.1757 201.234L65.2228 201.124C65.6527 200.086 65.9337 199.013 66.0685 197.947L66.0838 197.831L66.1919 197.791C67.1864 197.422 68.1517 197.064 69.0928 196.715L68.9745 196.91C68.738 195.125 68.5141 193.44 68.3017 191.834L68.4556 191.98C67.3721 191.881 66.3547 191.789 65.3741 191.697L65.2775 191.689L65.2406 191.6C64.7904 190.512 64.2232 189.567 63.5899 188.743L63.5352 188.673L63.5721 188.593C64.0439 187.572 64.4687 186.652 64.8705 185.781L64.9099 185.94C63.3406 184.731 62.0014 183.699 60.8543 182.813L60.9777 182.81C60.0251 183.594 59.243 184.239 58.5867 184.778L58.5537 184.805L58.5143 184.788C57.479 184.352 56.6626 184.153 56.1233 184.035C55.869 183.984 55.6693 183.946 55.5142 183.914C55.3666 183.89 55.3043 183.875 55.3081 183.871C55.312 183.866 55.3844 183.869 55.5154 183.879C55.6515 183.894 55.8588 183.917 56.1335 183.964C56.6804 184.059 57.5083 184.236 58.5639 184.656L58.4914 184.668C59.1361 184.116 59.9081 183.459 60.8454 182.659L60.9052 182.607L60.97 182.655C62.1299 183.526 63.4805 184.541 65.0651 185.732L65.1478 185.795L65.1045 185.891C64.7115 186.766 64.2957 187.689 63.834 188.714L63.8162 188.564C64.4725 189.401 65.0613 190.365 65.5306 191.477L65.3983 191.381C66.3801 191.462 67.3975 191.55 68.4823 191.642L68.6171 191.653L68.6362 191.788C68.8588 193.393 69.0915 195.077 69.3382 196.86L69.3586 197.006L69.22 197.058C68.2801 197.412 67.3161 197.774 66.3242 198.148L66.4475 197.991C66.3127 199.092 66.0278 200.199 65.5878 201.273L65.5573 201.069C66.2097 201.845 66.8735 202.633 67.5501 203.438L67.6557 203.563L67.5565 203.694C66.5493 205.02 65.5178 206.381 64.461 207.774L64.3593 207.907L64.2054 207.837C63.2783 207.416 62.3397 206.989 61.3872 206.557L61.6085 206.53C60.7233 207.219 59.7364 207.801 58.6745 208.243L58.808 208.061C58.719 209.079 58.6287 210.105 58.5384 211.144L58.5232 211.32L58.3489 211.344C56.6804 211.571 54.9889 211.8 53.2733 212.034L53.0978 212.058L53.0355 211.893C52.8562 211.412 52.6756 210.93 52.495 210.447L52.2241 209.721L52.088 209.356L52.0194 209.173L51.9863 209.082L51.9685 209.037L51.9596 209.014L51.9558 209.002L51.9545 208.996V208.993C52.3144 209.278 52.0537 209.072 52.1338 209.135H52.1325H52.1313C50.9727 208.991 49.8459 208.681 48.8488 208.266L49.0752 208.232C48.26 208.915 47.4512 209.591 46.7008 210.219L46.566 210.333L46.4261 210.226C45.0247 209.158 43.6423 208.104 42.3527 207.121L42.2141 207.016L42.2865 206.858C42.7317 205.887 43.1704 204.924 43.5736 204.042L43.599 204.264C42.8754 203.334 42.2993 202.312 41.8923 201.327L42.0691 201.457C41.0008 201.362 39.9465 201.268 38.9876 201.181L38.8223 201.166L38.8006 201.002C38.5641 199.239 38.3339 197.521 38.1203 195.926L38.0986 195.768L38.2462 195.714C39.2559 195.339 40.2479 194.97 41.1471 194.637L41.0237 194.792C41.1725 193.613 41.4917 192.489 41.8974 191.517L41.9266 191.704C41.2335 190.873 40.5582 190.062 39.944 189.326L39.8537 189.218L39.9389 189.107C41.0313 187.681 42.0729 186.323 43.0534 185.042L43.131 184.942L43.2455 184.994C44.2323 185.448 45.1798 185.886 46.0573 186.29L45.9073 186.309C46.8547 185.579 47.8518 185.023 48.831 184.621L48.7509 184.729C48.8552 183.622 48.9519 182.583 49.0409 181.649L49.0485 181.559L49.1375 181.548C51.2016 181.284 52.9096 181.067 54.2182 180.9L54.2755 180.893L54.2945 180.946C54.6239 181.873 54.8795 182.593 55.0627 183.104C55.1428 183.337 55.2051 183.521 55.2547 183.668C55.2916 183.799 55.3107 183.866 55.3081 183.871Z" fill="#263238"/>
<path d="M518.005 69.0977H114.632C107.678 69.0977 102.042 74.7341 102.042 81.6881V366.6C102.042 373.555 107.68 379.192 114.632 379.192H269.447C269.447 379.192 279.294 409.644 248.767 425.4H393.526C393.526 425.4 359.058 413.584 367.921 379.192H518.008C524.962 379.192 530.598 373.554 530.598 366.601V81.6894C530.598 74.7341 524.961 69.0977 518.005 69.0977Z" fill="#263238"/>
<path d="M321.697 349.228C327.185 357.07 318.596 365.658 310.753 360.172C310.495 359.989 310.26 359.755 310.079 359.495C304.607 351.655 313.184 343.078 321.023 348.553C321.281 348.733 321.516 348.969 321.697 349.228Z" fill="#455A64"/>
<path d="M516.476 329.085H115.289C112.99 329.085 111.127 327.221 111.127 324.923V90.3402C111.127 88.0409 112.99 86.1777 115.289 86.1777H516.477C518.777 86.1777 520.639 88.0409 520.639 90.3389V324.922C520.637 327.221 518.775 329.085 516.476 329.085Z" fill="#FAFAFA"/>
<path d="M516.476 329.72H115.29C112.643 329.72 110.491 327.568 110.491 324.923V90.3394C110.491 87.6929 112.643 85.541 115.29 85.541H516.478C519.123 85.541 521.275 87.6928 521.275 90.3381V324.921C521.273 327.568 519.121 329.72 516.476 329.72ZM115.29 86.8128C113.345 86.8128 111.763 88.3949 111.763 90.3394V324.923C111.763 326.866 113.345 328.448 115.29 328.448H516.478C518.421 328.448 520.003 326.866 520.003 324.923V90.3381C520.003 88.3936 518.421 86.8128 516.478 86.8128H115.29Z" fill="white"/>
<path d="M141.447 98.8265C143.253 98.8265 144.717 97.3626 144.717 95.5568C144.717 93.751 143.253 92.2871 141.447 92.2871C139.641 92.2871 138.177 93.751 138.177 95.5568C138.177 97.3626 139.641 98.8265 141.447 98.8265Z" fill="#455A64"/>
<path d="M121.632 98.8291C123.439 98.8291 124.903 97.3646 124.903 95.5581C124.903 93.7516 123.439 92.2871 121.632 92.2871C119.826 92.2871 118.361 93.7516 118.361 95.5581C118.361 97.3646 119.826 98.8291 121.632 98.8291Z" fill="#455A64"/>
<path d="M131.14 98.8291C132.946 98.8291 134.411 97.3646 134.411 95.5581C134.411 93.7516 132.946 92.2871 131.14 92.2871C129.333 92.2871 127.869 93.7516 127.869 95.5581C127.869 97.3646 129.333 98.8291 131.14 98.8291Z" fill="#455A64"/>
<path d="M393.49 219.519C393.49 219.703 359.495 219.85 317.57 219.85C275.631 219.85 241.644 219.703 241.644 219.519C241.644 219.336 275.631 219.188 317.57 219.188C359.495 219.188 393.49 219.336 393.49 219.519Z" fill="#263238"/>
<path d="M356.571 224.752C356.571 224.935 338.358 225.083 315.897 225.083C293.429 225.083 275.22 224.935 275.22 224.752C275.22 224.567 293.429 224.42 315.897 224.42C338.358 224.42 356.571 224.567 356.571 224.752Z" fill="#263238"/>
<path d="M248.483 247.248H151.562V310.462H248.483V247.248Z" fill="#527FC3"/>
<path d="M161.734 263.666C163.878 263.666 165.616 261.927 165.616 259.783C165.616 257.639 163.878 255.9 161.734 255.9C159.589 255.9 157.851 257.639 157.851 259.783C157.851 261.927 159.589 263.666 161.734 263.666Z" fill="#FAFAFA"/>
<path d="M243.23 263.052L240.039 259.928L237.073 262.959L236.977 253.908L243.131 253.842L243.23 263.052ZM240.035 259.534L240.136 259.631L242.945 262.383L242.856 254.123L237.259 254.183L237.345 262.284L240.035 259.534Z" fill="#FAFAFA"/>
<path d="M195.039 258.056C208.169 258.056 218.813 257.908 218.813 257.725C218.813 257.541 208.169 257.393 195.039 257.393C181.908 257.393 171.264 257.541 171.264 257.725C171.264 257.908 181.908 258.056 195.039 258.056Z" fill="#FAFAFA"/>
<path d="M180.43 263.383C185.492 263.383 189.595 263.234 189.595 263.051C189.595 262.867 185.492 262.719 180.43 262.719C175.368 262.719 171.264 262.867 171.264 263.051C171.264 263.234 175.368 263.383 180.43 263.383Z" fill="#FAFAFA"/>
<path d="M366.027 247.248H269.106V310.462H366.027V247.248Z" fill="#455A64"/>
<path d="M364.757 317.815C364.757 317.998 343.788 318.147 317.928 318.147C292.059 318.147 271.094 317.998 271.094 317.815C271.094 317.632 292.059 317.484 317.928 317.484C343.788 317.484 364.757 317.632 364.757 317.815Z" fill="#263238"/>
<path d="M279.279 263.666C281.423 263.666 283.161 261.927 283.161 259.783C283.161 257.639 281.423 255.9 279.279 255.9C277.134 255.9 275.396 257.639 275.396 259.783C275.396 261.927 277.134 263.666 279.279 263.666Z" fill="#FAFAFA"/>
<path d="M360.768 263.052L357.578 259.928L354.612 262.959L354.515 253.908L360.67 253.842L360.768 263.052ZM357.572 259.534L357.673 259.631L360.482 262.383L360.394 254.123L354.797 254.183L354.884 262.284L357.572 259.534Z" fill="#FAFAFA"/>
<path d="M312.583 258.056C325.714 258.056 336.358 257.908 336.358 257.725C336.358 257.541 325.714 257.393 312.583 257.393C299.453 257.393 288.809 257.541 288.809 257.725C288.809 257.908 299.453 258.056 312.583 258.056Z" fill="#FAFAFA"/>
<path d="M297.975 263.383C303.037 263.383 307.14 263.234 307.14 263.051C307.14 262.867 303.037 262.719 297.975 262.719C292.913 262.719 288.809 262.867 288.809 263.051C288.809 263.234 292.913 263.383 297.975 263.383Z" fill="#FAFAFA"/>
<path d="M483.574 247.248H386.651V310.462H483.574V247.248Z" fill="#691B77"/>
<path d="M482.305 317.815C482.305 317.998 461.337 318.147 435.477 318.147C409.606 318.147 388.643 317.998 388.643 317.815C388.643 317.632 409.606 317.484 435.477 317.484C461.337 317.484 482.305 317.632 482.305 317.815Z" fill="#263238"/>
<path d="M396.825 263.668C398.97 263.668 400.709 261.929 400.709 259.784C400.709 257.639 398.97 255.9 396.825 255.9C394.68 255.9 392.941 257.639 392.941 259.784C392.941 261.929 394.68 263.668 396.825 263.668Z" fill="#FAFAFA"/>
<path d="M478.318 263.052L475.127 259.928L472.161 262.959L472.064 253.908L478.22 253.842L478.318 263.052ZM475.123 259.534L475.223 259.631L478.033 262.383L477.945 254.123L472.348 254.183L472.435 262.284L475.123 259.534Z" fill="#FAFAFA"/>
<path d="M453.906 257.723C453.906 257.908 443.261 258.055 430.134 258.055C417.001 258.055 406.358 257.908 406.358 257.723C406.358 257.54 417.001 257.393 430.134 257.393C443.261 257.393 453.906 257.54 453.906 257.723Z" fill="#FAFAFA"/>
<path d="M415.524 263.383C420.586 263.383 424.69 263.234 424.69 263.051C424.69 262.867 420.586 262.719 415.524 262.719C410.462 262.719 406.358 262.867 406.358 263.051C406.358 263.234 410.462 263.383 415.524 263.383Z" fill="#FAFAFA"/>
<path d="M504.024 293.148C511.448 293.148 517.466 287.13 517.466 279.707C517.466 272.283 511.448 266.266 504.024 266.266C496.601 266.266 490.583 272.283 490.583 279.707C490.583 287.13 496.601 293.148 504.024 293.148Z" fill="#E0E0E0"/>
<path d="M501.983 285.432C501.942 285.381 502.666 284.717 503.87 283.684C505.076 282.65 506.763 281.248 508.652 279.716L508.646 280.081C508.616 280.056 508.583 280.028 508.551 280.001C506.695 278.387 505.03 276.908 503.842 275.82C502.654 274.731 501.94 274.033 501.983 273.983C502.026 273.934 502.818 274.54 504.063 275.565C505.308 276.589 507.008 278.029 508.866 279.64C508.896 279.668 508.93 279.696 508.958 279.722L509.173 279.907L508.952 280.088C507.065 281.618 505.342 282.978 504.082 283.945C502.822 284.91 502.024 285.483 501.983 285.432Z" fill="#263238"/>
<path d="M129.15 293.148C136.574 293.148 142.592 287.13 142.592 279.707C142.592 272.283 136.574 266.266 129.15 266.266C121.727 266.266 115.709 272.283 115.709 279.707C115.709 287.13 121.727 293.148 129.15 293.148Z" fill="#E0E0E0"/>
<path d="M131.19 273.984C131.232 274.033 130.507 274.697 129.302 275.73C128.097 276.764 126.409 278.166 124.52 279.699L124.527 279.333C124.556 279.359 124.588 279.386 124.621 279.414C126.478 281.027 128.142 282.506 129.332 283.594C130.521 284.683 131.234 285.382 131.19 285.432C131.146 285.482 130.354 284.874 129.109 283.85C127.864 282.825 126.165 281.387 124.308 279.774C124.276 279.747 124.243 279.718 124.214 279.694L123.999 279.507L124.22 279.328C126.109 277.798 127.831 276.436 129.091 275.469C130.351 274.502 131.149 273.933 131.19 273.984Z" fill="#263238"/>
<path d="M136.175 99.8711L135.716 115.741L136.177 99.8736L258.504 103.632C259.39 110.125 252.654 115.341 246.184 116.393C239.716 117.444 233.062 115.913 226.557 116.717C213.562 118.324 203.555 128.721 191.493 133.817C171.687 142.184 146.631 134.333 135.715 115.809L133.327 198.28L133.446 194.146C147.508 170.903 177.485 160.328 204.651 160.29C231.816 160.252 258.199 168.506 284.81 173.963C311.422 179.421 340.07 181.905 364.922 170.937C384.934 162.106 400.372 145.479 418.981 133.986C456.77 110.649 507.93 111.073 545.328 135.033L543.154 210.119L133.328 198.281L543.609 210.378L546.459 111.968L136.175 99.8711ZM303.901 153.43C296.248 153.209 290.224 146.826 290.447 139.174C290.668 131.521 297.051 125.497 304.703 125.718C312.357 125.94 318.38 132.323 318.158 139.975C317.936 147.628 311.553 153.653 303.901 153.43Z" fill="#4ABC23"/>
<path d="M545.33 135.033C507.932 111.074 456.772 110.649 418.983 133.986C400.373 145.479 384.936 162.106 364.924 170.937C340.071 181.906 311.425 179.421 284.812 173.963C258.2 168.505 231.817 160.251 204.652 160.29C177.486 160.328 147.51 170.903 133.448 194.146L133.328 198.28L543.154 210.118L545.33 135.033ZM327.501 192.294C326.611 192.267 325.909 191.526 325.935 190.636C325.962 189.746 326.704 189.045 327.595 189.07C328.484 189.096 329.186 189.838 329.159 190.729C329.133 191.619 328.39 192.32 327.501 192.294ZM337.723 192.59C336.833 192.565 336.132 191.822 336.158 190.932C336.185 190.042 336.926 189.341 337.817 189.368C338.708 189.393 339.408 190.136 339.382 191.026C339.356 191.915 338.614 192.616 337.723 192.59ZM347.946 192.887C347.056 192.861 346.355 192.119 346.382 191.228C346.407 190.338 347.15 189.637 348.04 189.663C348.93 189.69 349.631 190.431 349.605 191.321C349.579 192.212 348.836 192.912 347.946 192.887ZM504.983 166.405C503.168 168.118 500.309 168.034 498.598 166.219C496.886 164.404 496.968 161.547 498.783 159.834C500.598 158.122 503.457 158.205 505.169 160.019C506.881 161.834 506.798 164.693 504.983 166.405Z" fill="#4ABC23"/>
<g opacity="0.3">
<g opacity="0.3">
<path opacity="0.3" d="M545.33 135.033C507.932 111.074 456.772 110.649 418.983 133.986C400.373 145.479 384.936 162.106 364.924 170.937C340.071 181.906 311.425 179.421 284.812 173.963C258.2 168.505 231.817 160.251 204.652 160.29C177.486 160.328 147.51 170.903 133.448 194.146L133.328 198.28L543.154 210.118L545.33 135.033ZM327.501 192.294C326.611 192.267 325.909 191.526 325.935 190.636C325.962 189.746 326.704 189.045 327.595 189.07C328.484 189.096 329.186 189.838 329.159 190.729C329.133 191.619 328.39 192.32 327.501 192.294ZM337.723 192.59C336.833 192.565 336.132 191.822 336.158 190.932C336.185 190.042 336.926 189.341 337.817 189.368C338.708 189.393 339.408 190.136 339.382 191.026C339.356 191.915 338.614 192.616 337.723 192.59ZM347.946 192.887C347.056 192.861 346.355 192.119 346.382 191.228C346.407 190.338 347.15 189.637 348.04 189.663C348.93 189.69 349.631 190.431 349.605 191.321C349.579 192.212 348.836 192.912 347.946 192.887ZM504.983 166.405C503.168 168.118 500.309 168.034 498.598 166.219C496.886 164.404 496.968 161.547 498.783 159.834C500.598 158.122 503.457 158.205 505.169 160.019C506.881 161.834 506.798 164.693 504.983 166.405Z" fill="black"/>
</g>
</g>
<path d="M327.546 192.295C328.436 192.295 329.158 191.574 329.158 190.683C329.158 189.792 328.436 189.07 327.546 189.07C326.655 189.07 325.933 189.792 325.933 190.683C325.933 191.574 326.655 192.295 327.546 192.295Z" fill="#263238"/>
<path d="M337.764 192.59C338.655 192.59 339.377 191.868 339.377 190.978C339.377 190.087 338.655 189.365 337.764 189.365C336.874 189.365 336.152 190.087 336.152 190.978C336.152 191.868 336.874 192.59 337.764 192.59Z" fill="#263238"/>
<path d="M347.988 192.887C348.879 192.887 349.601 192.165 349.601 191.275C349.601 190.384 348.879 189.662 347.988 189.662C347.097 189.662 346.375 190.384 346.375 191.275C346.375 192.165 347.097 192.887 347.988 192.887Z" fill="#263238"/>
<path d="M191.493 133.818C203.555 128.724 213.563 118.326 226.557 116.718C233.061 115.914 239.715 117.446 246.184 116.394C252.652 115.341 259.39 110.127 258.504 103.633L136.177 99.875L135.716 115.743L135.715 115.811C146.629 134.335 171.685 142.185 191.493 133.818Z" fill="#4ABC23"/>
<g opacity="0.3">
<g opacity="0.3">
<path opacity="0.3" d="M191.493 133.818C203.555 128.724 213.563 118.326 226.557 116.718C233.061 115.914 239.715 117.446 246.184 116.394C252.652 115.341 259.39 110.127 258.504 103.633L136.177 99.875L135.716 115.743L135.715 115.811C146.629 134.335 171.685 142.185 191.493 133.818Z" fill="white"/>
</g>
</g>
<path d="M304.3 153.437C311.956 153.437 318.162 147.231 318.162 139.575C318.162 131.919 311.956 125.713 304.3 125.713C296.644 125.713 290.438 131.919 290.438 139.575C290.438 147.231 296.644 153.437 304.3 153.437Z" fill="#4ABC23"/>
<g opacity="0.3">
<path opacity="0.3" d="M304.3 153.437C311.956 153.437 318.162 147.231 318.162 139.575C318.162 131.919 311.956 125.713 304.3 125.713C296.644 125.713 290.438 131.919 290.438 139.575C290.438 147.231 296.644 153.437 304.3 153.437Z" fill="black"/>
</g>
<path d="M501.88 167.636C504.375 167.636 506.397 165.614 506.397 163.119C506.397 160.624 504.375 158.602 501.88 158.602C499.385 158.602 497.363 160.624 497.363 163.119C497.363 165.614 499.385 167.636 501.88 167.636Z" fill="#4ABC23"/>
<path d="M483.549 210.583C486.94 204.891 487.929 197.3 488.801 190.732C489.211 187.641 489.93 183.241 487.762 181.3C485.439 179.222 485.224 176.026 482.552 174.42C479.878 172.813 476.249 172.67 473.719 174.492" fill="#263238"/>
<path d="M474.152 230.753C468.977 231.151 464.509 227.168 464.311 221.98C464.119 217 463.952 211.965 463.952 211.965C463.952 211.965 456.404 211.258 455.857 203.79C455.309 196.321 455.561 179.079 455.561 179.079C463.987 174.834 474.051 175.48 481.864 180.77L481.4 207.056V221.198C481.346 225.939 478.881 230.389 474.152 230.753Z" fill="#FFBE9D"/>
<path d="M463.292 194.671C464.581 193.075 466.675 192.439 468.397 193.557C470.117 194.675 470.779 197.159 469.843 198.985C469.183 200.273 467.679 201.441 466.179 201.755C464.768 202.05 463.768 203.412 463.933 204.843C464.148 206.719 467.266 207.422 468.674 208.974C470.864 211.387 475.669 212.409 478.904 212.791C482.085 213.168 481.701 213.198 483.551 210.584C484.899 208.682 485.32 206.85 485.368 204.52C485.483 199.013 485.597 193.506 485.712 187.998C485.753 186.013 485.792 184.003 485.335 182.071C484.879 180.139 483.868 178.261 482.208 177.169C480.391 175.974 478.09 175.872 476.021 175.203C473.434 174.366 471.237 172.651 468.816 171.413C466.398 170.175 463.431 169.436 461 170.654C459.257 171.529 458.088 173.27 456.391 174.235C453.978 175.609 450.69 175.296 449.517 178.847C449.113 180.074 449.142 181.421 449.557 182.644C451.194 187.476 457.179 189.425 461.49 187.336C461.574 188.155 460.769 189.976 461.63 192.561C461.903 193.388 462.001 194.647 463.292 194.671Z" fill="#263238"/>
<path d="M464.626 199.334C464.698 199.285 464.964 199.703 465.558 199.651C466.128 199.613 466.874 198.926 466.9 197.984C466.972 197.031 466.255 196.371 465.662 196.165C465.063 195.931 464.624 196.032 464.599 195.93C464.561 195.865 465.003 195.561 465.792 195.715C466.175 195.791 466.625 195.995 466.994 196.393C467.368 196.786 467.6 197.396 467.561 198.014C467.525 199.286 466.425 200.208 465.562 200.118C465.127 200.087 464.839 199.858 464.711 199.674C464.58 199.484 464.586 199.35 464.626 199.334Z" fill="#EB996E"/>
<path d="M486.165 189.782C487.439 187.309 489.834 185.39 492.572 184.895C495.309 184.401 498.322 185.43 500.026 187.627C501.73 189.825 501.943 193.13 500.366 195.422C498.558 198.046 495.099 198.868 491.943 199.282C494.237 201.935 497.658 203.578 501.163 203.71C498.679 205.392 495.251 205.558 492.617 204.119C494.328 205.579 496.039 207.039 497.751 208.501C492.624 209.764 486.796 206.953 484.589 202.156C482.385 197.359 484.049 191.104 488.347 188.037" fill="#263238"/>
<path d="M490.886 198.93C490.946 198.977 489.855 199.525 488.221 198.874C486.621 198.289 484.83 196.329 484.478 193.723C484.288 192.437 484.464 191.164 484.892 190.124C485.311 189.077 485.936 188.261 486.543 187.682C487.778 186.516 488.841 186.277 488.85 186.339C488.906 186.443 487.945 186.835 486.878 188.009C485.812 189.138 484.751 191.242 485.133 193.626C485.461 196.006 487.005 197.805 488.411 198.445C489.833 199.145 490.879 198.81 490.886 198.93Z" fill="#E8505B"/>
<path d="M501.705 191.424C501.618 191.5 501.07 190.585 499.587 190.036C498.136 189.462 495.877 189.357 493.511 189.84C491.135 190.323 489.146 191.346 487.837 192.246C486.508 193.135 485.815 193.867 485.734 193.788C485.68 193.745 486.259 192.887 487.561 191.869C488.841 190.84 490.89 189.696 493.378 189.192C495.849 188.687 498.237 188.869 499.77 189.605C501.34 190.329 501.78 191.418 501.705 191.424Z" fill="#455A64"/>
<path d="M499.441 196.434C499.465 196.509 498.8 196.822 497.631 196.946C496.475 197.074 494.793 196.943 493.148 196.174C491.503 195.404 490.323 194.197 489.68 193.227C489.025 192.25 488.84 191.539 488.912 191.51C489.006 191.464 489.341 192.09 490.054 192.945C490.76 193.798 491.905 194.86 493.428 195.572C494.951 196.284 496.5 196.481 497.607 196.476C498.721 196.479 499.416 196.334 499.441 196.434Z" fill="#455A64"/>
<path d="M488.067 206.458C488.034 206.523 487.192 206.185 486.118 205.214C485.05 204.263 483.798 202.592 483.239 200.426C482.682 198.259 482.971 196.191 483.447 194.842C483.92 193.474 484.494 192.772 484.555 192.812C484.649 192.864 484.233 193.636 483.896 194.974C483.553 196.299 483.359 198.239 483.88 200.261C484.4 202.282 485.506 203.887 486.447 204.881C487.39 205.891 488.127 206.367 488.067 206.458Z" fill="#455A64"/>
<path d="M472.403 176.812C472.334 176.815 473.161 175.581 475.293 175.258C476.327 175.108 477.619 175.216 478.895 175.795C480.171 176.374 481.336 177.438 482.214 178.757C483.978 181.442 484.303 184.369 484.526 186.345C484.712 188.359 484.768 189.6 484.684 189.611C484.587 189.625 484.366 188.39 484.062 186.405C483.723 184.449 483.32 181.636 481.662 179.123C480.84 177.888 479.775 176.898 478.633 176.346C477.489 175.791 476.305 175.641 475.345 175.722C473.378 175.895 472.472 176.927 472.403 176.812Z" fill="#455A64"/>
<path d="M451.37 184.453C451.374 184.48 450.943 184.513 450.33 184.113C449.759 183.75 448.916 182.767 449.203 181.384C449.346 180.729 449.754 180.057 450.428 179.61C451.12 179.138 452.023 179.124 452.816 179.135C453.633 179.152 454.402 179.09 455.038 178.572C455.69 178.083 456.193 177.321 456.855 176.61C458.187 175.17 459.909 174.297 461.534 173.914C463.167 173.513 464.707 173.563 465.937 173.827C467.172 174.091 468.108 174.526 468.694 174.905C469.282 175.284 469.56 175.555 469.537 175.584C469.47 175.711 468.248 174.676 465.853 174.288C464.67 174.092 463.214 174.096 461.685 174.504C460.163 174.896 458.572 175.73 457.344 177.058C456.727 177.713 456.204 178.513 455.428 179.091C455.046 179.38 454.585 179.595 454.12 179.678C453.658 179.764 453.218 179.754 452.811 179.745C451.997 179.717 451.267 179.726 450.723 180.074C450.171 180.411 449.802 180.957 449.661 181.494C449.361 182.603 450.004 183.514 450.485 183.906C450.991 184.332 451.389 184.392 451.37 184.453Z" fill="#455A64"/>
<path d="M471.348 205.234C471.327 205.181 471.718 205.034 472.324 204.62C472.923 204.212 473.743 203.494 474.337 202.349C474.933 201.223 475.195 199.613 474.665 198.004C474.408 197.206 473.963 196.43 473.318 195.782C472.676 195.129 471.867 194.589 470.996 194.086C470.124 193.58 469.236 193.108 468.422 192.552C467.606 191.998 466.89 191.321 466.344 190.59C465.246 189.118 464.734 187.499 464.598 186.142C464.438 184.777 464.653 183.665 464.86 182.941C465.071 182.21 465.307 181.854 465.332 181.866C465.475 181.892 464.679 183.472 465.062 186.081C465.248 187.363 465.782 188.87 466.829 190.218C467.848 191.608 469.537 192.51 471.331 193.515C472.218 194.029 473.083 194.603 473.785 195.331C474.492 196.055 474.983 196.937 475.248 197.822C475.802 199.607 475.451 201.383 474.749 202.571C474.05 203.782 473.125 204.481 472.457 204.839C471.783 205.204 471.357 205.267 471.348 205.234Z" fill="#455A64"/>
<path d="M484.302 194.275C484.31 194.321 483.969 194.402 483.342 194.511C482.714 194.597 481.792 194.68 480.652 194.611C478.386 194.514 475.195 193.741 472.293 191.753C469.398 189.791 467.395 187.107 466.819 184.841C466.519 183.715 466.573 182.745 466.725 182.119C466.885 181.49 467.088 181.19 467.118 181.204C467.244 181.219 466.575 182.592 467.269 184.709C467.917 186.797 469.879 189.314 472.664 191.203C475.453 193.114 478.495 193.93 480.692 194.143C482.902 194.396 484.289 194.148 484.302 194.275Z" fill="#455A64"/>
<path d="M458.422 447.78L454.698 455.642L471.362 455.443L472.104 447.107L458.422 447.78Z" fill="#E8505B"/>
<path d="M471.684 453.862C471.685 453.933 470.757 454.015 469.257 454.053C467.757 454.094 465.684 454.081 463.399 454.025C461.22 453.955 459.245 453.893 457.551 453.838C456.054 453.777 455.128 453.722 455.128 453.649C455.127 453.577 456.054 453.501 457.553 453.464C459.054 453.427 461.127 453.44 463.412 453.497C465.592 453.566 467.566 453.628 469.26 453.682C470.757 453.738 471.684 453.788 471.684 453.862Z" fill="#263238"/>
<path d="M464.64 450.307C464.747 448.374 464.716 446.8 464.571 446.792C464.426 446.784 464.221 448.345 464.114 450.278C464.007 452.212 464.038 453.786 464.183 453.794C464.328 453.802 464.533 452.241 464.64 450.307Z" fill="#263238"/>
<g opacity="0.6">
<path opacity="0.6" d="M454.726 455.821L471.38 455.263L471.485 453.684L455.561 453.82L454.718 455.633" fill="white"/>
</g>
<path d="M530.86 451.007L504.943 301.917L504.98 301.906C504.925 301.685 504.871 301.477 504.816 301.259L504.811 301.231L504.809 301.232C500.39 283.709 496.902 279.41 496.902 279.41L453.835 280.584C450.457 286.659 450.028 301.231 450.028 301.231C449.565 303.018 458.424 447.78 458.424 447.78L471.716 447.415L478.925 310.454L517.442 451.307L530.86 451.007Z" fill="#FFBE9D"/>
<path d="M386.417 205.588C386.312 202.876 387.461 197.664 388.098 197.265C388.735 196.867 389.506 197.631 389.193 198.41C388.94 199.039 388.834 200.222 388.791 201.113C388.756 201.85 388.836 202.587 389.042 203.292C389.22 203.904 389.395 204.438 389.563 204.916L389.859 205.791L418.333 231.278L436.115 230.192L439.641 248.349L410.705 245.825L380.958 212.999L380.963 212.996C378.445 211.183 375.868 208.967 374.252 207.911C371.331 206.003 372.164 205.473 372.524 205.169L386.417 205.588Z" fill="#FFBE9D"/>
<path d="M546.296 190.431L528.577 226.638L510.815 234.213L504.183 218.226L517.214 214.777L537.503 182.396L537.547 181.471C537.574 180.971 537.595 180.416 537.597 179.787C537.6 179.046 537.475 178.308 537.235 177.606C536.945 176.761 536.516 175.652 536.097 175.116C535.58 174.455 536.109 173.506 536.832 173.713C537.554 173.919 539.023 175.708 539.674 178.341C540.327 180.975 542.082 177.138 542.746 175.752C543.409 174.366 545.664 170.178 546.245 170.056C547.1 169.877 547.459 170.779 546.763 172.149C546.06 173.534 544.268 177.774 545.007 178.109L546.258 178.037L547.253 182.945C547.772 185.476 547.433 188.107 546.296 190.431Z" fill="#FFBE9D"/>
<path d="M534.662 452.418L534.597 450.719L517.39 451.216L517.539 456.818L518.603 456.852C523.338 456.969 542.687 457.139 545.818 456.162C549.313 455.075 534.662 452.418 534.662 452.418Z" fill="#E8505B"/>
<g opacity="0.6">
<g opacity="0.6">
<g opacity="0.6">
<path opacity="0.6" d="M523.739 456.527C523.453 455.203 522.619 453.987 521.448 453.19C520.275 452.391 518.851 451.993 517.407 452.139L517.541 456.592L523.739 456.527Z" fill="white"/>
</g>
</g>
</g>
<g opacity="0.6">
<g opacity="0.6">
<g opacity="0.6">
<path opacity="0.6" d="M541.829 453.951C541.829 453.951 546.972 455.182 546.36 455.981C545.749 456.778 526.189 457.293 517.54 456.818L517.556 456.462L540.375 456.043C540.375 456.043 540.832 454.017 541.829 453.951Z" fill="white"/>
</g>
</g>
</g>
<path d="M517.275 456.46C517.275 456.466 517.377 456.474 517.57 456.481C517.824 456.489 518.103 456.498 518.417 456.508C519.264 456.52 520.306 456.533 521.534 456.55C524.167 456.569 527.805 456.55 531.82 456.448C535.836 456.344 539.471 456.177 542.097 456.024C543.323 455.943 544.362 455.877 545.207 455.823C545.521 455.796 545.798 455.774 546.051 455.753C546.244 455.735 546.345 455.723 546.345 455.717C546.344 455.709 546.242 455.709 546.049 455.714C545.794 455.725 545.516 455.736 545.202 455.746C544.356 455.784 543.317 455.831 542.09 455.887C539.461 456.006 535.829 456.151 531.814 456.254C527.801 456.355 524.165 456.396 521.534 456.413C520.306 456.42 519.265 456.427 518.418 456.432C518.104 456.436 517.824 456.439 517.57 456.443C517.377 456.447 517.275 456.452 517.275 456.46Z" fill="#263238"/>
<path d="M540.372 456.291C540.436 456.296 540.463 455.604 540.911 454.893C541.348 454.176 541.977 453.806 541.94 453.756C541.926 453.709 541.201 454.029 540.732 454.795C540.253 455.561 540.321 456.304 540.372 456.291Z" fill="#263238"/>
<path d="M535.243 454.039C535.293 454.066 535.527 453.787 535.766 453.415C536.005 453.042 536.158 452.718 536.109 452.691C536.06 452.665 535.826 452.943 535.588 453.316C535.348 453.687 535.195 454.011 535.243 454.039Z" fill="#263238"/>
<path d="M533.839 453.393C533.878 453.431 534.143 453.258 534.431 453.002C534.719 452.748 534.92 452.51 534.882 452.472C534.842 452.434 534.576 452.608 534.289 452.862C533.999 453.117 533.798 453.355 533.839 453.393Z" fill="#263238"/>
<path d="M533.826 451.756C533.331 451.764 532.931 451.814 532.932 451.867C532.933 451.921 533.334 451.958 533.829 451.95C534.323 451.942 534.723 451.892 534.723 451.839C534.722 451.786 534.32 451.749 533.826 451.756Z" fill="#263238"/>
<path d="M532.577 450.862C532.558 450.91 533 451.082 533.581 451.105C534.164 451.131 534.62 451 534.608 450.951C534.596 450.896 534.145 450.938 533.592 450.912C533.04 450.89 532.593 450.808 532.577 450.862Z" fill="#263238"/>
<path d="M535.786 452.634C535.786 452.657 536.209 452.692 536.887 452.599C537.225 452.552 537.623 452.467 538.051 452.327C538.263 452.251 538.487 452.192 538.713 452.053C538.82 451.981 538.938 451.883 538.977 451.727C539.017 451.573 538.923 451.403 538.796 451.324C537.729 450.844 536.692 451.422 536.317 451.938C536.11 452.201 536.02 452.456 535.978 452.63C535.94 452.807 535.946 452.906 535.957 452.907C535.997 452.92 536.02 452.503 536.433 452.022C536.635 451.785 536.948 451.553 537.356 451.428C537.742 451.311 538.294 451.268 538.67 451.476C538.849 451.593 538.787 451.786 538.595 451.899C538.417 452.012 538.185 452.084 537.985 452.161C537.571 452.304 537.186 452.401 536.859 452.465C536.204 452.59 535.784 452.603 535.786 452.634Z" fill="#263238"/>
<path d="M536.08 452.679C536.097 452.69 536.251 452.425 536.186 451.964C536.153 451.739 536.055 451.473 535.863 451.224C535.662 451.003 535.402 450.696 534.931 450.727C534.676 450.764 534.561 451.037 534.605 451.207C534.632 451.387 534.722 451.538 534.806 451.66C534.978 451.911 535.168 452.113 535.345 452.266C535.7 452.569 535.976 452.683 535.987 452.664C536.007 452.638 535.762 452.486 535.449 452.17C535.293 452.012 535.123 451.81 534.97 451.567C534.812 451.355 534.697 450.968 534.971 450.915C535.246 450.883 535.535 451.131 535.71 451.331C535.89 451.547 535.994 451.782 536.042 451.988C536.139 452.404 536.045 452.672 536.08 452.679Z" fill="#263238"/>
<path d="M517.493 452.093C517.498 452.127 517.982 452.036 518.758 452.101C519.528 452.16 520.603 452.425 521.552 453.085C522.5 453.749 523.072 454.636 523.347 455.307C523.629 455.982 523.668 456.441 523.707 456.436C523.719 456.435 523.722 456.32 523.696 456.114C523.672 455.91 523.611 455.612 523.484 455.261C523.239 454.559 522.664 453.623 521.676 452.931C520.687 452.24 519.561 451.99 518.767 451.963C518.369 451.948 518.046 451.976 517.826 452.01C517.608 452.046 517.49 452.08 517.493 452.093Z" fill="#263238"/>
<path d="M525.857 454.917C525.851 454.966 526.972 455.107 528.365 455.082C529.757 455.059 530.873 454.88 530.865 454.83C530.858 454.774 529.74 454.867 528.361 454.89C526.981 454.914 525.862 454.861 525.857 454.917Z" fill="#263238"/>
<path d="M522.501 455.001C522.46 455.041 522.599 455.22 522.721 455.455C522.847 455.689 522.91 455.9 522.97 455.895C523.025 455.894 523.05 455.642 522.907 455.371C522.765 455.099 522.537 454.961 522.501 455.001Z" fill="#263238"/>
<path d="M521.179 453.571C521.139 453.609 521.255 453.773 521.437 453.935C521.62 454.098 521.799 454.198 521.839 454.16C521.878 454.122 521.762 453.959 521.58 453.796C521.399 453.633 521.219 453.532 521.179 453.571Z" fill="#263238"/>
<path d="M519.353 452.949C519.367 453.002 519.593 452.994 519.849 453.071C520.105 453.141 520.289 453.265 520.332 453.228C520.377 453.199 520.227 452.975 519.91 452.885C519.593 452.795 519.334 452.9 519.353 452.949Z" fill="#263238"/>
<path d="M518.053 452.668C518.033 452.719 518.134 452.797 518.279 452.846C518.422 452.893 518.554 452.89 518.574 452.841C518.593 452.79 518.492 452.71 518.347 452.663C518.202 452.616 518.072 452.618 518.053 452.668Z" fill="#263238"/>
<path d="M493.031 247.799L493.554 245.889C494.877 245.064 510.43 235.365 511.019 235.275C511.635 235.182 504.089 217.418 504.089 217.418L486.388 219.954C484.607 219.455 481.387 219.343 481.387 219.343L464.601 219.201C464.601 219.201 457.09 220.096 454.698 221.83L435.871 228.94L440.127 250.845L456.53 247.95C455.736 250.19 456.506 254.087 457.199 258.514C458.054 263.965 458.521 271.586 455.736 276.312C455.736 276.312 452.265 288.29 452.259 297.8L500.402 292.176C500.402 292.176 500.26 281.843 490.728 269.569L491.183 256.629L493.031 247.799Z" fill="#263238"/>
<path d="M458.075 242.244C457.985 242.254 457.718 240.668 457.356 238.08L457.722 238.242C456.394 239.226 454.863 240.364 453.179 241.613L452.729 241.947L452.683 241.384C452.57 239.971 452.447 238.444 452.319 236.858L452.833 237.107C452.767 237.152 452.695 237.2 452.622 237.248C450.843 238.431 449.152 239.554 447.605 240.582L447.271 240.804L447.15 240.426C446.646 238.862 446.427 237.389 446.368 236.141L446.702 236.336C445.514 236.872 444.73 237.632 444.253 238.187C443.775 238.749 443.568 239.114 443.521 239.089C443.487 239.072 443.614 238.664 444.048 238.028C444.48 237.403 445.251 236.544 446.501 235.912L446.804 235.758L446.836 236.108C446.949 237.318 447.206 238.735 447.722 240.236L447.268 240.081C448.806 239.038 450.484 237.897 452.253 236.698C452.326 236.649 452.398 236.601 452.464 236.556L452.939 236.239L452.98 236.806C453.094 238.394 453.205 239.92 453.306 241.336L452.812 241.106C454.532 239.904 456.095 238.81 457.45 237.864L457.779 237.632L457.816 238.025C458.062 240.627 458.166 242.232 458.075 242.244Z" fill="#FAFAFA"/>
<path d="M482.226 234.037C482.154 234.096 481.071 232.907 479.363 230.929L479.758 230.865C479.177 232.413 478.507 234.199 477.769 236.164L477.573 236.688L477.229 236.237C476.367 235.111 475.437 233.895 474.469 232.632L475.036 232.562C475.006 232.636 474.97 232.716 474.936 232.796C474.081 234.754 473.27 236.615 472.527 238.318L472.367 238.685L472.06 238.435C470.789 237.393 469.807 236.274 469.078 235.257L469.467 235.24C468.759 236.333 468.512 237.397 468.412 238.123C468.315 238.856 468.339 239.273 468.286 239.278C468.248 239.283 468.134 238.87 468.154 238.1C468.179 237.341 468.36 236.2 469.068 234.992L469.24 234.7L469.457 234.976C470.209 235.933 471.192 236.984 472.439 237.964L471.974 238.081C472.7 236.371 473.494 234.504 474.329 232.536C474.364 232.456 474.399 232.376 474.43 232.302L474.656 231.779L474.999 232.233C475.957 233.504 476.878 234.728 477.729 235.861L477.188 235.937C477.982 233.995 478.703 232.229 479.328 230.699L479.481 230.326L479.724 230.635C481.335 232.687 482.294 233.98 482.226 234.037Z" fill="#FAFAFA"/>
<path d="M461.637 247.561C461.722 247.592 461.252 249.13 460.417 251.608L460.162 251.3C461.79 251.013 463.669 250.682 465.735 250.318L466.287 250.22L466.076 250.744C465.544 252.06 464.972 253.479 464.375 254.956L464.027 254.504C464.107 254.492 464.193 254.481 464.28 254.472C466.4 254.21 468.414 253.963 470.258 253.735L470.656 253.687L470.597 254.079C470.347 255.703 469.883 257.118 469.378 258.262L469.166 257.936C470.467 257.989 471.51 257.66 472.185 257.379C472.864 257.089 473.213 256.855 473.243 256.9C473.267 256.929 472.968 257.238 472.298 257.613C471.632 257.978 470.557 258.402 469.156 258.408L468.816 258.409L468.943 258.082C469.385 256.948 469.789 255.565 469.998 253.994L470.336 254.336C468.493 254.58 466.482 254.848 464.365 255.129C464.279 255.141 464.191 255.152 464.112 255.161L463.546 255.235L463.763 254.708C464.373 253.238 464.956 251.823 465.497 250.512L465.838 250.939C463.762 251.244 461.875 251.521 460.239 251.762L459.841 251.82L459.984 251.454C460.927 249.013 461.553 247.53 461.637 247.561Z" fill="#FAFAFA"/>
<path d="M490.118 223.307C490.203 223.338 489.733 224.876 488.898 227.354L488.643 227.046C490.271 226.759 492.15 226.428 494.216 226.064L494.768 225.966L494.556 226.492C494.025 227.807 493.453 229.225 492.856 230.702L492.508 230.25C492.588 230.239 492.674 230.228 492.761 230.218C494.881 229.957 496.895 229.709 498.739 229.481L499.137 229.433L499.078 229.825C498.828 231.449 498.364 232.864 497.859 234.008L497.647 233.682C498.948 233.736 499.991 233.406 500.666 233.125C501.345 232.835 501.694 232.601 501.724 232.646C501.748 232.675 501.449 232.984 500.779 233.359C500.113 233.724 499.038 234.148 497.637 234.154L497.297 234.155L497.424 233.828C497.866 232.694 498.27 231.312 498.479 229.74L498.817 230.082C496.974 230.327 494.963 230.594 492.846 230.877C492.759 230.888 492.672 230.898 492.593 230.908L492.028 230.981L492.246 230.454C492.854 228.984 493.437 227.569 493.979 226.258L494.319 226.685C492.243 226.99 490.356 227.267 488.72 227.508L488.322 227.566L488.465 227.2C489.408 224.761 490.033 223.278 490.118 223.307Z" fill="#FAFAFA"/>
<path d="M455.225 223.913C455.309 223.883 455.95 225.358 456.924 227.783L456.528 227.715C457.58 226.439 458.795 224.968 460.13 223.349L460.485 222.916L460.665 223.453C461.115 224.799 461.6 226.25 462.106 227.759L461.547 227.641C461.601 227.581 461.66 227.516 461.718 227.453C463.162 225.878 464.533 224.382 465.788 223.012L466.059 222.717L466.267 223.054C467.132 224.453 467.698 225.829 468.055 227.027L467.684 226.917C468.708 226.112 469.288 225.187 469.618 224.533C469.948 223.87 470.06 223.467 470.112 223.481C470.149 223.489 470.123 223.916 469.856 224.637C469.587 225.348 469.044 226.367 467.982 227.281L467.725 227.502L467.609 227.172C467.21 226.023 466.62 224.708 465.757 223.377L466.236 223.419C464.993 224.801 463.637 226.31 462.209 227.898C462.151 227.963 462.092 228.028 462.038 228.086L461.653 228.508L461.477 227.967C460.984 226.454 460.51 224.998 460.073 223.649L460.608 223.753C459.227 225.333 457.972 226.77 456.884 228.015L456.619 228.318L456.489 227.945C455.627 225.479 455.141 223.945 455.225 223.913Z" fill="#FAFAFA"/>
<path d="M480.779 245.206C480.838 245.136 482.114 246.12 484.137 247.774L483.758 247.905C484.063 246.28 484.415 244.405 484.802 242.343L484.905 241.792L485.321 242.175C486.364 243.137 487.491 244.172 488.662 245.25L488.115 245.417C488.134 245.338 488.153 245.254 488.173 245.169C488.677 243.092 489.154 241.12 489.592 239.314L489.686 238.923L490.03 239.118C491.462 239.924 492.623 240.855 493.515 241.733L493.136 241.815C493.643 240.616 493.703 239.525 493.678 238.794C493.647 238.056 493.549 237.648 493.601 237.635C493.637 237.624 493.821 238.01 493.936 238.771C494.043 239.524 494.06 240.678 493.572 241.991L493.454 242.31L493.193 242.075C492.288 241.262 491.137 240.397 489.738 239.647L490.178 239.452C489.758 241.263 489.3 243.241 488.817 245.32C488.797 245.405 488.776 245.491 488.758 245.568L488.627 246.123L488.213 245.734C487.051 244.646 485.931 243.601 484.896 242.633L485.415 242.465C484.97 244.514 484.564 246.38 484.214 247.995L484.129 248.389L483.837 248.126C481.888 246.382 480.721 245.274 480.779 245.206Z" fill="#FAFAFA"/>
<path d="M483.27 255.891C483.312 255.971 481.929 256.794 479.647 258.067L479.666 257.668C481.065 258.549 482.677 259.567 484.452 260.684L484.927 260.983L484.417 261.229C483.14 261.846 481.763 262.512 480.329 263.205L480.375 262.635C480.441 262.681 480.513 262.731 480.584 262.78C482.33 264.013 483.988 265.183 485.507 266.253L485.834 266.485L485.527 266.733C484.249 267.768 482.957 268.506 481.812 269.013L481.875 268.629C482.803 269.544 483.796 269.999 484.486 270.244C485.184 270.487 485.598 270.547 485.591 270.6C485.588 270.639 485.161 270.668 484.412 270.494C483.673 270.315 482.592 269.907 481.55 268.971L481.299 268.744L481.613 268.587C482.701 268.043 483.93 267.291 485.141 266.269L485.161 266.748C483.632 265.691 481.962 264.538 480.206 263.323C480.134 263.274 480.064 263.224 479.998 263.178L479.529 262.852L480.045 262.609C481.483 261.927 482.867 261.272 484.149 260.665L484.113 261.211C482.372 260.042 480.787 258.979 479.415 258.058L479.081 257.833L479.432 257.656C481.768 256.489 483.228 255.811 483.27 255.891Z" fill="#FAFAFA"/>
<path d="M457.203 274.356C457.237 274.272 458.754 274.808 461.192 275.751L460.873 275.992C460.658 274.353 460.409 272.462 460.134 270.381L460.06 269.827L460.575 270.061C461.866 270.65 463.259 271.283 464.707 271.943L464.239 272.271C464.233 272.191 464.225 272.105 464.218 272.018C464.05 269.888 463.89 267.865 463.743 266.012L463.712 265.613L464.101 265.691C465.715 266.012 467.106 266.536 468.228 267.091L467.893 267.288C468.003 265.99 467.719 264.934 467.467 264.248C467.208 263.556 466.989 263.198 467.033 263.169C467.064 263.146 467.359 263.458 467.704 264.145C468.041 264.826 468.417 265.919 468.362 267.319L468.348 267.658L468.027 267.517C466.914 267.026 465.551 266.562 463.988 266.285L464.345 265.962C464.509 267.814 464.688 269.836 464.878 271.963C464.884 272.05 464.892 272.138 464.899 272.218L464.946 272.785L464.43 272.546C462.987 271.874 461.599 271.23 460.313 270.631L460.756 270.31C460.97 272.397 461.166 274.295 461.335 275.939L461.375 276.338L461.015 276.181C458.623 275.128 457.168 274.438 457.203 274.356Z" fill="#FAFAFA"/>
<path d="M455.737 222.17C455.735 222.136 456.207 222.037 457.072 222.111C457.926 222.193 459.184 222.496 460.508 223.33C461.834 224.143 463.179 225.535 464.081 227.391C464.996 229.239 465.502 231.498 465.464 233.863C465.404 238.651 463.161 242.617 461.085 244.837C460.04 245.973 459.04 246.726 458.328 247.197C457.599 247.649 457.172 247.854 457.152 247.818C457.071 247.706 458.773 246.808 460.733 244.527C462.665 242.286 464.745 238.439 464.801 233.853C464.838 231.587 464.37 229.423 463.532 227.656C462.703 225.88 461.479 224.542 460.251 223.719C457.749 222.034 455.697 222.309 455.737 222.17Z" fill="#455A64"/>
<path d="M453.036 281.207C440.5 320.771 455.128 370.008 451.252 416.109C450.897 420.34 449.268 425.35 452.51 428.092C454.383 429.675 457.121 429.814 459.5 429.221C461.879 428.627 464.046 427.405 466.323 426.497C472.063 424.205 478.592 423.952 484.493 425.791C488.494 427.039 492.459 429.243 496.602 428.617C502.103 427.785 505.668 422.346 510.732 420.043C515.473 417.886 520.948 418.691 526.156 418.56C531.363 418.429 537.322 416.698 539.304 411.881C539.304 411.881 503.339 277.577 490.729 269.566L457.327 271.684L453.036 281.207Z" fill="#00B3B1"/>
<path d="M479.588 308.859C485.537 307.32 490.33 305.958 490.293 305.817C490.257 305.676 485.405 306.81 479.456 308.349C473.507 309.889 468.714 311.251 468.75 311.392C468.786 311.532 473.639 310.399 479.588 308.859Z" fill="#263238"/>
</svg>
