<svg width="651" height="398" viewBox="0 0 651 398" fill="none" xmlns="http://www.w3.org/2000/svg">
<path d="M49.0012 276.999C-9.98632 232.86 0.0125961 184.426 49.0022 155C123.985 128.249 207.277 90.2368 251 80.9996C393 50.9998 368 6.05586e-05 414 0C507.684 -0.000123333 515.644 42.2103 561.634 80.9996C607.625 119.789 519.956 138.885 548.001 178C571.496 210.77 617.622 225.252 561.634 266.716C505.646 308.181 344.991 347.725 302 329C259.009 310.274 107.989 321.139 49.0012 276.999Z" fill="#AED1EF" fill-opacity="0.21"/>
<path fill-rule="evenodd" clip-rule="evenodd" d="M588.188 69.7637C592.283 71.8977 596.021 74.5487 599.333 77.6137L611.24 73.3747L622.43 91.0397L613.513 99.9967C614.87 104.3 615.673 108.812 615.852 113.429L627.266 118.849L622.687 139.253L610.053 139.281C607.921 143.378 605.267 147.114 602.2 150.426L606.439 162.334L588.777 173.524L579.819 164.607C575.515 165.964 571.005 166.764 566.387 166.943L560.968 178.357L540.562 173.781L540.535 161.146C536.438 159.014 532.703 156.361 529.391 153.294L517.482 157.533L506.291 139.868L515.211 130.911C513.854 126.608 513.054 122.097 512.872 117.481L501.461 112.061L506.037 91.6557L518.671 91.6297C520.803 87.5327 523.456 83.7947 526.524 80.4837L522.285 68.5747L539.947 57.3837L548.905 66.3027C553.208 64.9457 557.719 64.1437 562.337 63.9647L567.756 52.5527L588.159 57.1297L588.188 69.7637ZM570.199 93.7737C558.111 91.0617 546.111 98.6627 543.4 110.753C540.688 122.841 548.292 134.839 560.379 137.551C572.469 140.262 584.466 132.66 587.177 120.572C589.889 108.483 582.289 96.4847 570.199 93.7737Z" fill="#E0E0E0"/>
<path d="M475.947 30.7107C475.947 30.7107 477.44 30.8147 479.863 31.9357C482.234 33.0397 485.592 35.4487 487.666 39.8337C488.674 42.0007 489.365 44.6237 489.259 47.4617C489.141 50.2777 488.388 53.3287 486.635 56.0137C485.8 57.3747 484.714 58.6277 483.449 59.7197C482.198 60.8297 480.743 61.7667 479.143 62.4517C475.97 63.8937 472.207 64.2707 468.596 63.4937C464.998 62.6557 461.756 60.7067 459.502 58.0477C458.348 56.7457 457.431 55.2757 456.774 53.7377C456.096 52.2107 455.649 50.6137 455.475 49.0267C455.037 45.8487 455.66 42.7687 456.755 40.1717C457.872 37.5597 459.617 35.4837 461.454 33.9547C465.203 30.8767 469.267 30.1327 471.883 30.1467C474.553 30.1667 475.947 30.7107 475.947 30.7107C475.929 30.8267 474.5 30.4217 471.893 30.5157C469.336 30.6127 465.432 31.4467 461.888 34.4677C460.151 35.9687 458.514 37.9777 457.481 40.4817C456.468 42.9717 455.904 45.9067 456.345 48.9147C456.52 50.4187 456.954 51.9277 457.605 53.3707C458.234 54.8237 459.108 56.2097 460.205 57.4367C462.346 59.9447 465.406 61.7717 468.805 62.5667C472.217 63.2977 475.764 62.9527 478.77 61.5997C480.285 60.9587 481.666 60.0787 482.856 59.0337C484.059 58.0077 485.096 56.8277 485.897 55.5427C487.581 53.0117 488.324 50.1177 488.472 47.4337C488.607 44.7287 487.985 42.2127 487.056 40.1137C485.142 35.8677 481.968 33.4457 479.697 32.2657C477.38 31.0687 475.914 30.8237 475.947 30.7107Z" fill="#E0E0E0"/>
<path d="M489.229 12.985C489.217 12.992 489.206 12.797 489.193 12.404C489.182 11.971 489.17 11.39 489.152 10.638C489.13 9.019 489.097 6.686 489.055 3.658L489.173 3.805C485.311 2.962 480.233 1.854 474.091 0.513L474.361 0.382C473.16 2.939 471.824 5.782 470.395 8.822L470.324 8.974L470.154 8.981C467.019 9.115 463.686 9.654 460.321 10.726L460.141 10.783L460.006 10.649C457.939 8.603 455.701 6.387 453.374 4.084L453.794 4.13C449.693 6.741 445.343 9.512 440.774 12.422L440.926 11.98C441.9 14.7 442.973 17.695 444.072 20.765L444.152 20.989L443.99 21.164C441.886 23.438 439.869 26.218 438.268 29.314L438.155 29.534H437.905C435.014 29.544 431.826 29.556 428.579 29.568L428.991 29.237C427.936 33.97 426.798 39.074 425.632 44.305L425.39 43.809C428.015 45.053 430.898 46.418 433.818 47.802L434.065 47.919L434.076 48.192C434.198 51.307 434.746 54.698 435.79 57.986L435.874 58.251L435.678 58.449C433.616 60.522 431.367 62.782 429.097 65.066L429.16 64.488C431.777 68.616 434.583 73.04 437.428 77.525L436.87 77.333C439.646 76.344 442.643 75.276 445.661 74.202L445.932 74.105L446.143 74.301C448.458 76.449 451.231 78.447 454.259 80.019L454.263 80.021L454.265 80.022C454.38 80.21 454.011 79.603 454.523 80.444V80.453V80.472V80.509V80.583L454.524 80.73V81.023L454.526 81.61L454.528 82.783L454.533 85.122C454.536 86.679 454.539 88.229 454.542 89.772L454.172 89.31C459.263 90.453 464.285 91.581 469.235 92.692L468.708 92.949C470.056 90.114 471.391 87.305 472.712 84.525L472.834 84.27L473.115 84.259C476.477 84.131 479.779 83.548 482.911 82.561L483.178 82.477L483.375 82.674C485.609 84.902 487.81 87.096 489.982 89.262L489.42 89.2C493.874 86.384 498.225 83.633 502.467 80.951L502.289 81.467C501.23 78.483 500.191 75.552 499.171 72.673L499.084 72.429L499.26 72.241C501.573 69.749 503.497 66.998 505.004 64.113L505.12 63.892H505.368C508.566 63.891 511.667 63.889 514.694 63.888L514.311 64.199C515.511 58.902 516.644 53.903 517.722 49.143L517.921 49.551C514.961 48.137 512.184 46.809 509.505 45.53L509.318 45.441L509.31 45.235C509.177 41.675 508.559 38.402 507.625 35.4L507.568 35.218L507.702 35.085C510.102 32.69 512.265 30.533 514.307 28.495L514.269 28.843C511.09 23.777 508.382 19.461 506.064 15.766L506.315 15.852C502.796 17.079 499.91 18.086 497.505 18.924L497.418 18.955L497.352 18.892C494.873 16.577 492.767 15.17 491.361 14.277C490.672 13.861 490.143 13.543 489.757 13.31C489.385 13.097 489.217 12.991 489.229 12.985C489.24 12.979 489.434 13.066 489.795 13.242C490.163 13.431 490.72 13.718 491.442 14.144C492.88 14.997 495.028 16.37 497.558 18.668L497.404 18.636C499.798 17.766 502.671 16.723 506.174 15.45L506.333 15.392L506.426 15.537C508.777 19.212 511.523 23.504 514.745 28.542L514.865 28.73L514.707 28.891C512.678 30.943 510.53 33.114 508.145 35.525L508.221 35.211C509.19 38.256 509.838 41.584 509.992 45.208L509.798 44.914C512.483 46.181 515.267 47.495 518.234 48.894L518.496 49.018L518.433 49.303C517.374 54.067 516.262 59.072 515.083 64.373L515.015 64.681L514.699 64.682C511.672 64.694 508.571 64.706 505.373 64.718L505.736 64.497C504.205 67.45 502.247 70.269 499.887 72.824L499.975 72.392C501.003 75.269 502.05 78.197 503.116 81.179L503.233 81.508L502.937 81.696C498.701 84.386 494.355 87.146 489.907 89.971L489.602 90.165L489.344 89.91C487.168 87.747 484.965 85.556 482.727 83.332L483.189 83.444C479.982 84.459 476.598 85.062 473.153 85.196L473.556 84.93C472.237 87.712 470.905 90.521 469.56 93.358L469.399 93.698L469.032 93.615C464.081 92.506 459.056 91.381 453.966 90.241L453.596 90.158L453.595 89.779C453.592 88.236 453.588 86.685 453.585 85.129L453.58 82.79L453.577 81.617L453.576 81.03L453.575 80.737V80.59V80.516V80.479V80.46V80.451C454.086 81.291 453.716 80.683 453.829 80.87L453.827 80.869L453.823 80.867C450.717 79.255 447.874 77.204 445.5 75.001L445.981 75.1C442.962 76.173 439.965 77.239 437.189 78.227L436.833 78.354L436.631 78.035C433.791 73.547 430.989 69.12 428.375 64.991L428.176 64.676L428.439 64.413C430.713 62.132 432.964 59.874 435.028 57.805L434.916 58.267C433.852 54.896 433.296 51.421 433.177 48.232L433.434 48.622C430.517 47.232 427.637 45.861 425.014 44.612L424.695 44.46L424.773 44.115C425.952 38.887 427.102 33.786 428.169 29.055L428.243 28.724H428.582C431.828 28.722 435.017 28.72 437.908 28.719L437.546 28.939C439.192 25.78 441.262 22.947 443.418 20.633L443.336 21.031C442.249 17.957 441.188 14.957 440.224 12.234L440.124 11.951L440.376 11.792C444.958 8.903 449.322 6.152 453.435 3.56L453.664 3.415L453.854 3.606C456.168 5.923 458.393 8.151 460.449 10.209L460.136 10.132C463.563 9.063 466.952 8.538 470.135 8.425L469.894 8.584C471.347 5.554 472.707 2.723 473.928 0.175003L474.012 0L474.2 0.0430031C480.326 1.455 485.391 2.622 489.243 3.509L489.363 3.536L489.361 3.656C489.334 6.657 489.312 8.97 489.298 10.575C489.283 11.337 489.273 11.925 489.265 12.365C489.251 12.769 489.24 12.978 489.229 12.985Z" fill="#E0E0E0"/>
<path d="M72.7909 243.68C72.7909 243.68 73.7909 243.914 75.3099 244.942C76.7939 245.952 78.8039 247.955 79.7259 251.155C80.1699 252.734 80.3489 254.588 79.9639 256.5C79.5729 258.395 78.7259 260.379 77.2419 262.005C76.5259 262.836 75.6519 263.565 74.6749 264.165C73.7049 264.779 72.6149 265.254 71.4559 265.541C69.1469 266.168 66.5559 266.009 64.1949 265.084C61.8489 264.118 59.8669 262.44 58.6329 260.39C57.9939 259.38 57.5359 258.284 57.2599 257.169C56.9689 256.059 56.8429 254.928 56.8999 253.833C56.9539 251.631 57.7149 249.612 58.7439 247.974C59.7889 246.328 61.2009 245.113 62.6139 244.28C65.4939 242.608 68.3299 242.552 70.0999 242.85C71.9059 243.157 72.7909 243.68 72.7909 243.68C72.7659 243.756 71.8419 243.325 70.0659 243.1C68.3229 242.884 65.5849 243.019 62.8499 244.675C61.5069 245.5 60.1769 246.681 59.1999 248.263C58.2399 249.839 57.5329 251.765 57.4999 253.852C57.4529 254.891 57.5809 255.961 57.8619 257.01C58.1279 258.065 58.5669 259.1 59.1749 260.052C60.3489 261.988 62.2209 263.564 64.4369 264.477C66.6679 265.349 69.1089 265.507 71.2949 264.921C72.3929 264.654 73.4259 264.21 74.3469 263.633C75.2759 263.07 76.1089 262.386 76.7929 261.604C78.2119 260.075 79.0359 258.195 79.4319 256.393C79.8219 254.576 79.6779 252.802 79.2799 251.277C78.4519 248.189 76.5679 246.197 75.1589 245.147C73.7229 244.08 72.7559 243.752 72.7909 243.68Z" fill="#E0E0E0"/>
<path d="M83.7459 233.133C83.7379 233.136 83.7509 233.002 83.7859 232.735C83.8269 232.441 83.8819 232.046 83.9529 231.535C84.1159 230.434 84.3519 228.85 84.6579 226.794L84.7209 226.907C82.1979 225.91 78.8789 224.598 74.8649 223.013L75.0629 222.953C73.9659 224.554 72.7479 226.332 71.4439 228.234L71.3789 228.33L71.2629 228.316C69.1239 228.06 66.8059 228.058 64.4079 228.414L64.2799 228.433L64.2029 228.328C63.0279 226.714 61.7559 224.966 60.4329 223.148L60.7129 223.225C57.6469 224.542 54.3919 225.94 50.9759 227.407L51.1279 227.125C51.4879 229.075 51.8839 231.224 52.2909 233.425L52.3209 233.586L52.1919 233.687C50.5159 234.996 48.8419 236.657 47.4159 238.579L47.3139 238.716L47.1449 238.689C45.1849 238.377 43.0229 238.033 40.8219 237.683L41.1379 237.504C39.9009 240.594 38.5659 243.927 37.1989 247.343L37.0899 246.981C38.7319 248.113 40.5339 249.356 42.3609 250.617L42.5149 250.723L42.4919 250.909C42.2309 253.033 42.2279 255.391 42.5729 257.735L42.6009 257.923L42.4459 258.035C40.8209 259.212 39.0479 260.496 37.2569 261.793L37.3639 261.408C38.6819 264.494 40.0949 267.802 41.5279 271.155L41.1719 270.963C43.1629 270.6 45.3109 270.207 47.4749 269.812L47.6689 269.776L47.7899 269.932C49.1219 271.643 50.7799 273.303 52.6589 274.703L52.6609 274.704L52.6619 274.705C52.7189 274.846 52.5369 274.393 52.7899 275.019L52.7889 275.025L52.7869 275.038L52.7829 275.063L52.7749 275.113L52.7589 275.213L52.7269 275.412L52.6639 275.809L52.5359 276.604L52.2809 278.19C52.1119 279.245 51.9429 280.295 51.7739 281.341L51.5739 280.987C54.8969 282.323 58.1769 283.641 61.4079 284.94L61.0219 285.056C62.2479 283.284 63.4619 281.528 64.6639 279.789L64.7749 279.63L64.9669 279.653C67.2589 279.937 69.5609 279.906 71.7919 279.584L71.9809 279.557L72.0929 279.711C73.3619 281.468 74.6109 283.197 75.8439 284.904L75.4699 284.8C78.7989 283.383 82.0509 281.999 85.2209 280.651L85.0429 280.981C84.6549 278.841 84.2739 276.741 83.8999 274.677L83.8679 274.502L84.0079 274.394C85.8509 272.96 87.4579 271.308 88.7979 269.52L88.9009 269.383L89.0689 269.41C91.2359 269.762 93.3369 270.102 95.3889 270.435L95.0949 270.602C96.4919 267.145 97.8119 263.882 99.0669 260.776L99.1569 261.075C97.3069 259.79 95.5719 258.584 93.8979 257.421L93.7809 257.34L93.7989 257.2C94.1019 254.772 94.0449 252.486 93.7429 250.349L93.7249 250.22L93.8299 250.145C95.7209 248.787 97.4239 247.563 99.0329 246.408L98.9689 246.639C97.3739 242.856 96.0149 239.633 94.8519 236.873L95.0129 236.959C92.4929 237.402 90.4259 237.767 88.7039 238.069L88.6409 238.08L88.6019 238.03C87.1779 236.188 85.9069 235.003 85.0519 234.242C84.6309 233.885 84.3079 233.611 84.0719 233.41C83.8399 233.226 83.7379 233.136 83.7459 233.133C83.7539 233.129 83.8769 233.21 84.1019 233.369C84.3309 233.538 84.6759 233.794 85.1189 234.162C85.9999 234.898 87.3029 236.065 88.7649 237.902L88.6629 237.863C90.3809 237.539 92.4429 237.148 94.9569 236.673L95.0709 236.652L95.1179 236.759C96.3059 239.508 97.6929 242.72 99.3209 246.489L99.3819 246.63L99.2569 246.721C97.6559 247.888 95.9609 249.122 94.0789 250.492L94.1649 250.288C94.4849 252.458 94.5579 254.784 94.2619 257.257L94.1629 257.036C95.8419 258.19 97.5839 259.388 99.4399 260.664L99.6039 260.776L99.5299 260.963C98.2869 264.074 96.9809 267.343 95.5969 270.805L95.5169 271.006L95.3019 270.972C93.2489 270.646 91.1469 270.312 88.9789 269.967L89.2499 269.858C87.8869 271.69 86.2489 273.384 84.3679 274.855L84.4759 274.572C84.8549 276.635 85.2419 278.735 85.6339 280.873L85.6769 281.109L85.4559 281.203C82.2889 282.558 79.0399 283.949 75.7139 285.373L75.4859 285.471L75.3399 285.27C74.1039 283.564 72.8519 281.836 71.5809 280.082L71.8819 280.209C69.5959 280.543 67.2369 280.578 64.8879 280.289L65.1899 280.153C63.9899 281.892 62.7769 283.649 61.5519 285.423L61.4059 285.636L61.1659 285.539C57.9339 284.242 54.6529 282.925 51.3299 281.591L51.0879 281.494L51.1299 281.236C51.2979 280.19 51.4659 279.139 51.6359 278.085L51.8909 276.499L52.0179 275.704L52.0819 275.307L52.1139 275.108L52.1299 275.008L52.1379 274.958L52.1419 274.933L52.1439 274.92L52.1449 274.914C52.3989 275.54 52.2149 275.087 52.2709 275.227L52.2699 275.226L52.2679 275.224C50.3409 273.788 48.6409 272.086 47.2759 270.331L47.5909 270.451C45.4269 270.846 43.2789 271.237 41.2879 271.599L41.0329 271.646L40.9309 271.408C39.5009 268.054 38.0909 264.745 36.7749 261.658L36.6749 261.423L36.8819 261.274C38.6739 259.98 40.4489 258.699 42.0759 257.524L41.9489 257.825C41.5989 255.424 41.6059 253.008 41.8779 250.833L42.0089 251.126C40.1849 249.862 38.3849 248.615 36.7459 247.48L36.5459 247.342L36.6359 247.116C38.0119 243.704 39.3539 240.374 40.5989 237.287L40.6859 237.07L40.9149 237.107C43.1159 237.464 45.2759 237.815 47.2349 238.132L46.9649 238.241C48.4289 236.282 50.1449 234.591 51.8609 233.261L51.7609 233.523C51.3629 231.319 50.9749 229.169 50.6229 227.218L50.5859 227.015L50.7739 226.935C54.1969 225.484 57.4579 224.101 60.5299 222.798L60.7009 222.725L60.8089 222.875C62.1219 224.701 63.3829 226.456 64.5489 228.077L64.3449 227.99C66.7849 227.644 69.1399 227.662 71.3089 227.936L71.1279 228.018C72.4469 226.125 73.6799 224.357 74.7889 222.765L74.8649 222.656L74.9869 222.706C78.9829 224.339 82.2859 225.687 84.7989 226.714L84.8769 226.746L84.8629 226.827C84.5129 228.858 84.2429 230.423 84.0559 231.508C83.9619 232.024 83.8899 232.421 83.8359 232.717C83.7849 232.989 83.7539 233.129 83.7459 233.133Z" fill="#E0E0E0"/>
<path fill-rule="evenodd" clip-rule="evenodd" d="M167.354 286.28C170.639 288.734 173.537 291.593 176.003 294.752L187.046 292.735L194.336 309.818L185.24 316.397C185.816 320.363 185.876 324.433 185.374 328.505L194.606 334.886L187.68 352.119L176.601 350.341C174.147 353.628 171.288 356.526 168.126 358.989L170.143 370.034L153.062 377.323L146.482 368.227C142.516 368.803 138.447 368.86 134.374 368.358L127.995 377.59L110.759 370.666L112.539 359.586C109.251 357.132 106.355 354.273 103.89 351.112L92.8448 353.129L85.5548 336.046L94.6528 329.467C94.0768 325.501 94.0198 321.433 94.5198 317.36L85.2898 310.98L92.2138 293.745L103.293 295.525C105.747 292.238 108.607 289.339 111.768 286.875L109.751 275.831L126.832 268.541L133.412 277.639C137.378 277.063 141.447 277.004 145.521 277.506L151.9 268.275L169.131 275.199L167.354 286.28ZM148.156 304.76C137.947 300.657 126.342 305.608 122.24 315.82C118.137 326.031 123.091 337.633 133.3 341.736C143.512 345.839 155.114 340.886 159.217 330.676C163.318 320.464 158.368 308.863 148.156 304.76Z" fill="#E0E0E0"/>
<path d="M567.125 108.473H295.28V266.869H567.125V108.473Z" fill="#263238"/>
<path d="M316.541 258.896C316.397 258.896 316.281 226.505 316.281 186.559C316.281 146.599 316.398 114.215 316.541 114.215C316.685 114.215 316.801 146.599 316.801 186.559C316.801 226.505 316.685 258.896 316.541 258.896Z" fill="#E0E0E0"/>
<path d="M306.45 120.579C308.936 120.579 310.952 120.462 310.952 120.318C310.952 120.173 308.936 120.057 306.45 120.057C303.963 120.057 301.948 120.173 301.948 120.318C301.948 120.462 303.963 120.579 306.45 120.579Z" fill="#E0E0E0"/>
<path d="M306.45 130.112C308.936 130.112 310.952 129.995 310.952 129.852C310.952 129.708 308.936 129.592 306.45 129.592C303.963 129.592 301.948 129.708 301.948 129.852C301.948 129.995 303.963 130.112 306.45 130.112Z" fill="#E0E0E0"/>
<path d="M306.45 139.645C308.936 139.645 310.952 139.529 310.952 139.385C310.952 139.241 308.936 139.125 306.45 139.125C303.963 139.125 301.948 139.241 301.948 139.385C301.948 139.529 303.963 139.645 306.45 139.645Z" fill="#E0E0E0"/>
<path d="M306.45 149.178C308.936 149.178 310.952 149.061 310.952 148.917C310.952 148.773 308.936 148.656 306.45 148.656C303.963 148.656 301.948 148.773 301.948 148.917C301.948 149.061 303.963 149.178 306.45 149.178Z" fill="#E0E0E0"/>
<path d="M306.45 158.711C308.936 158.711 310.952 158.595 310.952 158.451C310.952 158.308 308.936 158.191 306.45 158.191C303.963 158.191 301.948 158.308 301.948 158.451C301.948 158.595 303.963 158.711 306.45 158.711Z" fill="#E0E0E0"/>
<path d="M306.45 168.245C308.936 168.245 310.952 168.128 310.952 167.984C310.952 167.84 308.936 167.723 306.45 167.723C303.963 167.723 301.948 167.84 301.948 167.984C301.948 168.128 303.963 168.245 306.45 168.245Z" fill="#E0E0E0"/>
<path d="M306.45 177.778C308.936 177.778 310.952 177.661 310.952 177.518C310.952 177.374 308.936 177.258 306.45 177.258C303.963 177.258 301.948 177.374 301.948 177.518C301.948 177.661 303.963 177.778 306.45 177.778Z" fill="#E0E0E0"/>
<path d="M306.45 187.313C308.936 187.313 310.952 187.196 310.952 187.052C310.952 186.908 308.936 186.791 306.45 186.791C303.963 186.791 301.948 186.908 301.948 187.052C301.948 187.196 303.963 187.313 306.45 187.313Z" fill="#E0E0E0"/>
<path d="M306.45 196.846C308.936 196.846 310.952 196.73 310.952 196.586C310.952 196.443 308.936 196.326 306.45 196.326C303.963 196.326 301.948 196.443 301.948 196.586C301.948 196.73 303.963 196.846 306.45 196.846Z" fill="#E0E0E0"/>
<path d="M306.45 206.379C308.936 206.379 310.952 206.263 310.952 206.119C310.952 205.976 308.936 205.859 306.45 205.859C303.963 205.859 301.948 205.976 301.948 206.119C301.948 206.263 303.963 206.379 306.45 206.379Z" fill="#E0E0E0"/>
<path d="M306.45 215.913C308.936 215.913 310.952 215.796 310.952 215.653C310.952 215.509 308.936 215.393 306.45 215.393C303.963 215.393 301.948 215.509 301.948 215.653C301.948 215.796 303.963 215.913 306.45 215.913Z" fill="#E0E0E0"/>
<path d="M306.45 225.446C308.936 225.446 310.952 225.329 310.952 225.185C310.952 225.041 308.936 224.924 306.45 224.924C303.963 224.924 301.948 225.041 301.948 225.185C301.948 225.329 303.963 225.446 306.45 225.446Z" fill="#E0E0E0"/>
<path d="M306.45 234.979C308.936 234.979 310.952 234.862 310.952 234.718C310.952 234.574 308.936 234.457 306.45 234.457C303.963 234.457 301.948 234.574 301.948 234.718C301.948 234.862 303.963 234.979 306.45 234.979Z" fill="#E0E0E0"/>
<path d="M306.45 244.512C308.936 244.512 310.952 244.395 310.952 244.251C310.952 244.107 308.936 243.99 306.45 243.99C303.963 243.99 301.948 244.107 301.948 244.251C301.948 244.395 303.963 244.512 306.45 244.512Z" fill="#E0E0E0"/>
<path d="M306.45 254.045C308.936 254.045 310.952 253.929 310.952 253.785C310.952 253.642 308.936 253.525 306.45 253.525C303.963 253.525 301.948 253.642 301.948 253.785C301.948 253.929 303.963 254.045 306.45 254.045Z" fill="#E0E0E0"/>
<path d="M335.354 120.016C341.806 120.016 347.036 119.9 347.036 119.756C347.036 119.613 341.806 119.496 335.354 119.496C328.902 119.496 323.672 119.613 323.672 119.756C323.672 119.9 328.902 120.016 335.354 120.016Z" fill="#E8505B"/>
<path d="M335.354 254.045C341.806 254.045 347.036 253.929 347.036 253.785C347.036 253.642 341.806 253.525 335.354 253.525C328.902 253.525 323.672 253.642 323.672 253.785C323.672 253.929 328.902 254.045 335.354 254.045Z" fill="#E8505B"/>
<path d="M357.717 139.645C369.788 139.645 379.574 139.529 379.574 139.385C379.574 139.241 369.788 139.125 357.717 139.125C345.646 139.125 335.86 139.241 335.86 139.385C335.86 139.529 345.646 139.645 357.717 139.645Z" fill="#E8505B"/>
<path d="M408.265 139.645C420.336 139.645 430.122 139.529 430.122 139.385C430.122 139.241 420.336 139.125 408.265 139.125C396.193 139.125 386.408 139.241 386.408 139.385C386.408 139.529 396.193 139.645 408.265 139.645Z" fill="#E0E0E0"/>
<path d="M410.803 148.918C410.803 149.062 396.38 149.179 378.593 149.179C360.799 149.179 346.379 149.062 346.379 148.918C346.379 148.774 360.799 148.658 378.593 148.658C396.38 148.658 410.803 148.775 410.803 148.918Z" fill="#E0E0E0"/>
<path d="M410.803 158.451C410.803 158.595 396.38 158.711 378.593 158.711C360.799 158.711 346.379 158.595 346.379 158.451C346.379 158.307 360.799 158.191 378.593 158.191C396.38 158.191 410.803 158.307 410.803 158.451Z" fill="#E0E0E0"/>
<path d="M455.15 187.051C455.15 187.195 440.727 187.312 422.939 187.312C405.145 187.312 390.725 187.195 390.725 187.051C390.725 186.907 405.145 186.791 422.939 186.791C440.727 186.791 455.15 186.907 455.15 187.051Z" fill="#E0E0E0"/>
<path d="M436.013 167.985C436.013 168.129 421.59 168.246 403.803 168.246C386.009 168.246 371.589 168.129 371.589 167.985C371.589 167.841 386.009 167.725 403.803 167.725C421.59 167.725 436.013 167.842 436.013 167.985Z" fill="#E0E0E0"/>
<path d="M514.741 167.985C514.741 168.129 500.318 168.246 482.531 168.246C464.737 168.246 450.317 168.129 450.317 167.985C450.317 167.841 464.737 167.725 482.531 167.725C500.318 167.725 514.741 167.842 514.741 167.985Z" fill="#E0E0E0"/>
<path d="M487.362 148.918C487.362 149.062 472.939 149.179 455.151 149.179C437.358 149.179 422.938 149.062 422.938 148.918C422.938 148.774 437.358 148.658 455.151 148.658C472.939 148.658 487.362 148.775 487.362 148.918Z" fill="#FAFAFA"/>
<path d="M531.864 187.051C531.864 187.195 517.44 187.312 499.653 187.312C481.859 187.312 467.439 187.195 467.439 187.051C467.439 186.907 481.859 186.791 499.653 186.791C517.44 186.791 531.864 186.907 531.864 187.051Z" fill="#FAFAFA"/>
<path d="M522.977 158.451C522.977 158.595 500.581 158.711 472.959 158.711C445.329 158.711 422.938 158.595 422.938 158.451C422.938 158.307 445.33 158.191 472.959 158.191C500.581 158.191 522.977 158.307 522.977 158.451Z" fill="#455A64"/>
<path d="M335.354 130.112C341.806 130.112 347.036 129.995 347.036 129.852C347.036 129.708 341.806 129.592 335.354 129.592C328.902 129.592 323.672 129.708 323.672 129.852C323.672 129.995 328.902 130.112 335.354 130.112Z" fill="#FAFAFA"/>
<path d="M335.354 244.512C341.806 244.512 347.036 244.395 347.036 244.251C347.036 244.107 341.806 243.99 335.354 243.99C328.902 243.99 323.672 244.107 323.672 244.251C323.672 244.395 328.902 244.512 335.354 244.512Z" fill="#FAFAFA"/>
<path d="M346.929 168.245C353.381 168.245 358.612 168.128 358.612 167.984C358.612 167.84 353.381 167.723 346.929 167.723C340.476 167.723 335.246 167.84 335.246 167.984C335.246 168.128 340.476 168.245 346.929 168.245Z" fill="#FAFAFA"/>
<path d="M534.186 168.245C540.638 168.245 545.869 168.128 545.869 167.984C545.869 167.84 540.638 167.723 534.186 167.723C527.734 167.723 522.503 167.84 522.503 167.984C522.503 168.128 527.734 168.245 534.186 168.245Z" fill="#E8505B"/>
<path d="M357.717 206.323C369.788 206.323 379.574 206.206 379.574 206.062C379.574 205.918 369.788 205.801 357.717 205.801C345.646 205.801 335.86 205.918 335.86 206.062C335.86 206.206 345.646 206.323 357.717 206.323Z" fill="#E8505B"/>
<path d="M408.265 206.323C420.336 206.323 430.122 206.206 430.122 206.062C430.122 205.918 420.336 205.801 408.265 205.801C396.193 205.801 386.408 205.918 386.408 206.062C386.408 206.206 396.193 206.323 408.265 206.323Z" fill="#E0E0E0"/>
<path d="M410.803 215.596C410.803 215.741 396.38 215.857 378.593 215.857C360.799 215.857 346.379 215.741 346.379 215.596C346.379 215.452 360.799 215.336 378.593 215.336C396.38 215.336 410.803 215.452 410.803 215.596Z" fill="#E0E0E0"/>
<path d="M410.803 225.129C410.803 225.274 396.38 225.39 378.593 225.39C360.799 225.39 346.379 225.274 346.379 225.129C346.379 224.985 360.799 224.869 378.593 224.869C396.38 224.869 410.803 224.986 410.803 225.129Z" fill="#E0E0E0"/>
<path d="M436.013 234.663C436.013 234.807 421.59 234.923 403.803 234.923C386.009 234.923 371.589 234.807 371.589 234.663C371.589 234.519 386.009 234.402 403.803 234.402C421.59 234.403 436.013 234.52 436.013 234.663Z" fill="#E0E0E0"/>
<path d="M514.741 234.663C514.741 234.807 500.318 234.923 482.531 234.923C464.737 234.923 450.317 234.807 450.317 234.663C450.317 234.519 464.737 234.402 482.531 234.402C500.318 234.403 514.741 234.52 514.741 234.663Z" fill="#E0E0E0"/>
<path d="M487.362 215.596C487.362 215.741 472.939 215.857 455.151 215.857C437.358 215.857 422.938 215.741 422.938 215.596C422.938 215.452 437.358 215.336 455.151 215.336C472.939 215.336 487.362 215.452 487.362 215.596Z" fill="#FAFAFA"/>
<path d="M522.977 225.129C522.977 225.274 500.581 225.39 472.959 225.39C445.329 225.39 422.938 225.274 422.938 225.129C422.938 224.985 445.33 224.869 472.959 224.869C500.581 224.869 522.977 224.986 522.977 225.129Z" fill="#455A64"/>
<path d="M346.929 234.922C353.381 234.922 358.612 234.806 358.612 234.662C358.612 234.519 353.381 234.402 346.929 234.402C340.476 234.402 335.246 234.519 335.246 234.662C335.246 234.806 340.476 234.922 346.929 234.922Z" fill="#FAFAFA"/>
<path d="M534.186 234.922C540.638 234.922 545.869 234.806 545.869 234.662C545.869 234.519 540.638 234.402 534.186 234.402C527.734 234.402 522.503 234.519 522.503 234.662C522.503 234.806 527.734 234.922 534.186 234.922Z" fill="#E8505B"/>
<path d="M442.168 393.952H159.365C151.32 393.952 144.798 387.431 144.798 379.385V195.423C144.798 191.142 148.268 187.672 152.549 187.672H449.995C453.718 187.672 456.735 190.69 456.735 194.412V379.385C456.735 387.431 450.212 393.952 442.168 393.952Z" fill="#455A64"/>
<path d="M455.991 396.744H145.474C137.896 396.744 131.753 390.6 131.753 383.022V378.695H469.712V383.022C469.712 390.601 463.57 396.744 455.991 396.744Z" fill="#455A64"/>
<path d="M447.489 195.867H153.171V370.068H447.489V195.867Z" fill="#E0E0E0"/>
<path d="M270.016 378.697L274.21 385.367H333.221L337.116 378.697H270.016Z" fill="#263238"/>
<path d="M456.785 378.635H144.848V379.63H456.785V378.635Z" fill="#263238"/>
<path d="M439.466 205.959H161.903V370.067H439.466V205.959Z" fill="#263238"/>
<path d="M183.199 365.251C183.055 365.251 182.938 330.299 182.938 287.193C182.938 244.073 183.055 209.129 183.199 209.129C183.343 209.129 183.459 244.073 183.459 287.193C183.46 330.299 183.343 365.251 183.199 365.251Z" fill="#E0E0E0"/>
<path d="M173.091 223.542C175.581 223.542 177.6 223.425 177.6 223.281C177.6 223.138 175.581 223.021 173.091 223.021C170.601 223.021 168.582 223.138 168.582 223.281C168.582 223.425 170.601 223.542 173.091 223.542Z" fill="#E0E0E0"/>
<path d="M173.439 214.682C175.929 214.682 177.948 214.565 177.948 214.421C177.948 214.277 175.929 214.16 173.439 214.16C170.949 214.16 168.93 214.277 168.93 214.421C168.93 214.565 170.949 214.682 173.439 214.682Z" fill="#E0E0E0"/>
<path d="M173.091 233.09C175.581 233.09 177.6 232.974 177.6 232.83C177.6 232.687 175.581 232.57 173.091 232.57C170.601 232.57 168.582 232.687 168.582 232.83C168.582 232.974 170.601 233.09 173.091 233.09Z" fill="#E0E0E0"/>
<path d="M173.091 242.639C175.581 242.639 177.6 242.523 177.6 242.379C177.6 242.236 175.581 242.119 173.091 242.119C170.601 242.119 168.582 242.236 168.582 242.379C168.582 242.523 170.601 242.639 173.091 242.639Z" fill="#E0E0E0"/>
<path d="M173.091 252.188C175.581 252.188 177.6 252.072 177.6 251.928C177.6 251.784 175.581 251.668 173.091 251.668C170.601 251.668 168.582 251.784 168.582 251.928C168.582 252.072 170.601 252.188 173.091 252.188Z" fill="#E0E0E0"/>
<path d="M173.091 261.737C175.581 261.737 177.6 261.62 177.6 261.476C177.6 261.332 175.581 261.215 173.091 261.215C170.601 261.215 168.582 261.332 168.582 261.476C168.582 261.62 170.601 261.737 173.091 261.737Z" fill="#E0E0E0"/>
<path d="M173.091 271.286C175.581 271.286 177.6 271.169 177.6 271.025C177.6 270.881 175.581 270.764 173.091 270.764C170.601 270.764 168.582 270.881 168.582 271.025C168.582 271.169 170.601 271.286 173.091 271.286Z" fill="#E0E0E0"/>
<path d="M173.091 280.835C175.581 280.835 177.6 280.718 177.6 280.573C177.6 280.429 175.581 280.312 173.091 280.312C170.601 280.312 168.582 280.429 168.582 280.573C168.582 280.718 170.601 280.835 173.091 280.835Z" fill="#E0E0E0"/>
<path d="M173.091 290.383C175.581 290.383 177.6 290.266 177.6 290.122C177.6 289.978 175.581 289.861 173.091 289.861C170.601 289.861 168.582 289.978 168.582 290.122C168.582 290.266 170.601 290.383 173.091 290.383Z" fill="#E0E0E0"/>
<path d="M173.091 299.932C175.581 299.932 177.6 299.815 177.6 299.671C177.6 299.527 175.581 299.41 173.091 299.41C170.601 299.41 168.582 299.527 168.582 299.671C168.582 299.815 170.601 299.932 173.091 299.932Z" fill="#E0E0E0"/>
<path d="M173.091 309.481C175.581 309.481 177.6 309.364 177.6 309.22C177.6 309.076 175.581 308.959 173.091 308.959C170.601 308.959 168.582 309.076 168.582 309.22C168.582 309.364 170.601 309.481 173.091 309.481Z" fill="#E0E0E0"/>
<path d="M173.091 319.03C175.581 319.03 177.6 318.913 177.6 318.769C177.6 318.625 175.581 318.508 173.091 318.508C170.601 318.508 168.582 318.625 168.582 318.769C168.582 318.913 170.601 319.03 173.091 319.03Z" fill="#E0E0E0"/>
<path d="M173.091 328.579C175.581 328.579 177.6 328.462 177.6 328.318C177.6 328.174 175.581 328.057 173.091 328.057C170.601 328.057 168.582 328.174 168.582 328.318C168.582 328.462 170.601 328.579 173.091 328.579Z" fill="#E0E0E0"/>
<path d="M173.091 338.127C175.581 338.127 177.6 338.011 177.6 337.867C177.6 337.724 175.581 337.607 173.091 337.607C170.601 337.607 168.582 337.724 168.582 337.867C168.582 338.011 170.601 338.127 173.091 338.127Z" fill="#E0E0E0"/>
<path d="M173.091 347.674C175.581 347.674 177.6 347.558 177.6 347.414C177.6 347.271 175.581 347.154 173.091 347.154C170.601 347.154 168.582 347.271 168.582 347.414C168.582 347.558 170.601 347.674 173.091 347.674Z" fill="#E0E0E0"/>
<path d="M173.091 357.223C175.581 357.223 177.6 357.107 177.6 356.963C177.6 356.82 175.581 356.703 173.091 356.703C170.601 356.703 168.582 356.82 168.582 356.963C168.582 357.107 170.601 357.223 173.091 357.223Z" fill="#E0E0E0"/>
<path d="M202.043 222.979C208.505 222.979 213.744 222.862 213.744 222.718C213.744 222.574 208.505 222.457 202.043 222.457C195.581 222.457 190.342 222.574 190.342 222.718C190.342 222.862 195.581 222.979 202.043 222.979Z" fill="#E8505B"/>
<path d="M202.043 357.223C208.505 357.223 213.744 357.107 213.744 356.963C213.744 356.82 208.505 356.703 202.043 356.703C195.581 356.703 190.342 356.82 190.342 356.963C190.342 357.107 195.581 357.223 202.043 357.223Z" fill="#E8505B"/>
<path d="M224.441 242.639C236.532 242.639 246.334 242.523 246.334 242.379C246.334 242.236 236.532 242.119 224.441 242.119C212.35 242.119 202.548 242.236 202.548 242.379C202.548 242.523 212.35 242.639 224.441 242.639Z" fill="#E8505B"/>
<path d="M275.071 242.639C287.162 242.639 296.964 242.523 296.964 242.379C296.964 242.236 287.162 242.119 275.071 242.119C262.98 242.119 253.178 242.236 253.178 242.379C253.178 242.523 262.98 242.639 275.071 242.639Z" fill="#E0E0E0"/>
<path d="M277.613 251.927C277.613 252.071 263.167 252.187 245.351 252.187C227.528 252.187 213.085 252.071 213.085 251.927C213.085 251.782 227.528 251.666 245.351 251.666C263.167 251.666 277.613 251.782 277.613 251.927Z" fill="#E0E0E0"/>
<path d="M277.613 261.475C277.613 261.62 263.167 261.736 245.351 261.736C227.528 261.736 213.085 261.62 213.085 261.475C213.085 261.331 227.528 261.215 245.351 261.215C263.167 261.215 277.613 261.331 277.613 261.475Z" fill="#E0E0E0"/>
<path d="M322.031 290.121C322.031 290.266 307.585 290.382 289.768 290.382C271.946 290.382 257.503 290.266 257.503 290.121C257.503 289.977 271.946 289.861 289.768 289.861C307.585 289.862 322.031 289.978 322.031 290.121Z" fill="#E0E0E0"/>
<path d="M302.864 271.026C302.864 271.171 288.418 271.287 270.601 271.287C252.779 271.287 238.336 271.171 238.336 271.026C238.336 270.882 252.779 270.766 270.601 270.766C288.418 270.766 302.864 270.882 302.864 271.026Z" fill="#E0E0E0"/>
<path d="M381.718 271.026C381.718 271.171 367.272 271.287 349.455 271.287C331.633 271.287 317.189 271.171 317.189 271.026C317.189 270.882 331.632 270.766 349.455 270.766C367.272 270.766 381.718 270.882 381.718 271.026Z" fill="#E0E0E0"/>
<path d="M354.294 251.927C354.294 252.071 339.848 252.187 322.032 252.187C304.21 252.187 289.766 252.071 289.766 251.927C289.766 251.782 304.209 251.666 322.032 251.666C339.848 251.666 354.294 251.782 354.294 251.927Z" fill="#FAFAFA"/>
<path d="M398.868 290.121C398.868 290.266 384.422 290.382 366.606 290.382C348.783 290.382 334.34 290.266 334.34 290.121C334.34 289.977 348.782 289.861 366.606 289.861C384.421 289.862 398.868 289.978 398.868 290.121Z" fill="#FAFAFA"/>
<path d="M389.967 261.475C389.967 261.62 367.534 261.736 339.869 261.736C312.194 261.736 289.766 261.62 289.766 261.475C289.766 261.331 312.194 261.215 339.869 261.215C367.535 261.215 389.967 261.331 389.967 261.475Z" fill="#455A64"/>
<path d="M202.043 233.09C208.505 233.09 213.744 232.974 213.744 232.83C213.744 232.687 208.505 232.57 202.043 232.57C195.581 232.57 190.342 232.687 190.342 232.83C190.342 232.974 195.581 233.09 202.043 233.09Z" fill="#FAFAFA"/>
<path d="M202.043 347.674C208.505 347.674 213.744 347.558 213.744 347.414C213.744 347.271 208.505 347.154 202.043 347.154C195.581 347.154 190.342 347.271 190.342 347.414C190.342 347.558 195.581 347.674 202.043 347.674Z" fill="#FAFAFA"/>
<path d="M213.636 271.286C220.098 271.286 225.337 271.169 225.337 271.025C225.337 270.881 220.098 270.764 213.636 270.764C207.174 270.764 201.935 270.881 201.935 271.025C201.935 271.169 207.174 271.286 213.636 271.286Z" fill="#FAFAFA"/>
<path d="M401.194 271.286C407.656 271.286 412.895 271.169 412.895 271.025C412.895 270.881 407.656 270.764 401.194 270.764C394.732 270.764 389.493 270.881 389.493 271.025C389.493 271.169 394.732 271.286 401.194 271.286Z" fill="#E8505B"/>
<path d="M224.441 309.424C236.532 309.424 246.334 309.308 246.334 309.164C246.334 309.021 236.532 308.904 224.441 308.904C212.35 308.904 202.548 309.021 202.548 309.164C202.548 309.308 212.35 309.424 224.441 309.424Z" fill="#E8505B"/>
<path d="M275.071 309.424C287.162 309.424 296.964 309.308 296.964 309.164C296.964 309.021 287.162 308.904 275.071 308.904C262.98 308.904 253.178 309.021 253.178 309.164C253.178 309.308 262.98 309.424 275.071 309.424Z" fill="#E0E0E0"/>
<path d="M277.613 318.711C277.613 318.856 263.167 318.972 245.351 318.972C227.528 318.972 213.085 318.856 213.085 318.711C213.085 318.567 227.528 318.451 245.351 318.451C263.167 318.451 277.613 318.568 277.613 318.711Z" fill="#E0E0E0"/>
<path d="M277.613 328.26C277.613 328.405 263.167 328.521 245.351 328.521C227.528 328.521 213.085 328.405 213.085 328.26C213.085 328.116 227.528 328 245.351 328C263.167 328 277.613 328.116 277.613 328.26Z" fill="#E0E0E0"/>
<path d="M302.864 337.811C302.864 337.956 288.418 338.072 270.601 338.072C252.779 338.072 238.336 337.956 238.336 337.811C238.336 337.667 252.779 337.551 270.601 337.551C288.418 337.551 302.864 337.667 302.864 337.811Z" fill="#E0E0E0"/>
<path d="M381.718 337.811C381.718 337.956 367.272 338.072 349.455 338.072C331.633 338.072 317.189 337.956 317.189 337.811C317.189 337.667 331.632 337.551 349.455 337.551C367.272 337.551 381.718 337.667 381.718 337.811Z" fill="#E0E0E0"/>
<path d="M354.294 318.711C354.294 318.856 339.848 318.972 322.032 318.972C304.21 318.972 289.766 318.856 289.766 318.711C289.766 318.567 304.209 318.451 322.032 318.451C339.848 318.451 354.294 318.568 354.294 318.711Z" fill="#FAFAFA"/>
<path d="M389.967 328.26C389.967 328.405 367.534 328.521 339.869 328.521C312.194 328.521 289.766 328.405 289.766 328.26C289.766 328.116 312.194 328 339.869 328C367.535 328 389.967 328.116 389.967 328.26Z" fill="#455A64"/>
<path d="M213.636 338.071C220.098 338.071 225.337 337.954 225.337 337.81C225.337 337.666 220.098 337.549 213.636 337.549C207.174 337.549 201.935 337.666 201.935 337.81C201.935 337.954 207.174 338.071 213.636 338.071Z" fill="#FAFAFA"/>
<path d="M401.194 338.071C407.656 338.071 412.895 337.954 412.895 337.81C412.895 337.666 407.656 337.549 401.194 337.549C394.732 337.549 389.493 337.666 389.493 337.81C389.493 337.954 394.732 338.071 401.194 338.071Z" fill="#E8505B"/>
<path d="M650.835 396.756C650.835 396.901 505.129 397.017 325.433 397.017C145.675 397.017 0 396.901 0 396.756C0 396.612 145.675 396.496 325.433 396.496C505.129 396.496 650.835 396.613 650.835 396.756Z" fill="#263238"/>
<path d="M519.098 340.316L523.084 352.806C524.614 357.964 528.941 361.841 534.288 362.844L560.949 367.848L568.201 367.616L560.949 358.638L540.907 351.805C538.939 351.371 537.38 349.89 536.864 347.965L528.885 330.609L518.78 336.807L519.098 340.316Z" fill="#FFBE9D"/>
<path d="M500.001 256.427C500.219 254.52 499.538 252.539 498.502 250.891C497.488 249.279 496.001 247.8 494.12 247.506C491.983 247.173 489.779 248.578 488.93 250.568C488.081 252.557 488.493 254.957 489.73 256.731C490.37 257.65 491.209 258.406 492.157 259.002C489.398 260.832 487.199 263.515 486.116 266.647C485.749 267.708 485.498 268.812 485.034 269.835C484.57 270.858 483.849 271.82 482.825 272.279C482.071 272.616 481.217 272.656 480.442 272.942C479.132 273.425 478.141 274.629 477.809 275.985C477.478 277.34 477.779 278.817 478.521 280C478.893 280.592 479.388 281.167 479.42 281.865C479.441 282.338 479.244 282.789 479.133 283.249C478.758 284.812 479.503 286.577 480.884 287.399C482.265 288.221 484.171 288.034 485.366 286.96C485.867 288.115 486.535 289.305 487.671 289.848C488.808 290.391 490.484 289.903 490.721 288.666C491.286 289.853 492.7 290.568 493.991 290.323C495.283 290.078 496.335 288.893 496.426 287.583L517.925 264.071C514.714 255.469 502.167 256.229 500.001 256.427Z" fill="#E8505B"/>
<path d="M496.36 264.607C494.976 264.753 493.934 265.935 493.962 267.326L495.481 303.527C495.539 307.802 503.296 312.858 507.874 312.761C512.496 312.663 511.137 307.758 511.204 303.691C511.315 296.896 511.312 294.345 511.315 294.384C511.315 294.384 517.156 293.414 518.366 285.793C518.968 282.004 518.777 275.79 518.458 270.711C518.17 266.139 515.141 260.529 510.585 261.012L496.36 264.607Z" fill="#FFBE9D"/>
<path d="M516.476 275.643C516.495 276.159 516.073 276.6 515.534 276.629C514.997 276.657 514.546 276.264 514.527 275.747C514.508 275.231 514.93 274.79 515.468 274.761C516.006 274.732 516.459 275.126 516.476 275.643Z" fill="#263238"/>
<path d="M517.108 273.944C516.987 274.071 516.247 273.523 515.195 273.526C514.144 273.513 513.373 274.054 513.258 273.926C513.202 273.868 513.325 273.639 513.661 273.394C513.992 273.151 514.557 272.914 515.212 272.916C515.867 272.918 516.418 273.16 516.734 273.407C517.058 273.656 517.168 273.886 517.108 273.944Z" fill="#263238"/>
<path d="M506.195 275.643C506.214 276.159 505.792 276.6 505.253 276.629C504.716 276.657 504.265 276.264 504.246 275.747C504.227 275.231 504.649 274.79 505.187 274.761C505.725 274.732 506.177 275.126 506.195 275.643Z" fill="#263238"/>
<path d="M506.771 274.139C506.649 274.266 505.908 273.718 504.857 273.721C503.807 273.708 503.035 274.249 502.92 274.121C502.864 274.063 502.986 273.834 503.324 273.589C503.654 273.345 504.219 273.109 504.874 273.111C505.529 273.115 506.08 273.355 506.396 273.602C506.72 273.851 506.831 274.081 506.771 274.139Z" fill="#263238"/>
<path d="M510.587 281.939C510.582 281.879 511.235 281.766 512.295 281.631C512.564 281.603 512.817 281.55 512.863 281.366C512.926 281.172 512.813 280.883 512.683 280.57C512.431 279.92 512.166 279.239 511.889 278.525C510.786 275.614 509.988 273.219 510.105 273.176C510.223 273.132 511.212 275.457 512.315 278.368C512.581 279.086 512.835 279.77 513.076 280.426C513.179 280.731 513.353 281.076 513.216 281.48C513.144 281.68 512.946 281.826 512.775 281.873C512.603 281.926 512.452 281.929 512.319 281.936C511.252 281.994 510.591 281.998 510.587 281.939Z" fill="#263238"/>
<path d="M511.314 294.383C511.314 294.383 506.187 294.713 501.108 291.66C501.108 291.66 503.585 296.895 511.212 296.181L511.314 294.383Z" fill="#EB996E"/>
<path d="M510.143 284.473C509.764 283.972 509.102 283.698 508.444 283.769C507.988 283.818 507.526 284.038 507.25 284.41C506.973 284.782 506.914 285.309 507.166 285.664C507.45 286.062 508.043 286.155 508.545 286.013C509.047 285.871 509.479 285.539 509.889 285.21C510.003 285.119 510.118 285.024 510.19 284.899C510.262 284.774 510.276 284.611 510.188 284.507" fill="#EB996E"/>
<path d="M507.493 282.666C507.664 282.656 507.666 283.798 508.643 284.608C509.618 285.421 510.834 285.293 510.844 285.452C510.86 285.523 510.573 285.674 510.059 285.687C509.555 285.705 508.82 285.542 508.222 285.047C507.625 284.55 507.369 283.887 507.33 283.419C507.287 282.943 507.415 282.66 507.493 282.666Z" fill="#263238"/>
<path d="M507.244 272.298C507.14 272.584 506.091 272.448 504.856 272.597C503.62 272.721 502.625 273.082 502.46 272.826C502.387 272.703 502.561 272.434 502.963 272.157C503.361 271.881 503.998 271.618 504.738 271.535C505.479 271.455 506.157 271.572 506.607 271.755C507.06 271.938 507.289 272.162 507.244 272.298Z" fill="#E8505B"/>
<path d="M516.721 270.899C516.536 271.138 515.812 270.89 514.941 270.878C514.07 270.836 513.333 271.038 513.163 270.788C513.088 270.667 513.204 270.428 513.527 270.201C513.844 269.976 514.376 269.792 514.974 269.81C515.572 269.828 516.091 270.045 516.394 270.289C516.702 270.536 516.803 270.783 516.721 270.899Z" fill="#E8505B"/>
<path d="M494.805 276.794C494.228 276.394 493.42 276.542 492.813 276.894C491.413 277.704 490.716 279.556 491.236 281.087C491.756 282.619 493.435 283.664 495.04 283.455" fill="#FFBE9D"/>
<path d="M506.786 258.472C509.563 258.565 511.671 259.41 514.108 260.743C516.545 262.076 518.584 264.278 519.335 266.953C519.494 267.521 519.585 268.169 519.273 268.67C518.863 269.331 517.893 269.441 517.183 269.12C516.473 268.8 515.964 268.165 515.483 267.553C515.123 268.951 513.736 270.014 512.292 269.998C510.849 269.981 509.485 268.889 509.156 267.482C509.144 268.945 507.68 270.155 506.218 270.102C504.756 270.049 503.461 268.921 502.975 267.541C502.703 268.842 502.412 270.185 501.634 271.262C500.856 272.339 499.447 273.079 498.184 272.667C498.364 273.803 498.538 274.999 498.134 276.075C497.731 277.152 496.534 278.024 495.447 277.65C494.391 277.288 493.981 276.038 493.734 274.949C493.258 272.849 492.85 270.713 492.918 268.561C492.986 266.409 493.561 264.222 494.88 262.521C496.245 260.761 498.313 259.646 500.466 259.078C502.619 258.51 504.871 258.446 507.098 258.474" fill="#E8505B"/>
<path d="M494.273 281.183C494.252 281.129 493.977 281.248 493.609 281.079C493.247 280.934 492.918 280.399 492.956 279.776C492.977 279.145 493.386 278.692 493.769 278.554C494.15 278.398 494.431 278.474 494.447 278.415C494.473 278.377 494.188 278.175 493.685 278.287C493.443 278.344 493.161 278.489 492.94 278.752C492.721 279.012 492.58 279.372 492.562 279.755C492.506 280.524 492.989 281.221 493.515 281.341C494.033 281.478 494.313 281.214 494.273 281.183Z" fill="#EB996E"/>
<path d="M491.376 281.577C491.371 281.564 491.264 281.594 491.063 281.662C490.861 281.729 490.57 281.85 490.213 282.043C489.511 282.424 488.49 283.114 487.731 284.388C487.36 285.02 487.074 285.807 487.05 286.683C487.009 287.559 487.236 288.491 487.684 289.36C488.142 290.223 488.83 291.021 489.712 291.621C490.59 292.218 491.673 292.614 492.816 292.62C495.127 292.619 497.097 291.141 497.964 289.403C498.424 288.533 498.568 287.57 498.505 286.705C498.423 285.836 498.137 285.061 497.77 284.428C497.024 283.151 495.992 282.446 495.249 282.136C494.876 281.974 494.567 281.891 494.357 281.861C494.146 281.826 494.036 281.814 494.033 281.828C494.023 281.87 494.473 281.928 495.183 282.276C495.884 282.618 496.847 283.331 497.527 284.565C497.861 285.178 498.116 285.917 498.179 286.731C498.222 287.541 498.078 288.429 497.64 289.238C496.816 290.855 494.948 292.23 492.819 292.226C490.682 292.212 488.86 290.789 488.006 289.19C487.099 287.561 487.257 285.722 487.974 284.527C488.663 283.3 489.624 282.59 490.29 282.178C490.968 281.765 491.389 281.613 491.376 281.577Z" fill="#263238"/>
<path d="M497.666 257.958C497.583 257.976 497.43 257.294 496.955 256.3C496.488 255.31 495.637 254.013 494.327 252.98C493.016 251.946 491.557 251.42 490.486 251.197C489.408 250.967 488.709 250.976 488.708 250.891C488.701 250.832 489.406 250.689 490.549 250.834C491.681 250.971 493.255 251.47 494.65 252.57C496.045 253.67 496.896 255.085 497.294 256.154C497.699 257.232 497.723 257.95 497.666 257.958Z" fill="#E0E0E0"/>
<path d="M480.148 286.907C480.142 286.917 480.02 286.86 479.878 286.657C479.738 286.458 479.613 286.082 479.698 285.616C479.761 285.147 480.098 284.613 480.636 284.233C481.163 283.835 481.861 283.575 482.528 283.192C483.209 282.83 483.797 282.191 483.844 281.307C483.902 280.43 483.564 279.481 483.329 278.442C483.213 277.921 483.114 277.359 483.169 276.764C483.219 276.173 483.461 275.56 483.883 275.099C484.733 274.168 485.956 273.764 487.102 273.408C488.236 273.048 489.369 272.623 489.976 271.751C490.598 270.886 490.564 269.756 490.455 268.739C490.337 267.712 490.167 266.691 490.252 265.724C490.316 264.762 490.572 263.893 490.886 263.145C491.531 261.645 492.447 260.65 493.141 260.084C493.486 259.794 493.781 259.603 493.988 259.488C494.194 259.373 494.306 259.32 494.315 259.335C494.341 259.376 493.917 259.633 493.275 260.235C492.639 260.833 491.801 261.83 491.227 263.284C490.949 264.008 490.726 264.842 490.683 265.752C490.62 266.66 490.796 267.627 490.932 268.685C491.053 269.714 491.134 270.986 490.395 272.043C489.657 273.096 488.401 273.535 487.261 273.903C486.113 274.254 484.986 274.651 484.265 275.438C483.525 276.221 483.569 277.347 483.799 278.339C484.007 279.346 484.356 280.329 484.275 281.342C484.234 281.847 484.03 282.321 483.744 282.696C483.444 283.067 483.069 283.316 482.711 283.511C481.985 283.897 481.309 284.121 480.806 284.469C480.294 284.804 479.988 285.24 479.899 285.656C479.694 286.52 480.205 286.894 480.148 286.907Z" fill="#E0E0E0"/>
<path d="M507.311 267.238C507.225 267.246 507.158 266.433 506.757 265.21C506.365 263.993 505.564 262.364 504.182 260.985C502.799 259.606 501.168 258.808 499.951 258.42C498.726 258.023 497.914 257.958 497.922 257.872C497.921 257.815 498.754 257.747 500.053 258.066C501.341 258.376 503.091 259.16 504.551 260.616C506.01 262.072 506.798 263.82 507.112 265.107C507.434 266.405 507.368 267.238 507.311 267.238Z" fill="#E0E0E0"/>
<path d="M513.455 263.897C513.36 263.931 513.123 262.88 512.131 261.541C511.165 260.205 509.329 258.668 506.909 257.906C504.481 257.149 502.119 257.222 500.46 257.392C498.789 257.568 497.765 257.804 497.745 257.722C497.729 257.665 498.724 257.3 500.413 257.027C502.086 256.761 504.527 256.619 507.065 257.41C509.607 258.208 511.503 259.878 512.432 261.329C512.907 262.054 513.184 262.702 513.318 263.163C513.456 263.624 513.485 263.889 513.455 263.897Z" fill="#E0E0E0"/>
<path d="M500.155 256.046C500.204 256.081 499.965 256.55 499.376 257.156C498.792 257.761 497.823 258.465 496.602 258.903C495.378 259.337 494.182 259.406 493.347 259.306C492.508 259.208 492.026 258.997 492.041 258.939C492.06 258.779 494.104 259.266 496.427 258.413C498.763 257.606 500.04 255.934 500.155 256.046Z" fill="#263238"/>
<path d="M505.504 396.823C487.193 390.761 499.75 366.543 499.75 366.543L579.774 374.069C586.199 374.026 591.43 379.222 591.43 385.647C591.43 392.042 586.246 397.225 579.852 397.225L505.504 396.823Z" fill="#263238"/>
<path d="M486.77 396.797C468.929 390.776 481.223 366.533 481.223 366.533L559.238 373.888C566.857 373.988 570.579 377.663 570.579 385.439C570.565 391.833 568.202 397.222 559.265 397.04L486.77 396.797Z" fill="#263238"/>
<path d="M504.88 370.628C504.881 370.621 504.956 370.618 505.103 370.619C505.272 370.623 505.486 370.629 505.752 370.635C506.352 370.659 507.188 370.695 508.249 370.738C510.446 370.847 513.575 371.002 517.428 371.193C525.201 371.619 535.893 372.206 547.701 372.853C549.179 372.922 550.641 373.051 552.078 373.072C553.523 373.094 554.945 373.154 556.341 373.238C557.737 373.324 559.108 373.427 560.447 373.572C561.775 373.726 563.125 373.87 564.348 374.373C565.572 374.849 566.69 375.547 567.593 376.451C568.498 377.355 569.145 378.471 569.561 379.608C569.983 380.75 570.213 381.908 570.362 383.021C570.508 384.136 570.585 385.215 570.577 386.248C570.569 388.311 570.208 390.187 569.547 391.682C568.893 393.181 567.981 394.274 567.121 394.987C566.259 395.706 565.461 396.063 564.912 396.235C564.36 396.409 564.35 396.352 564.887 396.154C565.421 395.959 566.193 395.583 567.024 394.86C567.85 394.142 568.725 393.056 569.344 391.585C569.97 390.117 570.305 388.278 570.295 386.249C570.293 385.233 570.208 384.168 570.058 383.069C569.903 381.973 569.668 380.84 569.253 379.738C568.843 378.637 568.22 377.581 567.353 376.721C566.486 375.861 565.407 375.194 564.222 374.738C563.041 374.258 561.743 374.126 560.409 373.974C559.076 373.834 557.711 373.734 556.319 373.652C554.927 373.571 553.51 373.513 552.072 373.493C550.626 373.473 549.17 373.347 547.689 373.276C535.879 372.58 525.188 371.95 517.415 371.492C513.563 371.245 510.437 371.044 508.241 370.903C507.18 370.826 506.346 370.765 505.748 370.721C505.481 370.698 505.269 370.678 505.101 370.663C504.955 370.647 504.88 370.636 504.88 370.628Z" fill="#455A64"/>
<path d="M532.62 372.206L526.204 369.058L521.737 354.171L521.31 335.209L530.367 331.389L523.181 313.336C521.869 310.669 519.227 303.605 512.419 301.275C512.382 299.966 512.414 298.679 512.652 298.286C513.189 297.399 496.07 296.868 495.097 297.223C494.195 297.552 495.252 300.703 495.143 301.234C489.059 302.911 483.137 305.416 480.921 313.789C480.058 317.054 480.344 323.932 480.812 327.249L485.57 352.382L482.9 360.629C482.899 360.631 473.551 380.108 477.093 387.722C480.636 395.337 486.666 397.047 486.666 397.047L533.249 396.955L532.62 372.206Z" fill="#00B3B1"/>
<g opacity="0.3">
<g opacity="0.3">
<g opacity="0.3">
<g opacity="0.3">
<g opacity="0.3">
<path opacity="0.3" d="M485.874 342.401C486.696 345.857 487.954 350.995 489.294 354.286C490.279 356.709 491.366 359.133 493.036 361.146C495.308 363.888 498.567 365.714 502.012 366.624C505.457 367.534 509.085 367.568 512.622 367.145L494.991 357.185L490.303 340.889L485.874 342.401Z" fill="black"/>
</g>
</g>
</g>
</g>
</g>
<path d="M521.725 353.652C521.696 353.652 521.653 353.173 521.601 352.305C521.555 351.363 521.495 350.124 521.421 348.63C521.288 345.526 521.135 341.238 520.991 336.502C520.847 331.764 520.741 327.474 520.686 324.368C520.668 322.871 520.654 321.632 520.643 320.688C520.642 319.819 520.656 319.337 520.685 319.336C520.714 319.334 520.757 319.814 520.809 320.681C520.855 321.622 520.915 322.861 520.989 324.355C521.122 327.459 521.276 331.748 521.419 336.487C521.563 341.225 521.669 345.515 521.724 348.622C521.742 350.118 521.756 351.357 521.768 352.301C521.768 353.17 521.754 353.651 521.725 353.652Z" fill="#263238"/>
<path d="M504.473 335.904C504.483 335.909 504.374 335.954 504.153 336.037C503.897 336.13 503.57 336.249 503.162 336.397C502.237 336.722 500.947 337.176 499.317 337.751C495.912 338.926 491.094 340.589 485.258 342.604L485.027 342.684L484.981 342.442C484.026 337.329 482.908 331.348 481.699 324.883L481.696 324.867L481.695 324.847C481.504 321.662 480.868 318.33 481.141 314.83C481.222 313.964 481.526 313.147 481.824 312.38C482.139 311.605 482.517 310.855 482.989 310.167C483.921 308.78 485.251 307.709 486.688 307.012C489.599 305.525 493.187 306.014 495.471 307.959C496.592 308.99 497.233 310.302 497.815 311.545C498.379 312.806 498.809 314.071 499.19 315.302C499.931 317.765 500.494 320.096 501.051 322.228C502.119 326.437 502.989 329.858 503.602 332.274C503.884 333.417 504.108 334.32 504.27 334.979C504.336 335.26 504.39 335.489 504.433 335.675C504.467 335.83 504.481 335.908 504.473 335.904C504.465 335.899 504.436 335.813 504.386 335.651C504.329 335.459 504.261 335.223 504.176 334.933C503.989 334.269 503.734 333.358 503.41 332.206C502.755 329.816 501.827 326.434 500.684 322.269C500.111 320.188 499.532 317.875 498.777 315.429C498.391 314.213 497.957 312.964 497.397 311.733C496.826 310.522 496.174 309.244 495.154 308.319C493.029 306.525 489.636 306.06 486.916 307.467C485.535 308.144 484.299 309.146 483.416 310.458C482.97 311.108 482.608 311.826 482.306 312.573C482.013 313.334 481.732 314.089 481.659 314.886C481.393 318.259 482.013 321.59 482.204 324.822L482.2 324.788C483.378 331.26 484.468 337.244 485.399 342.362L485.123 342.201C490.937 340.289 495.738 338.711 499.131 337.595C500.794 337.059 502.11 336.635 503.054 336.33C503.484 336.196 503.827 336.089 504.098 336.005C504.335 335.933 504.463 335.898 504.473 335.904Z" fill="#263238"/>
<path d="M489.612 338.843C489.933 339.843 490.305 340.619 490.442 340.575C490.579 340.531 490.43 339.684 490.108 338.683C489.787 337.682 489.415 336.907 489.278 336.951C489.141 336.995 489.29 337.842 489.612 338.843Z" fill="#263238"/>
<path d="M494.343 337.539C494.579 338.504 494.884 339.259 495.023 339.224C495.163 339.19 495.084 338.38 494.848 337.415C494.612 336.45 494.308 335.696 494.168 335.73C494.029 335.764 494.107 336.574 494.343 337.539Z" fill="#263238"/>
<path d="M498.992 336.194C499.232 336.996 499.539 337.613 499.677 337.571C499.815 337.53 499.732 336.846 499.492 336.044C499.252 335.242 498.946 334.625 498.808 334.667C498.67 334.708 498.752 335.392 498.992 336.194Z" fill="#263238"/>
<path d="M524.708 333.766C524.588 333.839 524.062 333.175 523.698 332.211C523.331 331.249 523.285 330.403 523.423 330.378C523.568 330.35 523.835 331.11 524.186 332.026C524.531 332.945 524.835 333.692 524.708 333.766Z" fill="#263238"/>
<path d="M527.279 330.492C527.668 331.265 528.088 331.839 528.216 331.774C528.345 331.709 528.134 331.03 527.745 330.257C527.356 329.484 526.936 328.91 526.807 328.975C526.679 329.04 526.89 329.719 527.279 330.492Z" fill="#263238"/>
<path d="M497.791 301.987C497.842 301.993 497.872 302.157 497.883 302.443L497.607 302.439C497.493 301.95 497.371 301.069 497.287 300.061C497.157 298.498 497.169 297.221 497.311 297.209C497.455 297.197 497.676 298.454 497.806 300.018C497.89 301.026 497.914 301.914 497.883 302.416L497.607 302.412C497.675 302.136 497.74 301.982 497.791 301.987Z" fill="#263238"/>
<path d="M501.517 299.664C501.614 300.955 501.808 301.992 501.952 301.981C502.096 301.971 502.134 300.916 502.038 299.625C501.941 298.335 501.746 297.298 501.603 297.309C501.459 297.319 501.421 298.374 501.517 299.664Z" fill="#263238"/>
<path d="M506.007 300.121C506.028 301.67 506.161 302.923 506.305 302.922C506.449 302.92 506.548 301.663 506.527 300.114C506.507 298.566 506.373 297.312 506.23 297.314C506.086 297.316 505.987 298.573 506.007 300.121Z" fill="#263238"/>
<path d="M509.873 302.345C510.017 302.345 510.134 301.272 510.134 299.95C510.134 298.627 510.017 297.555 509.873 297.555C509.729 297.555 509.612 298.627 509.612 299.95C509.612 301.272 509.729 302.345 509.873 302.345Z" fill="#263238"/>
<path d="M513.547 371.671C524.246 372.4 532.927 372.875 532.936 372.731C532.946 372.587 524.281 371.88 513.583 371.15C502.884 370.421 494.203 369.947 494.194 370.09C494.184 370.234 502.849 370.942 513.547 371.671Z" fill="#263238"/>
<path d="M487.947 341.742L492.242 355.713C493.772 360.936 498.099 364.861 503.446 365.878L530.107 370.945L537.359 370.709L534.893 364.518L510.065 354.7C508.097 354.261 506.538 352.761 506.022 350.811L502.27 336.754L487.947 341.742Z" fill="#FFBE9D"/>
<path d="M511.516 371.132L511.744 369.405L532.227 368.6L542.279 343.252L580.571 345.851L567.65 373.99L511.516 371.132Z" fill="#455A64"/>
<path d="M555.652 360.627C556.76 360.627 557.659 359.729 557.659 358.62C557.659 357.512 556.76 356.613 555.652 356.613C554.543 356.613 553.645 357.512 553.645 358.62C553.645 359.729 554.543 360.627 555.652 360.627Z" fill="white"/>
<path d="M233.411 189.085C250.098 183.026 241.529 157.861 241.529 157.861L156.828 165.622C150.203 165.577 144.809 170.935 144.809 177.56C144.809 184.154 150.154 189.499 156.747 189.499L233.411 189.085Z" fill="#263238"/>
<path d="M124.349 258.784L124.178 250.385L140.288 244.662L140.954 256.356L140.048 256.794C136.003 258.706 119.345 266.229 116.238 266.514C112.772 266.832 124.349 258.784 124.349 258.784Z" fill="#FFCE00"/>
<g opacity="0.4">
<g opacity="0.4">
<g opacity="0.4">
<g opacity="0.4">
<g opacity="0.4">
<g opacity="0.4">
<g opacity="0.4">
<path opacity="0.4" d="M118.783 262.938C118.783 262.938 114.84 266.042 115.696 266.55C116.552 267.06 133.672 260.09 140.954 256.356L140.794 256.031L120.895 264.33C120.894 264.329 119.67 262.619 118.783 262.938Z" fill="white"/>
</g>
</g>
</g>
</g>
</g>
</g>
</g>
<path d="M141.025 255.926C141.027 255.933 140.942 255.978 140.778 256.059C140.561 256.163 140.324 256.277 140.056 256.406C139.328 256.739 138.434 257.149 137.379 257.633C135.111 258.653 131.959 260.02 128.445 261.453C124.93 262.887 121.721 264.115 119.386 264.973C118.294 265.366 117.368 265.699 116.615 265.969C116.334 266.065 116.085 266.149 115.857 266.227C115.683 266.284 115.59 266.31 115.588 266.304C115.586 266.297 115.673 266.258 115.843 266.19C116.067 266.102 116.312 266.005 116.588 265.897C117.335 265.611 118.254 265.258 119.337 264.843C121.658 263.952 124.858 262.704 128.37 261.273C131.881 259.839 135.04 258.494 137.322 257.506C138.387 257.045 139.29 256.654 140.024 256.336C140.297 256.221 140.54 256.118 140.761 256.024C140.932 255.954 141.022 255.92 141.025 255.926Z" fill="#263238"/>
<path d="M120.993 264.562C120.94 264.591 120.633 263.958 119.954 263.468C119.284 262.966 118.588 262.862 118.6 262.803C118.593 262.753 119.35 262.775 120.07 263.31C120.796 263.837 121.043 264.554 120.993 264.562Z" fill="#263238"/>
<path d="M123.79 260.132C124.149 260.387 124.466 260.559 124.497 260.515C124.529 260.471 124.263 260.228 123.904 259.972C123.545 259.717 123.228 259.546 123.197 259.59C123.165 259.634 123.431 259.877 123.79 260.132Z" fill="#263238"/>
<path d="M124.79 259.254C125.142 259.381 125.443 259.443 125.462 259.392C125.48 259.341 125.209 259.197 124.856 259.07C124.503 258.943 124.202 258.881 124.184 258.932C124.166 258.983 124.437 259.127 124.79 259.254Z" fill="#263238"/>
<path d="M124.92 258.07C125.35 257.889 125.683 257.701 125.662 257.652C125.641 257.602 125.274 257.708 124.844 257.889C124.413 258.07 124.081 258.257 124.102 258.307C124.123 258.357 124.489 258.251 124.92 258.07Z" fill="#263238"/>
<path d="M125.505 256.546C125.54 256.584 125.229 256.911 124.735 257.155C124.243 257.401 123.794 257.453 123.785 257.401C123.772 257.346 124.181 257.213 124.648 256.979C125.117 256.748 125.469 256.502 125.505 256.546Z" fill="#263238"/>
<path d="M123.462 259.416C123.471 259.436 123.12 259.632 122.496 259.802C122.185 259.887 121.806 259.96 121.378 259.993C121.163 260.003 120.946 260.033 120.692 259.99C120.571 259.966 120.428 259.919 120.332 259.788C120.233 259.66 120.245 259.467 120.321 259.344C121.048 258.492 122.181 258.634 122.717 258.971C123.004 259.138 123.187 259.339 123.293 259.487C123.398 259.635 123.434 259.731 123.424 259.737C123.395 259.763 123.204 259.384 122.651 259.093C122.378 258.951 122.013 258.854 121.61 258.894C121.229 258.931 120.734 259.101 120.494 259.439C120.387 259.615 120.52 259.77 120.731 259.802C120.931 259.84 121.162 259.819 121.367 259.813C121.783 259.791 122.156 259.734 122.464 259.667C123.083 259.535 123.451 259.386 123.462 259.416Z" fill="#263238"/>
<path d="M123.232 259.565C123.222 259.581 122.98 259.393 122.848 258.941C122.785 258.718 122.761 258.435 122.825 258.13C122.908 257.847 123.007 257.463 123.428 257.312C123.663 257.249 123.875 257.459 123.906 257.636C123.957 257.812 123.94 257.988 123.918 258.133C123.873 258.432 123.79 258.693 123.7 258.902C123.518 259.32 123.325 259.53 123.307 259.516C123.281 259.499 123.429 259.265 123.57 258.852C123.64 258.646 123.705 258.394 123.738 258.11C123.788 257.852 123.729 257.45 123.469 257.505C123.219 257.579 123.07 257.92 123.001 258.172C122.935 258.443 122.941 258.701 122.983 258.909C123.07 259.33 123.261 259.544 123.232 259.565Z" fill="#263238"/>
<path d="M139.049 251.949C139.059 251.984 138.603 252.083 137.958 252.438C137.317 252.787 136.496 253.442 135.946 254.418C135.399 255.396 135.267 256.439 135.304 257.167C135.337 257.903 135.491 258.344 135.455 258.354C135.444 258.358 135.394 258.252 135.331 258.051C135.268 257.851 135.2 257.552 135.165 257.176C135.091 256.431 135.203 255.342 135.774 254.322C136.346 253.303 137.217 252.64 137.892 252.315C138.231 252.148 138.521 252.05 138.725 252C138.929 251.95 139.046 251.938 139.049 251.949Z" fill="#263238"/>
<path d="M136.348 249.362C135.633 247.669 135.014 246.314 134.964 246.335C134.914 246.356 135.453 247.745 136.167 249.438C136.881 251.131 137.501 252.487 137.551 252.466C137.6 252.445 137.062 251.055 136.348 249.362Z" fill="#263238"/>
<path d="M132.986 257.756C133.011 257.8 132.1 258.359 130.885 258.864C129.672 259.373 128.635 259.631 128.621 259.581C128.604 259.526 129.608 259.187 130.809 258.683C132.013 258.182 132.959 257.706 132.986 257.756Z" fill="#263238"/>
<path d="M135.923 256.554C135.975 256.576 135.927 256.794 135.919 257.06C135.907 257.326 135.937 257.546 135.884 257.565C135.835 257.585 135.71 257.359 135.723 257.052C135.734 256.745 135.876 256.531 135.923 256.554Z" fill="#263238"/>
<path d="M136.384 255.175C136.475 254.955 136.509 254.759 136.459 254.739C136.41 254.718 136.296 254.88 136.204 255.101C136.113 255.321 136.079 255.517 136.129 255.537C136.178 255.558 136.293 255.395 136.384 255.175Z" fill="#263238"/>
<path d="M137.798 253.451C137.808 253.507 137.608 253.586 137.42 253.753C137.228 253.916 137.12 254.102 137.067 254.084C137.016 254.072 137.055 253.808 137.292 253.605C137.526 253.4 137.794 253.399 137.798 253.451Z" fill="#263238"/>
<path d="M138.675 252.958C138.78 252.859 138.835 252.747 138.798 252.707C138.761 252.668 138.646 252.716 138.541 252.815C138.436 252.914 138.381 253.026 138.418 253.065C138.455 253.105 138.57 253.057 138.675 252.958Z" fill="#263238"/>
<path d="M189.01 164.48L141.709 165.365C134.147 165.507 127.841 171.19 126.917 178.697L117.538 254.925H143.227L151.072 189.085H188.37L189.01 164.48Z" fill="#263238"/>
<path d="M117.857 250.078C117.857 250.2 123.484 250.335 130.425 250.378C137.369 250.421 142.876 250.247 142.997 250.235C143.794 250.157 137.371 249.979 130.427 249.935C123.487 249.893 117.858 249.956 117.857 250.078Z" fill="#455A64"/>
<path d="M215.025 162.076C215.025 162.069 214.944 162.066 214.788 162.067C214.608 162.071 214.38 162.077 214.096 162.083C213.457 162.108 212.567 162.143 211.436 162.187C209.095 162.297 205.763 162.453 201.658 162.646C193.377 163.076 181.987 163.668 169.407 164.321C167.833 164.392 166.275 164.521 164.745 164.542C163.205 164.565 161.69 164.625 160.203 164.71C158.716 164.796 157.256 164.9 155.828 165.046C154.413 165.202 152.975 165.346 151.672 165.854C150.369 166.334 149.177 167.04 148.215 167.952C147.251 168.865 146.562 169.99 146.119 171.139C145.67 172.291 145.424 173.46 145.265 174.583C145.111 175.708 145.028 176.797 145.036 177.839C145.044 179.921 145.429 181.815 146.133 183.322C146.83 184.835 147.802 185.938 148.717 186.657C149.636 187.382 150.486 187.743 151.071 187.916C151.659 188.092 151.669 188.034 151.098 187.834C150.529 187.637 149.706 187.257 148.822 186.528C147.941 185.804 147.009 184.708 146.35 183.223C145.683 181.742 145.327 179.886 145.337 177.837C145.339 176.812 145.429 175.737 145.59 174.629C145.755 173.523 146.004 172.38 146.446 171.268C146.884 170.157 147.547 169.09 148.471 168.224C149.395 167.356 150.544 166.682 151.805 166.223C153.064 165.738 154.447 165.605 155.868 165.452C157.287 165.311 158.743 165.21 160.224 165.127C161.707 165.045 163.217 164.987 164.748 164.966C166.29 164.946 167.84 164.818 169.417 164.747C181.998 164.045 193.388 163.409 201.67 162.947C205.773 162.697 209.104 162.495 211.443 162.353C212.572 162.275 213.461 162.214 214.099 162.17C214.382 162.146 214.609 162.127 214.789 162.112C214.946 162.095 215.026 162.083 215.025 162.076Z" fill="#455A64"/>
<path d="M199.96 130.462L195.85 143.341C194.272 148.66 189.81 152.657 184.297 153.692L160.411 160.313L158.55 155.89L156.806 149.355L177.472 142.309C179.501 141.862 181.109 140.335 181.641 138.35L189.868 120.453L200.288 126.844L199.96 130.462Z" fill="#B78876"/>
<path d="M209.974 90.1623C201.225 91.1843 198.407 94.7423 194.833 99.9133C193.348 102.062 192.162 104.396 191.298 106.844L184.672 125.623L198.502 129.888L198.041 145.224L191.743 163.891L244.873 168.069L244.72 140.943L244.339 124.573C244.84 118.374 246.132 105.225 245.027 102.11C240.3 88.7853 229.87 91.3423 222.217 89.4433C220.639 89.0513 213.004 89.1303 211.678 89.4583" fill="#FFCE00"/>
<path d="M244.869 139.227C244.869 139.371 234.476 139.487 221.659 139.487C208.837 139.487 198.446 139.37 198.446 139.227C198.446 139.083 208.837 138.967 221.659 138.967C234.476 138.967 244.869 139.083 244.869 139.227Z" fill="#FAFAFA"/>
<path d="M244.092 148.503C244.092 148.647 233.699 148.763 220.882 148.763C208.06 148.763 197.669 148.646 197.669 148.503C197.669 148.359 208.06 148.242 220.882 148.242C233.7 148.242 244.092 148.359 244.092 148.503Z" fill="#FAFAFA"/>
<path d="M219.793 159.405C233.349 159.405 244.339 159.288 244.339 159.145C244.339 159.001 233.349 158.885 219.793 158.885C206.236 158.885 195.247 159.001 195.247 159.145C195.247 159.288 206.236 159.405 219.793 159.405Z" fill="#FAFAFA"/>
<g opacity="0.3">
<g opacity="0.3">
<g opacity="0.3">
<g opacity="0.3">
<g opacity="0.3">
<path opacity="0.3" d="M237.89 133.297C237.195 136.893 236.905 140.772 235.669 144.222C234.76 146.761 233.746 149.306 232.115 151.453C229.893 154.378 226.616 156.402 223.108 157.489C219.6 158.576 202.731 162.35 199.068 162.069L229.926 147.458L233.645 132.102L237.89 133.297Z" fill="black"/>
</g>
</g>
</g>
</g>
</g>
<path d="M236.089 132.761L232.695 145.823C231.347 151.271 227.062 155.505 221.598 156.786L194.354 163.175L186.873 163.25V152.966L214.29 145.56C216.298 145.021 217.839 143.408 218.285 141.377L220.927 129.891L236.089 132.761Z" fill="#B78876"/>
<path d="M219.559 101.588C233.687 101.588 245.141 101.472 245.141 101.328C245.141 101.185 233.687 101.068 219.559 101.068C205.43 101.068 193.977 101.185 193.977 101.328C193.977 101.472 205.43 101.588 219.559 101.588Z" fill="#FAFAFA"/>
<path d="M245.461 110.182C245.461 110.326 233.116 110.442 217.892 110.442C202.662 110.442 190.32 110.326 190.32 110.182C190.32 110.038 202.662 109.922 217.892 109.922C233.117 109.922 245.461 110.038 245.461 110.182Z" fill="#FAFAFA"/>
<path d="M244.744 119.753C244.745 119.897 231.749 120.115 215.72 120.241C199.686 120.366 186.69 120.352 186.689 120.208C186.688 120.064 199.681 119.846 215.716 119.72C231.745 119.595 244.743 119.61 244.744 119.753Z" fill="#FAFAFA"/>
<path d="M244.338 129.889C244.338 130.033 233.945 130.149 221.128 130.149C208.306 130.149 197.915 130.033 197.915 129.889C197.915 129.745 208.306 129.629 221.128 129.629C233.946 129.629 244.338 129.745 244.338 129.889Z" fill="#FAFAFA"/>
<path d="M240.754 133.848C240.747 133.847 240.752 133.773 240.77 133.631C240.793 133.463 240.823 133.256 240.858 133.002C240.949 132.412 241.074 131.603 241.232 130.575C241.559 128.461 242.037 125.387 242.567 121.538C243.083 117.69 243.709 113.064 244.015 107.845C244.119 105.264 244.335 102.399 242.989 99.8698C242.354 98.6198 241.386 97.5128 240.18 96.6898C238.977 95.8758 237.532 95.3108 236.064 95.0958L236.031 95.0908L236.007 95.0838C234.418 94.5958 232.614 94.8698 230.951 95.4248C229.283 95.9878 227.628 96.8148 226.263 97.9718C225.981 98.2178 225.741 98.4808 225.549 98.7728C225.353 99.0908 225.181 99.4218 225.021 99.7588C224.706 100.435 224.458 101.141 224.251 101.857C223.84 103.289 223.579 104.759 223.326 106.209C222.809 109.104 222.306 111.918 221.822 114.629C220.846 120.046 219.945 125.052 219.148 129.479L218.998 129.246C225.408 130.619 230.673 131.746 234.378 132.539C236.179 132.939 237.599 133.254 238.609 133.477C239.067 133.585 239.432 133.671 239.713 133.738C239.961 133.801 240.088 133.838 240.086 133.848C240.084 133.858 239.953 133.842 239.7 133.8C239.416 133.749 239.047 133.682 238.583 133.598C237.567 133.4 236.138 133.121 234.325 132.768C230.606 132.016 225.322 130.947 218.887 129.645L218.702 129.608L218.736 129.411C219.511 124.978 220.387 119.963 221.335 114.538C221.814 111.824 222.31 109.006 222.82 106.108C223.07 104.66 223.329 103.187 223.749 101.714C223.961 100.979 224.216 100.247 224.546 99.5388C224.714 99.1858 224.895 98.8378 225.101 98.5018C225.329 98.1498 225.614 97.8438 225.913 97.5828C227.371 96.3488 229.053 95.5188 230.786 94.9328C232.508 94.3658 234.392 94.0558 236.167 94.5998L236.11 94.5878C237.708 94.8248 239.178 95.4128 240.457 96.2768C241.728 97.1478 242.753 98.3268 243.417 99.6498C243.77 100.306 243.98 101.007 244.191 101.698C244.311 102.406 244.505 103.103 244.506 103.806C244.525 104.156 244.544 104.504 244.562 104.85C244.555 105.193 244.548 105.533 244.542 105.871C244.534 106.548 244.498 107.213 244.456 107.869C244.118 113.115 243.453 117.737 242.892 121.584C242.317 125.43 241.788 128.498 241.406 130.604C241.211 131.626 241.058 132.431 240.946 133.018C240.892 133.269 240.848 133.474 240.812 133.64C240.783 133.779 240.762 133.85 240.754 133.848Z" fill="#263238"/>
<path d="M198.348 144.989C198.378 144.989 198.402 144.492 198.417 143.596C198.423 142.623 198.431 141.346 198.441 139.802C198.441 136.599 198.412 132.175 198.353 127.289C198.293 122.401 198.214 117.977 198.135 114.775C198.088 113.232 198.048 111.955 198.018 110.983C197.98 110.087 197.945 109.592 197.915 109.592C197.884 109.592 197.861 110.087 197.846 110.983C197.84 111.955 197.832 113.233 197.823 114.776C197.822 117.979 197.851 122.404 197.911 127.293C197.971 132.18 198.05 136.605 198.129 139.807C198.176 141.349 198.216 142.627 198.246 143.599C198.282 144.494 198.318 144.989 198.348 144.989Z" fill="#263238"/>
<path d="M215.025 165.476L215.502 163.248L194.868 161.054L185.87 135.196L143.85 134.906L157.616 164.886L215.025 165.476Z" fill="#455A64"/>
<path d="M170.773 151.444C171.738 150.832 172.025 149.554 171.414 148.589C170.803 147.624 169.524 147.337 168.559 147.948C167.594 148.559 167.307 149.838 167.918 150.803C168.529 151.768 169.808 152.055 170.773 151.444Z" fill="white"/>
<path d="M199.366 47.6095C197.119 47.9615 195.188 49.8255 194.757 52.0585C194.326 54.2915 195.424 56.7405 197.379 57.9035C198.224 58.4065 199.307 58.6715 200.186 58.2305C201.005 57.8185 201.439 56.9085 201.709 56.0335C202.578 53.2215 202.333 50.0815 201.039 47.4375" fill="#263238"/>
<path d="M216.707 98.6513C211.715 98.6513 207.688 94.5743 207.744 89.5833C207.778 86.4673 207.83 83.7733 207.83 83.7733C207.83 83.7733 200.625 83.1043 200.097 75.9743C199.569 68.8453 199.795 52.3853 199.795 52.3853C207.836 48.3253 217.443 48.9363 224.905 53.9803L226.013 54.7293L225.672 89.7763C225.623 94.6913 221.624 98.6513 216.707 98.6513Z" fill="#B78876"/>
<path d="M207.812 83.6701C207.812 83.6701 212.344 83.7581 216.95 80.4531C216.95 80.4531 215.069 85.7241 207.909 85.5201L207.812 83.6701Z" fill="#AA6550"/>
<path d="M224.171 62.6107C224.303 62.5607 228.685 61.9907 228.271 67.1657C227.857 72.3407 222.768 70.2107 222.771 70.0617C222.774 69.9117 224.171 62.6107 224.171 62.6107Z" fill="#B78876"/>
<path d="M224.501 68.3712C224.525 68.3562 224.586 68.4412 224.733 68.5232C224.876 68.6032 225.128 68.6702 225.406 68.5912C225.969 68.4342 226.498 67.6032 226.598 66.6722C226.649 66.2022 226.586 65.7452 226.449 65.3612C226.321 64.9702 226.097 64.6862 225.826 64.6152C225.557 64.5302 225.349 64.6792 225.274 64.8202C225.193 64.9592 225.218 65.0652 225.19 65.0712C225.174 65.0832 225.086 64.9762 225.144 64.7652C225.174 64.6642 225.244 64.5472 225.374 64.4572C225.506 64.3662 225.693 64.3292 225.883 64.3652C226.28 64.4252 226.61 64.8212 226.76 65.2422C226.933 65.6682 227.014 66.1822 226.957 66.7092C226.84 67.7492 226.228 68.6822 225.463 68.8392C225.091 68.9042 224.796 68.7712 224.65 68.6362C224.501 68.4972 224.483 68.3802 224.501 68.3712Z" fill="#AA6550"/>
<path d="M204.721 55.3325C205.714 54.8895 207.231 53.5755 208.083 52.8995C208.942 54.2635 210.434 55.2095 212.034 55.4045C213.634 55.5995 215.31 55.0405 216.472 53.9235C216.519 54.8475 217.069 55.7295 217.877 56.1785C218.685 56.6275 219.725 56.6275 220.534 56.1785C220.569 58.9305 220.604 61.6815 220.639 64.4335C220.649 65.2265 220.679 66.0795 221.158 66.7125C221.637 67.3445 222.745 67.5405 223.184 66.8795C223.101 65.8705 223.028 64.8055 223.466 63.8935C223.904 62.9815 225.05 62.3265 225.954 62.7815C226.299 61.0775 226.295 59.6105 226.245 57.8985C226.236 57.6025 226.292 56.6565 226.449 56.4045C226.731 55.9505 226.861 56.3015 227.384 56.1935C228.905 55.8775 230.054 54.4125 230.171 52.8635C230.286 51.3145 229.458 49.7735 228.202 48.8595C226.946 47.9455 225.317 47.6245 223.774 47.7985C224.796 46.8625 224.706 45.0945 223.808 44.0395C222.91 42.9855 221.427 42.5785 220.044 42.6615C218.659 42.7445 217.101 43.5145 216.928 44.8905C216.574 42.2305 214.113 40.0145 211.43 39.9395C208.748 39.8645 206.167 41.9415 205.666 44.5775C204.007 43.8415 201.683 43.0265 200.032 43.7805C198.381 44.5355 196.945 45.7245 196.601 48.5265C196.601 48.5265 196.183 54.1865 199.765 55.3305C203.348 56.4755 204.721 55.3325 204.721 55.3325Z" fill="#263238"/>
<path d="M201.676 63.797C201.657 64.325 202.089 64.776 202.64 64.806C203.19 64.835 203.652 64.432 203.671 63.904C203.69 63.376 203.258 62.924 202.708 62.894C202.157 62.865 201.695 63.269 201.676 63.797Z" fill="#263238"/>
<path d="M201.458 62.6721C201.582 62.8021 202.34 62.2421 203.416 62.2451C204.491 62.2321 205.281 62.7861 205.397 62.6541C205.455 62.5961 205.328 62.3611 204.984 62.1101C204.645 61.8601 204.068 61.6181 203.398 61.6211C202.728 61.6251 202.164 61.8711 201.839 62.1241C201.509 62.3781 201.397 62.6141 201.458 62.6721Z" fill="#263238"/>
<path d="M212.216 64.0502C212.197 64.5782 212.63 65.0292 213.18 65.0592C213.73 65.0892 214.193 64.6852 214.211 64.1582C214.23 63.6302 213.798 63.1782 213.248 63.1482C212.697 63.1172 212.235 63.5212 212.216 64.0502Z" fill="#263238"/>
<path d="M212.037 62.8723C212.162 63.0023 212.92 62.4413 213.995 62.4443C215.07 62.4313 215.86 62.9863 215.976 62.8533C216.033 62.7953 215.908 62.5603 215.563 62.3093C215.225 62.0593 214.647 61.8173 213.977 61.8203C213.307 61.8243 212.743 62.0713 212.418 62.3233C212.089 62.5783 211.976 62.8143 212.037 62.8723Z" fill="#263238"/>
<path d="M208.131 70.8543C208.136 70.7933 207.467 70.6773 206.383 70.5393C206.109 70.5103 205.848 70.4563 205.802 70.2683C205.737 70.0693 205.852 69.7733 205.986 69.4533C206.244 68.7883 206.515 68.0913 206.799 67.3613C207.928 64.3823 208.745 61.9313 208.624 61.8873C208.504 61.8433 207.491 64.2223 206.363 67.2013C206.092 67.9363 205.831 68.6363 205.584 69.3063C205.48 69.6183 205.301 69.9733 205.441 70.3843C205.515 70.5903 205.717 70.7383 205.893 70.7863C206.069 70.8403 206.224 70.8433 206.36 70.8513C207.45 70.9113 208.127 70.9163 208.131 70.8543Z" fill="#263238"/>
<path d="M211.298 71.5997C211.123 71.5897 211.121 72.7577 210.121 73.5867C209.123 74.4187 207.878 74.2877 207.869 74.4507C207.853 74.5237 208.146 74.6777 208.672 74.6917C209.188 74.7097 209.941 74.5437 210.552 74.0367C211.162 73.5287 211.425 72.8497 211.464 72.3707C211.509 71.8827 211.378 71.5927 211.298 71.5997Z" fill="#263238"/>
<path d="M211.759 58.6562C211.865 58.9482 212.94 58.8102 214.202 58.9622C215.468 59.0892 216.486 59.4592 216.654 59.1962C216.729 59.0712 216.551 58.7952 216.139 58.5122C215.731 58.2292 215.08 57.9602 214.322 57.8762C213.564 57.7932 212.87 57.9142 212.41 58.1012C211.947 58.2872 211.713 58.5162 211.759 58.6562Z" fill="#263238"/>
<path d="M201.854 59.5577C202.043 59.8027 202.785 59.5487 203.676 59.5367C204.567 59.4937 205.322 59.7007 205.496 59.4457C205.572 59.3207 205.454 59.0767 205.123 58.8447C204.798 58.6147 204.254 58.4257 203.642 58.4447C203.03 58.4647 202.499 58.6857 202.189 58.9357C201.874 59.1877 201.77 59.4387 201.854 59.5577Z" fill="#263238"/>
<path d="M203.899 47.2692C203.886 47.2882 203.801 47.2212 203.621 47.1842C203.446 47.1492 203.155 47.1722 202.879 47.3772C202.598 47.5692 202.423 47.9912 202.549 48.4622C202.661 48.9312 203.048 49.3972 203.615 49.6262C204.177 49.8522 204.919 49.8582 205.542 49.5122C206.162 49.1742 206.617 48.4572 206.7 47.6542C206.803 46.8502 206.459 45.9932 205.801 45.3972C205.151 44.7942 204.215 44.4712 203.273 44.5912C202.332 44.6952 201.454 45.1602 200.832 45.8042C200.203 46.4492 199.827 47.2812 199.654 48.1012C199.3 49.7662 199.746 51.3402 200.385 52.4512C201.026 53.5832 201.84 54.2982 202.426 54.7282C203.023 55.1532 203.4 55.3242 203.382 55.3652C203.372 55.3902 202.965 55.2822 202.314 54.8972C201.675 54.5072 200.786 53.8072 200.068 52.6392C199.354 51.4952 198.827 49.8212 199.184 48.0072C199.36 47.1122 199.759 46.1882 200.465 45.4522C201.163 44.7222 202.138 44.1952 203.216 44.0752C204.295 43.9362 205.403 44.3182 206.147 45.0242C206.906 45.7132 207.314 46.7602 207.176 47.7102C207.064 48.6532 206.514 49.4972 205.746 49.8942C204.98 50.2922 204.124 50.2542 203.47 49.9662C202.808 49.6732 202.368 49.0952 202.264 48.5282C202.133 47.9582 202.404 47.4082 202.764 47.2122C203.112 46.9952 203.457 47.0102 203.649 47.0852C203.847 47.1622 203.908 47.2612 203.899 47.2692Z" fill="#455A64"/>
<path d="M613.318 370.577C612.099 372.317 609.731 371.741 608.632 370.679C607.533 369.617 607.069 368.076 606.647 366.609C605.682 363.254 604.709 359.733 605.426 356.317C605.641 355.296 606.023 354.276 606.74 353.518C607.457 352.76 608.561 352.31 609.571 352.577C610.765 352.892 611.508 354.062 612.044 355.175C613.621 358.446 614.456 362.072 614.469 365.703C614.475 367.399 614.275 369.177 613.318 370.577Z" fill="#006900"/>
<g opacity="0.2">
<g opacity="0.2">
<path opacity="0.2" d="M613.318 370.577C612.099 372.317 609.731 371.741 608.632 370.679C607.533 369.617 607.069 368.076 606.647 366.609C605.682 363.254 604.709 359.733 605.426 356.317C605.641 355.296 606.023 354.276 606.74 353.518C607.457 352.76 608.561 352.31 609.571 352.577C610.765 352.892 611.508 354.062 612.044 355.175C613.621 358.446 614.456 362.072 614.469 365.703C614.475 367.399 614.275 369.177 613.318 370.577Z" fill="black"/>
</g>
</g>
<path d="M608.751 379.393C606.758 378.365 604.411 378.231 602.198 378.597C601.01 378.793 599.77 379.149 598.961 380.042C598.152 380.935 597.999 382.506 598.928 383.273C599.481 383.73 600.252 383.799 600.969 383.791C602.701 383.771 604.623 383.466 606.007 384.509C606.797 385.103 607.322 386.092 608.267 386.384C609.19 386.67 610.233 386.125 610.722 385.291C611.211 384.458 611.228 383.416 610.999 382.477C611 382.477 610.759 380.429 608.751 379.393Z" fill="#006900"/>
<path d="M616.666 373.076C615.342 371.506 615.091 369.216 615.68 367.248C616.269 365.28 617.599 363.606 619.132 362.24C620.93 360.637 623.043 359.391 625.315 358.593C626.209 358.279 627.152 358.03 628.095 358.12C629.038 358.21 629.988 358.692 630.428 359.532C631.078 360.772 630.454 362.277 629.78 363.506C628.592 365.669 627.232 367.738 625.719 369.689C624.502 371.258 623.109 372.806 621.253 373.515C619.399 374.224 617.472 374.14 616.489 372.854" fill="#006900"/>
<path d="M613.401 396.837C613.378 396.838 613.341 396.556 613.291 396.045C613.235 395.469 613.165 394.746 613.081 393.887C612.98 392.978 612.848 391.899 612.596 390.721C612.344 389.547 611.95 388.274 611.445 386.984C610.922 385.701 610.283 384.535 609.537 383.602C608.797 382.665 607.934 381.988 607.125 381.596C606.317 381.198 605.594 381.035 605.093 380.964C604.588 380.912 604.306 380.872 604.306 380.85C604.306 380.828 604.588 380.824 605.107 380.837C605.621 380.871 606.376 381.002 607.226 381.389C608.08 381.767 608.994 382.455 609.771 383.411C610.554 384.363 611.216 385.555 611.749 386.861C612.264 388.174 612.651 389.46 612.892 390.66C613.132 391.857 613.242 392.949 613.313 393.865C613.382 394.782 613.408 395.524 613.42 396.037C613.429 396.551 613.423 396.836 613.401 396.837Z" fill="#263238"/>
<path d="M613.251 395.176C613.24 395.175 613.233 395.049 613.23 394.809C613.23 394.534 613.231 394.186 613.233 393.759C613.235 392.849 613.235 391.53 613.186 389.903C613.105 386.648 612.825 382.155 612.284 377.215C611.738 372.275 611.015 367.83 610.357 364.641C610.201 363.842 610.044 363.122 609.897 362.494C609.755 361.862 609.635 361.318 609.519 360.878C609.419 360.464 609.338 360.126 609.274 359.857C609.221 359.623 609.199 359.499 609.211 359.496C609.222 359.492 609.265 359.611 609.338 359.84C609.418 360.105 609.52 360.437 609.643 360.846C609.779 361.283 609.916 361.823 610.075 362.451C610.24 363.078 610.413 363.796 610.584 364.594C611.303 367.779 612.063 372.229 612.609 377.18C613.152 382.129 613.396 386.636 613.418 389.9C613.438 391.532 613.402 392.852 613.361 393.764C613.335 394.19 613.313 394.537 613.297 394.813C613.278 395.051 613.263 395.177 613.251 395.176Z" fill="#263238"/>
<path d="M613.23 386.483C613.208 386.483 613.211 386.093 613.238 385.387C613.278 384.682 613.376 383.664 613.574 382.416C613.784 381.172 614.078 379.694 614.54 378.089C614.979 376.477 615.583 374.737 616.35 372.968C617.851 369.406 619.891 366.495 621.664 364.693C622.08 364.214 622.544 363.869 622.915 363.531C623.106 363.369 623.276 363.207 623.448 363.079C623.622 362.959 623.784 362.848 623.933 362.745C624.517 362.345 624.844 362.135 624.856 362.153C624.909 362.224 623.548 363.025 621.831 364.852C620.121 366.675 618.139 369.567 616.649 373.098C615.888 374.852 615.281 376.576 614.829 378.171C614.354 379.761 614.04 381.224 613.802 382.456C613.575 383.69 613.445 384.698 613.365 385.396C613.299 386.096 613.252 386.484 613.23 386.483Z" fill="#263238"/>
</svg>
